<mxfile host="Electron" agent="Mozilla/5.0 (Windows NT 10.0; Win64; x64) AppleWebKit/537.36 (KHTML, like Gecko) draw.io/27.0.9 Chrome/134.0.6998.205 Electron/35.4.0 Safari/537.36" version="27.0.9">
  <diagram name="PÃ¡gina-1" id="bcte5ddZb8jeLJdqEEmH">
    <mxGraphModel dx="1975" dy="2758" grid="1" gridSize="10" guides="1" tooltips="1" connect="1" arrows="1" fold="1" page="1" pageScale="1" pageWidth="1200" pageHeight="1600" math="0" shadow="0">
      <root>
        <mxCell id="0" />
        <mxCell id="1" parent="0" />
        <mxCell id="3tEjD4ta9u-uqrEoS7ZN-1" value="" style="shape=image;verticalLabelPosition=bottom;labelBackgroundColor=default;verticalAlign=top;aspect=fixed;imageAspect=0;image=data:image/png,iVBORw0KGgoAAAANSUhEUgAAAikAAAILCAYAAAAt9wwjAAAAAXNSR0IArs4c6QAAAARnQU1BAACxjwv8YQUAAAAJcEhZcwAADsMAAA7DAcdvqGQAAP+lSURBVHhe7J13WBRX98c/uzQRFdSfXaSoaIKKKNHEWLClaDRB3/hiyxt7jGkaTWJirGn2RBN7jRLB3jvYBZEgKqKooKBIUSmCsCw7e39/gLK7zAKiJprM53nyPJG9c++555x75u7M7HxVQgiBgoKCgoKCgsIzhtr0DwoKCgoKCgoKzwLKJkVBQUFBQUHhmUTZpCgoKCgoKCg8kyibFAUFBQUFBYVnEmWToqCgoKCgoPBMUspNih7t/QzS09OL/JeRqUEqaKVLjiIiNsPk2DKSm0hkxDUyTf9uQG5iJBHXimthBn068fFp6A3/lBXP2ZDTXE19MJtHQY9UlsPKzH0u7NpISLLhDEqJPpPoAzs5dbsMxxpw/8IuNoYkG/nQmPtc3LO5bDYqKCgoKCiUfpOiI/PmSb7vUp0qVZ3x+WELO7ZtYNlUX1p6fsqBXEB/nV99W+LVfix7c02Pf1QkLv/cm5ZeHfjioJnOpMv83LslXh2+wFyTItyP5eBvn9LdvT7tvjtF3oM/h82iW6MGeL7SmsYN2zH5+KNtfPQ3ljN4ZAB3TT94WugzuBJymLNJj7oB0BEX+D1DfCex+9ajHmuInowrIRw+m2R+k6JP59LxA4Q/1jgKCgoKCv9qRKm5L/zfrShU6urif9tyhNDdE+lZWeLQj9PFAY0QQkgi8fjvYvG2CyLL9NAyoLt5WKxcvENcvG/6yQN04ubhlWLxjovCbBMTMhOuivMBg4WzhYWoM2yPyDc7QWye/bPYf/6CODCts6imVgn73n+Ie6YHmyVPnJ32sqhYqZP4JVZn+uGzR26I+NLDS0yMyDP9REFBQUFB4ZnCYvLkyZNNNy7y5HFhwyw2XbTCw3c03TIDCEjx5O03m1HdthwWt46xeV8Ut++Xw6VlQyqrITdmF0tWbufgsVgqNGlCueiNLF21naOJFXG8s54pc8Owb9eKunmX2LZ4OQGbN3L4Th1aumk4sWk/l1M12NVvQX17NfcvbWPx8gA2bzzMnTotcdOcYNP+y6Rq7Kjfoj726gzO+c/h1y3HCfnzNlWavEB1G+MZWFesQhV9BH8sPUpW83582qMBlqqKvPDKy9SvXg3XFipOzt3GLY/+jPFpjEXqceZ/NZsQu1a87FTeuLMH3A9i/q6qeNusxy/lNYZ2qm1weUpP+oVAdh8J4ewtFVUqWYBleWwsdSSf3szaTYe5rK2Om5MDllmxHNoWjlRLw8m16wnLc8a9rh0qQJ8exf7N2wiKSMOhgStVLDOI3r+D85aNcXFQgzaBkxsD2HYkguTyLjSsbovKyEgg4yK7AzYSdCmF2OPhVOw1lI411eiST7N57SYOX9ZS3c0JB8sHB+i5HbqOpWt2ERpvjbN7LXQXt7Nq3RmE6wtUuHmAHectaezigFpufH0mV4N2ck7dCGcHNeiSOb15LZsOX0Zb3Q0nB0vIvsqhLbs4HhlLUl5lGtSqYGyzgoKCgsK/G9Ndi3keXEmxFx0/nyM+7tBGjD2eW/ixFC9+9rYWFnWGiT0aIaS41aK3YzPxZUiWCB3fVNR8Z6W4mRkg+tirhJX7O+LT/3USzv/XRcy/Gi/+8K0nGn12RCSueltUsGouvj2jERe+e0lYWbiIj4I0Qkr4Q/jWayQ+O5IoVr1dQVg1/1ac0VwQ371kJSxcPhJBGp2IXdpDVK/6rliXdk9sGVhLVHtjgbgic2Ej79xk0dLK4EqKAbrIqcLL1k18HJR/LUgT+KFwsrAQdUfsN2n5AEkkrvlMfL0/U9xd31fUch4u9hhcRroX+LnoMGCNSNKliE3vOYla3h+J5Sdvi3j/8eLLPy6J1IRAMc7LUfgsjxBhS/uKhg4vi8FTZ4j5M98TTer4ioA0IaT4APHJkNkiND1HnJ3kJWr1/l2cPzFX+NRzEsP3aoQQOSLw42ai5+IEkRM9U3g7DhCbMg1tFEKkBYnxPiPEutgckXryW9GqkqeYGJEnpHh/Mf7LP8Sl1AQROM5LOPqsFHGSwXHSdbGkew3RbmaM0AkhpISVYsLMCJGTFCzm+tQTTsP3Co3s+JJIPvWL8HEusFGKF/7jvxR/XEoVCYHjhJejj1gZlyF2jBokFiVIIidqgRj9U4jBwAoKCgoKCkKU8pkUQ6yo7t6GlxpUwcL0o4df3yWurV/CjiRIPrmaoOt53A3cwRGNBZZqFdh4MGRZIDFJ+xhJAAs2J1HbxYVqvaay6rdJ9GloiY21dWFffyxgc1JtXFyq0WvqKn6b1IeGljYUNonGb/FeUqvWo155WxydqpEeuBy/KN0Dg0pBFseXbUE/ciFTOtoBYNNpOodCQjg6q6tp43ykaP4Irs67HStQpcdw/mO5hSWbHjxMqiVq335SazekskU1OrZ3J8ehFX1a3cVvcTC5mlB2Bt7EsVtP6kk6Wr7tTX07N3qOG8dHn3zAG1XiuJKYy7lls7nU3JeW9uVoNtqfHVPf4IXWPWnj/MD7Vri+M5FxXbWE/ZmEPjeJxEzD50AkYldOY5fzAHq5lKNyy7fo5GIBSFzxW0xwrobQnYHcdOxGz3p53DZ0mdqJfp/6kOy/mvM6ics7EmncrynlarxEzzbOBfGXGx+qe71De5f8FtIVPxYH56IJ3UngTUe69axH3u1cNOmHmD96BvvpwzfDXjQYWEFBQUFBodQPzhqiplxVD/p9MYRW5QDpFpeijX8pAxIpyXfQU55G3Ubw5R8X0d7bRL+Cq/nqGnWpawlqCzVS4i2S9YI7ycmIis3oPewdmuTvER72lXgrGb24Q3KyoGKz3gx7pwnGTW6TkqpHZW2NlRrUqEB/h5SU0v/kJuPI98y68zHrfuyEfcZt7moBKuDi5YWLmbsQmpN/EKYVHJg7k5nzT1PF8/8IXLqGqxKANe7d3qRc8FZCU28TevY+nXu0xVa6TcptFU6d+jNw4Ht8POVXfh7SEtSqwj2e2hIrSz16vY7kpBTSUlPz/WtfH09HK7L1KlQG93NUmRH4LTmERZsONCwPxmpMOi5fjEGyLLiPo35wrMTtlNuonDrRf+BA3vt4Cr/+PISWDzZ+Bdh1HEk/tT+L9h5l773m9KydnzIqAwPkxy+0Ubqdwm2VE536D2Tgex8z5defGdKyGr3mb2RsnSOMbetBn0WRD/tTUFBQUFDgUTcp+ScfgRBg4fYOvVpaknpoHmsiLE06ssSlUX1spfPs230NCci+fJFrD76lqwpPyJYNm/FCBYlLuzYTrgGkVFLuGm4uLGnY7AUqSJfYtTmc/CYpGDd5gZbNKkLOfXL0erKyssGuCZ4vWhk0KkAI8qdReCbX39rEZ58eoNz/RbNi4liGD55LiB70yfv47v33mbo3ybCHgoNS2Lo5l74zv2bcuHGMGzeOiXM/49ULK1gSogHA1skLnx5NST8WjNWIDfgPdsHCshEt3C4wb8wiwlJ15MbvZL5fBORbZYIVTbxe5OryyayMzEJKC2PZiiDSDZtoT/Lz+L3U6DeQVyppyM7TI2nyx8/Hkkbu9UnYt5FTGYBeQqfLQ5trSaMWblyYN4ZFYanocuPZOd+PCNOLT5ZNGDy0AbvGzCbPuzMVTT4ueXywbNQCtwvzGLMojFRdLvE75+MXfovdB+7gM2cPEUHDyV27zugYBQUFBQWFUm5ScrkVsYtjlzUg0jm1bja/LfiF7z/rTbv/bkdbzwawwKLwUgA1fSfwRbvynJjwOl0HfMj3p7KxunSOa9kC/fXTHI/X5res0ZepU96g+sXZ9Orcl1ET/Im6f4NTETfRizSiw69So+9UprxRnYuze9G57ygm+Edx/8YpIm7qEWnRhF+1wXfqd3SzCCHgj3WsD1HR/YcfGFDLeHqaW2fZv+0kcZKeu2f2sSMiEbQX+PV/H/D72T/Z+PN0pk+fw5rUGjS1Bt2lPaz282PVrotG/aC/TejiT5lyJI17128XXEXScydRi63dFZZ+9jlrI+6QfCyAhT9PY/IPPzH544H4jlpAcEZVfGcv4p202XR1daTVZxdo3t2JqD0nuJoRxZGDUUQHH+DMrXhC90ZgOXAuC7onMbVdPVx7LMH29Texi9rPqWt3uXD4BPH6hrRrl8Oyvm8z6rdorKrFs88vxMBYC1xGzGOW5xGGeHdn2OQNXFbriTtyirx3Z7PonTRmd3XFsdVnXGjenWYPH5x9gBrH/35AT6/O+LTIv8yiT41k/6lr3L1wmBO3nIoZX4VKDepqvsxe9A5ps7vi6tiKzy40p3szFQkbvmXExN/wP66lzUf/MxpVQUFBQUFBJYTxzYGyoUfS3WVFD0dGXhjE3isL6WID6LNIuBRLZpUGNK5p5tcxBWQnXeJqaiVcG9emguzWKZukS1dJreRK49oV5HdXube5eukW1G5Mg2omP+35y8klavVcTrn3x7tCOumZ90g58zsHy89g5gB708b/PPQ3+OW1bsRP+ZPZr5rcQ1JQUFBQUCgFpd6kGD6D8G+hlK6RJzeIj1p8if6rOXzU3pUKOdcJ3v0nFd8dRTfHIo8c/3PQJ3Jo1T6s3vDk0EeLabl6Ad2K3CNSUFBQUFAoGWWTUgyldI1ZMiI3s3T1Xs6n6KncsAO+w/rxco1/8AYFQJ/EwVlTWX+nPm8OHI5PU2WHoqCgoKBQNkq9SVFQUFBQUFBQ+CuRfbRDQUFBQUFBQeHvRtmkKCgoKCgoKDyTKJsUBQUFBQUFhWcSZZOioKCgoKCg8EyibFIUFBQUFBQUnkmUTYqCgoKCgoLCM4mySVFQUFBQUFB4JlE2KQoKCgoKCgrPJMomRUFBQUFBQeGZRNmkKCgoKCgoKDyTKJsUBQUFBQUFhWcSZZOioKCgoKCg8EyibFIUFBQUFBQUnkmUTYqCgoKCgoLCM0mpNymSJpOM9HTSTf7LyMhGZ9r4X4OezOgD7Dx1Gz1w/8IuNoYkozdt9ryhT+fi3m2cTPwrZmLsw9JT1uP+ody/wK6NIST/Jc7IIvbQVo7dkEw/+Meiz4zmwM5T3C6Ff7Pjj7M58CpP0jtZsYfYeuzGE+3zafC82FkajObyFNfX0/LZX2X/06aUm5RcDnzehV7jZjB3zhjecHXh9dGzmTvja3w7fMDGbNP2/w50cYF8P8SXSbtvoUdPxpUQDp9NerSTZtZJ5v73FZq1G8LP23exbseFv3nTJ3Hr5EI+H/I1W+OeviXGPiw9pT0uNzfX9E//IHJ5MD19xhVCDp8lqThnPBH0pJxaxpj3P8f/ytPPj2cCXRyB3w/Bd9JubpXgX33qWfy/HsyIFWfJM/2wGIrLU33KKZaNeZ/P/a/8zbWheJ4XO0uD6Vye1voyHedJYdrv49lfWGf+Dkq5SYFKPaezeekPTPmmPy0c7GnuO4EpPyxg0/x+1HrSW8DnBEunDvi0dSxwopra70zj1xEeWJo2LAYpoyo9lh1k81cvcvNQJA4ejR/p+CePBbVf7sHLdS1MP3gqGPuw9JTquPQgfpp9EI3p3/8hpAf9xOyD+bNT136Hab+OwOOpJ4+a6l49aev81+THM4GlEx182uJYbLLlo67iQa+Obo+2hkvIU3V1L3q2deZZ9/jzYmdpMJ3L01pfpuM8KUz7fRz7DevM34HF5MmTJ5v+sSiWODZwphyAdI1dv21HvPUxPRpYYuXUAGcbQJfM6c1r2XT4Mtrqbjg5aIg9tI1wqRaak2tZH5aHs3td7FRybS25f+0IW0M11CUCf/+jpFV/gXp5kWxft4UzeU6417VDBejTo9i7fgP7Tydg7diQmnZqIJurh7aw63gksUl5VHatRQWVof0a4k5uYcP2k9zUZJBwuwI2CTtY43eUtDotqJt2lLWrN3DBognN6pSTtc+YDC7uDmBj0CVSYo8TXrEXQztWJzN6PzvOW9LYxQF19lUObdnF8chYkvIq06BWBdl+s++c59gFNe6OkHKvHE4eTalrpwJtAic3BrDtSATJ5V1oWN0WVVYsh7eGcb/cdXbvTKBGUycqqkCfeJqA3/04mlaHFnXTOLp2NRsuWNCkWR10sYfYFi5RS3OStevDyHN2N9//g+npb3N05Sa0nd7A6rA/gbfsqN+wGuUAbcJJNgZs40hEMuVdGlLdVgWlnKsxcj6sibqMx+lM7Pq/7BPM7D+AWWfysFJXwrW5M3YZj5Y7+szLBO65iIXdDXb67SXW2gW3mrao0JJwciMB244QkVwel4bVsVVlEXt4K2H3y3F9904SajTFyeaWeR8D6NO5ELibIyFnuaWqQiULsCxvg6WcD4x8bE/lmIX0HzCLM3lWqCu50qzyLQ7sOI9lYxcc1GbWSVYsh7aFI9XScHLtesLynAvWVSnnU7HAepFO8Bo/0jqMpLuLZelz4gEyeWybcprNazdx+LKW6m5OOFjKx0WXbNrO0M7tXLgVyZ5NuwmNt8bZvRa6i9tZte4MwtWdaunBRezMvnqILbuOExmbRF5lV2oZFw4yLu4mYGMQl1JiOR5ekV5DO1JTrSP59GbWbjrMZW113JwcjDYluWf9+S3Wg/dfuM76TWHk1XOnjp0K0JMetZf1G/ZzOsEax4Y1sU07XiRPi/pCkB68Br+0Dozs7oIlcuPL+wv0JB1fzaI/9hGeWIH6L9REit7Bit+DyXVpRr0KKtDfJnTdUtbsCiXe2hn3Wjoubl/Fuj9vkxG5n03H0qjToi5pR9eyesMFLJo0I79MlmRn0fnmL7licgPQxJ1ky4btnLypISPhNhVsEtixRr6+lUPOjsK+smIPszXsPuWu72ZnQg08nGxlfCeX/8ZzUWdEs79gfZU7H8DcVbs4GRzMyZPHOXbiGlYvNqV6atH8yjJXfx/yZHymT49i/+ZtBEWk4dDAlSrW5u13UMv5LEvmfF0bzYmZRnWmubMtKUX8Zy73nhDiUdEcFCNdnMTwvZrCv0nxwn/8l+KPS6kiIXCc8HJ8R8zfuVj0beggXh48VcyYP1O816SO8A1Ik2nrI5afDRer/9dYVHr1I/Hr4hVi8ehXRU3P/4lps+aLZfOGCM86vcXaFElIKTvEJ73HiT23ckTKkW9Euyb9hV+cTmTuGCUGLUoQUk6UWDD6JxGSa2CvdFccnPieGP3HBXE3JVzM6FJNvDQ1UuTpLokf2zQQIw9qhBAasXe4q/Cec01IMvatjJMMOkwTQeN9xIh1sSIn9aT4tlUl4TkxQuQmBYu5PvWE0/C9QiMyxY5Rg8SiBEnkRC0Qo38KkZ93RKhY2rehcHh5sJg6Y76Y+V4TUcc3QKSJHBH4cTPRc3GCyImeKbwdB4hNGXdE+PIBws3BSwya9o0Y5jtR7L/3wCaduPRjG9Fg5EGhEUJo9g4Xrt5zRExKWOn7zzSYYl6kmNrKUXQc+pX49tsPRMe6VcXLU0OFJidQfNysp1ickCOiZ3oLxwGbRGYp51oaH+aV9ThZu4S4s+RNUee9rSJHiEfPHSlRnJjxlqhTt5MY9uUEMXFUR1HXoaWYGKIROYEfi2Y9F4uEnGgx09tRDNiUIe6ELxcD3ByE16Bp4pthvmLi/pTifSzuicDPO4gBa5KELmWTeM+plvD+aLk4efu6jA8yivpY3BFL3qwj3tuaI4SUJILn+oh6TsPFXo2ZuV5LFmFL+4qGDi+LwVNniPkz3xNN6viKgDRRyvk8TDYhdLFilreb+DBQI4Ss72Vy4gFS0TzeG+Uvxn/5h7iUmiACx3kJR5+VImpb0bhI8abtlouIMBM790aKJd1riHYzY4ROCCElrBQTZkaIXDk7M3eIUYMWiQQpR0QtGC1+MiocQqQFjRc+I9aJ2JxUcfLbVqKS50QRkSeJeP/x4ss/LonUhEAxzstR+KyMMzoufcVbouqrH4p5i1eKX4d4inoDNol7QhIpOz4RvcftEbdyUsSRb9qJJv39RJzOJE+LzHGliJN0InaWt3D7MFBohPz4ZvNYCCE0Z8UPr9YQPZYnC0kIId1aJj795oi4b9BEur5EdK/RTsyM0QkhJJGwcoKYGZErdJd+FG0ajBT5ZXKvGO7qLeZck0plp/x8i8kNIYm7ByeK90b/IS7cTRHhM7qIai9NFZF58vXtmmTOXwW93QkXywe4CQevQWLaN8OE78S9sr4rmv+ZQgiDuRitL0kk+v8q1sbnCSGliJ0jXhRu728SifeL5lfGHXP115DH9ZkQUnyA+GTIbBGaniPOTvIStXqvFcmGsTCtD0V8tlxEhC6VP18b1pmy5N4ToBQXMEtGuuLH4uBcNKE7CbzpSLeeTtjU7I53fTvceo5j3Eef8MEbVYi7koi2SNt6SHnu9OrYCJs67Rg0fBBDP+lF43vlaP3RRwwZOYI3ql3nckIe0Ut/5EDdt+hUqxzV2o9lZON9zFh6jlxNOofmj2bGfujzzTBeNNhJS1eX811QQ4b2eZEq1Zri/VLd/FsEKhtsbAq3ezY2Vqhk51KPvNuFdwul2JVM2+XMgF4ulKvckrc6uWABqGu8RM82Dy6vSWjSDzF/9Az204dvhr0o26+k8+Bt7/rYufVk3LiP+OSDN6gSd4VEyQrXdyYyrquWsD+T0OcmkXi/Mp69OuJm7cLrn33HknVT6FrxgVUqbGxsCr+l29hgpQJ11Zal7z/T5GalygGvIVOYOnUh2xb05JbfOk4LV96ZOI6u2jD+TNKTm5RIpr50cy2ND8t6HFZydj08DJAePXfUNWndow1OFZowYOo0pvy6geldbuAfcBrh+g4Tx3VFG/YnSfpckhLvU9mzFx3drHF5/TO+W7KOKV2rFO9jbRT79qdSu2FlLKp1pL17Dg6t+tDq7joZH+QW8bER6hq81LMN+XdgzMx1eQIeb3tT386NnuPG8dEnH/BGlTiuJEpYlWo+D5PNGFnfF82Jh6irmuTxRJy3LSY4V0PozkBuOnajZ708Uu6bxkXiip9pOwldUxM7X3en36c+JPuv5rxO4vKORBr3a4q1nJ15GtIPzWd0/iAMMyocsayctgvnAb1wKVeZlm91wiU/SfFbHEyuJpSdgTdx7NaTenm3C48DQIW1UyeGDX+fYe97UyE2mgRtNEt/PEDdtzpRq1w12o8dSeN9M1h6zvBJBLk55mGwBMyOL5nLYwCbZnz4ZXcurVjBJUni2pZo6vVtQ3mDJmqnfnzqk4z/6vPopMvsSGxMv6bWqGxsKCyTNthYqUppp7n5FpPL0lWWfxdEw6F9eLFKNZp6v0Td/GItW99KskNd1ZNeHd2wdnmdz75bwrqJzrK+K5r/mcbPuRmtLzXVe4/A11FF3B+j+DTkDRbN7UVNm6L5db+yufpr2LkBZfEZOs4tm82l5r60tC9Hs9H+7Jj6GlUNz+wm9aGozyR0Hm/Lnq+NTC1L7j0Bnswm5XYKt1VOdOo/kIHvfcyUX39mSMtyqB5mlRpLK0v0ej062bbWqNUG14csLFALUZAollhYgF7oiI9LQKPNQwBQHmfn6mTeTaVCr/lsHFuHI2Pb4tFnEZEGD/LqYq9wHWtsCv9UgPz1KPm5WD/8XHf5IjGSZcHlXTWqwkka/L89veZvZGydI4xt60GfRZFm+1UbHK+2tMJSr0cvQJUZgd+SQ1i06UDD8iAEoFKhsrDCUiYJ5GfDo/VvhvJubjiKPPKEiswIP5YcsqBNh4aURyAeYa4PMOfDsh4HcnYZUrbcAUBtUbBI7Gni7og+V4tQZRLht4RDFm3oUBgcVCoLrAyCU6yPrd3p9mY5greGkno7lLP3O9Ojra0ZH1Qr4uMiqFQFOWB+rpL6QRtAbYmVpR59fjKUaj7yyPm+aE4YH2KYxxK3U26jcupE/4EDee/jKfz68xA6/Nc0LvLtWloXtdOu40j6qf1ZtPcoe+81p2dttbyd9r2Yv3EsdY6Mpa1HHxYZFY7LXIyRHq419QP/SrdJua3CqVN/Bg58j4+n/MrPQ1oWHmeKpSUWkg4pL564BA3avIIkKO+Mc/VM7qYangbMzdGwifz49iXksf2bnzFQt5Kfd4ewKa4h/3nBNK52dBzZD7X/IvYe3cu95j0pcJsMpbBTZ26+Fcznhi6WK9fBumixljejFHaoVCosrApqhhnfyee/CQ/XF6gtLZGifmXYt4m8v2waHR2Qz69i6q8sZfEZEslJKaSlpuafL+3r4+loRbbpA7IP7TfnM7Xs+drIVDP+Kyn3HpcybFIEQuiN4mjZqAVuF+YxZlEYqbpc4nfOxy9CZ3KiKL5tyVjh2aEVmmP7CNcAaEm+Y0vn7i3I2H2AOz5z2BMRxPDctawLK3wU2dK1IXUvbGLlqTT0+jQSEu8V2GWLrfV90lK1oEvk2s0stFotFiXYZ9nInfoJ+9h4KgPQI+l05GlNHn3Wp7D7wB185uwhImg4uWvXmZ+3nJO0J/l5/F5q9BvIK5U0ZOfpkTQFDy7JtQdsba25n5aKFh2J126SpdWiFWbaF9e/DPciL6Hv/BbN/vyZ8Xtr0G/gK1TSZJOnl9Bk3yj9XAsw58OyHqc9KWOXJhe1So2k06HP0uBWhtwBELkaNAIgl/ibglc6ufPnz+PZW6MfA1+phCY7D72kQZOLsbNL9LEtTl4+9GiazrFgK0Zs8Gewi4W8D8JvFfExqFGpJXQ6PVmZWQb9mlsnXtjIJwMnSzMfUwoKgKzvZXKiCA+7tqRRCzcuzBvDorBUdLnx7Jy/hqAdpnGRZNr5kZ8eJnZaNmHw0AbsGjObPO/OVDRjZ3b8Ng7c8WHOngiChueydl2YQR+NcK+fwL6Np8gA9JIOXZ6WXMtGtHC7wLwxiwhL1ZEbv5P5fhGGo8uf5Kw86dBKw7F94fkPyGqTuWPbme5eNgZ5mkOdYuYoyLer6PjhpJSQx1i6M/zjZuwfPZqElr2oJ1P5LZsMZmiDXYyZnYd354IrZ7a2WN9PI79MXuNmlhat1qLYWAiKmW+LDPO5YelKw7oX2LTyFGl6PWkJidwrcKV8fZPLnQd2FFKYanK+O11s/stEEu6H8P3gn7H6YjlfeZVHdymC8MCi+aXR5BZJTXkew2dY0cTrRa4un8zKyCyktDCWrQgi3bBfI8z7rGhbjOtMTh0Z/5Ui9x6TUj44W4CUyOkNy1iy7ji37BrQovmL1KmoRmX3Iq0b3CBgyhi+mrGe6PqDGd44nN8XbiLKpgVtnW+ze9UKDiTWwLvHYHp53DRqO/Y1LfuXLiDgnAqP9o3JPrSW5duvUqFVW5ySd7Bi2UGSanRg+PA+uMUv54cVZ7gRG8I1xw+Z0N8N6fAUhs+PRJuTSoZta3z7v0Jtq3yT1VWb8KJlID98Ook1YRr+z+Ya0Q69Gexdj6raUGZNmkfQVTVVreM4l2qPZ6eBRe3r5YJtwS5TXbk5Lav9yS9fTGfbuQRSblwlJtueJo3Lc8pvEdtjK9Kmc3Ou/zyS+ZFaclIzsG3ty2veXYr4aGznHPYsXcCmKBtatHXm9u5VrDiQSA3v7nik+vP93D3E5NgixR3lnLYhHnf2s3B9OFq3trR1r/HQJlBRrrKW0FmTmBd0FXVVa+LOpWLfwIEbO1eVrn+dJ/07uBT0Z4n63hm2bz7O1bhznLjpwbhJvXCqmM35Fd8zd08MObYScUfPoWv+MvrfPy95rqXwoUeXwbzrmfDox3Vqyr31Pxrb5dmFjvVus33uMo4Kd7oPHUDLG4+WO+LOcVYsCiJFn821E1sIthvCtA88+L+c86z4fi57YnKwleI4ek5Lw7op7F+zgXCtG23bulOjfDmyz68w72N9Cjsmj+C7jac5++cJDu7eQ+g9R15t/zodGpr4zqcqIVOHG/m460t1kWK2M3fZUURjDyqE+bFoeywV23Tl7bfelFknNYnbsoQFm6KwadEW59u7WbXiAIk1vOneNBX/H0qYz8Nk05MWuYGFC7YRU6E1nbxrcnNNyTnR9aXaBYenE7l5qUEe1+T/3FvT4EYAU8Z8xYz10dQf/Dmdrs1ghFFc2tDAw7TdGDrd38OyhetN7FRh36ASMWccGDSqLVXUoLIpmrt5L1Tg8HfLiNTmkJphS2vf/rz0sHBUpnnLavz5yxdM33aOhJQbXI3Jxt6jC8Pe9eRGwBTGfDWD9dH1GTy2F04F/tFnXGDLkoVsjLKhxavO3NmzihUHk6nVsSdD3/UkfvkPrDhzg9iQazh+OIH+jeywlGIK83SIL81vGs5xLO84xLBx4QK2xVSgdacu9Hj9BZPxfagcMtVsHuejooJbTW7sTuX1ie/SwPCqx8Mm9jSoFMMZh0GMalsFNaAqVxlt6CwmzQviqroq1nHnSLX3pNPAXniUYGfP7u5F5+smcXiKaS4X5Ia6Kk1etCTwh0+ZtCYMzf/ZcC3agd6DvalXVaa+NX8Z79c6meTEWHq55D+grk+PZPPShawP1+LWti3uNf8P99YNisSuoYg0Wc86PLwcCFu7MH8uHRpx/8AKFm6PpWKbl1Ev7M+n55rT52W4dPoEW5YGofLtAKbroGE97uz7vWj97dCZNnXyH3zVp0Wy4XF8hopKTV/CKdaPCWO+Zt7BHF4f8ymvWl4s7NfI/q707P5aEZ91ztnD0gVFz9cdOrehZvKO/Drj3p0hvs25+ci593iohJDb9v9T0XH661Z8bLuG49+6P9rPBBX+dUiXfqR979tMPzOHtnJF/XHIjWL13FO49/emQno6mfdSOPP7QcrPmMkAe9PGCgqPjz75DyavbsiEL17iSafz00B3+mtafWzLmuPf4q4U638tMhf9/snokSQJvWR6w05BQQa9hF6SnvibIAFyTyxgxqbTXLyeg22VqlQknSz3jnQw/mWhgsJjI0UHMOnLyUyaGEaD/7Z4LjYoQP7a00vFvqxR4Z/Pv2qTorsRSri+Oe7aEML+kle+Kzy3aOMJPpbNC60sOXsslvumnz8mNp2+J2C8K+fWTGfipDlsjHWi/6huOD7ptzopKFhbIu5l4zjoGwY4PScJprtBaLie5u5aQsISTT9V+BfxL7vdo6CgoKCgoPC88K+6kqKgoKCgoKDw/FC2TYo+k+gDOzlVGknQfwBlVjd+Un4qhYLl/Yt72FwWGxUUFBQUFJ5RyrBJ0REX+D1DfCexuyRJ0H8EZVQ3foJ+KlnBUk/6peMcCC9eEVhBQUFBQeF5omzPpGhP8VWrj7BZHcyUssgq/ltQ/KSgoKCgoFBmHu1lbhkX2R2wkaBLKcQeD6dir6F0rKmWUVR8cICexNMB/C6rNqyTUV3MV0mWVVU1QP5zPekXAtl9JISzt1RUyZeUxcZSRvFRY04NNv9lU1H7N7MtKII0hwa4VrEkw1DduDj14AeY8VNxysD626GsW7qGXaHxWDu7U0t3ke2r1nFGuOJe4aaBgqWcYqeezKtB7DynppGzA2o5ldQiKprlSY/YyvZrVXnBsWDuCgoKCgoKzxClv92TfoivB/3CvfaD6ON6k7Nx+W+P0N8IYOLcqzT9739oHDGGdn1XEf/wnoOaWi08ydw2l20xOsq5vEKti4tYdvwut//0Z8KI4Uz48Td2Xc8g9Mf/8OnGdNAEMbbbdDK6D6Vr2hy6fbIVw5d+m/s8M+gL3vkpiVd7dcV67Vt49ZnMhvDUovb5/squPyYwYvgEfvxtF9czQvnxP5+yMR3Q32D96LHsrdKdAS/H8FW7/7EmMoSV44czzj8aHRqCxnZjekZ3hnZNY063T9hqZJx5P6G/QcDEuVxt+l/+0ziCMe36sqrQUairefGq3XF+3niL//s/NepKDqQlaHmxqZ7QleMZPs6faB1ogsbSbXoG3Yd2JW1ONz7ZmoU+JYyVXwzl83XR6NBzI2Aic6825b//aUzEmHb0XXWRnV/8wOW2/Xm3WRL79scBemL2LWXRrkuURpRAQUFBQUHhr6aUmxSJ2JXT2OU8gF4u5ajc8i065UuCyigqmqhhyqoNq6na0ozqopxaqeGDFrKfa4nat5/U2g2pbFGNju3dyXFoRZ9X7Iva52RDze7yarC6c8uYfak5vi3tKddsNP47pvLGC60N1I1LUg8256eSFX5BjVO/T/FJ9mf1eR3S5R0kNu5H03KGCpbIKnZS3Yt32hcoAssqVabIqGha0vLL3QR91/65ebmTgoKCgsK/i1JuUnRcvhiDVCgJWqCYaE5R0fBYczcSzKkuyqtJFiL3uTXu3d6kXPBWQlNvE3r2Pp17tMXWnH3l5NVgpeQkUtJSSdUD2FPf0xGrbL2x0nFxyrZm/VSywi8Adh0Z2U+N/6K9HN17j+Y9a+cHyECB05xi50MbZZUqOxSjoqmgoKCgoPBsUspNiiWN3OuTsG8j+QK0EjpdHtpc84qKhcirDYui2qVgRq1Uky9JWezntk5e+PRoSvqxYKxGbMB/sAsWZhUf5UYGqyZevHh1OZNXRpIlpRG2bAVB+XKS+ZSobGvOT6VVf7akyeChNNg1htl53jwQIi2kOMXaAuSUPtcEyapoaq6d4tS1J6yrraCgoKCg8IQo5SbFApcR85jleYQh3t0ZNnkDl9V64o6cIu/d2Sx6J43ZXV1xbPUZF5p3p5nhD1nUVena51XCv+qMz6ebuFOlFrlXDnL46C5OXM0g6shBoqKDOXDmFvGheznn8CrtcpbR9+1R/BZtRbX4ffiF3HnYnWXDdjKfp3D7WAALf57G5B9+YvLHA/EdtYDgNKjma2pfOywPnOBqRhRHDkYRHXyAM7fiCd0bzu1a/2Pugu4kTW1HPdceLLF9nTftoth/6hp3LxzmxC0n2rXLYVnftxn1WzRW1eLZ5xdiMFlzfgomqYovsxe9Q9rsrrg6tuKzC83pbuSofNSO/+WDnl509inQ2NCnErn/FNfuXuDwiVs0bNeOnGV9eXvUb0RbVSN+nx8hd/JvOalUalBXw3f2It5Jm01XV0dafXaB5t0bkbDhW0ZM/A3/41rafPQ/QEvor0N5b/YJnqywtoKCgoKCwpOhbD9BfubIJWr1XE6598e7QjrpmfdIOfM7B8vPYOa/QlJWz41fXqNb/BT+nP2q8oyJgoKCgsI/glJeSXnGyT3BghmbOH3xOjm2VahaEdKz3On4j5eU1ZN4aAWrjieReq8S7To3UzYoCgoKCgr/GP4hV1IgI3IzS1fv5XyKnsoNO+A7rB8v13hOFD/LjJ6kg7OYuv4O9d8cyHCfphR5jEVBQUFBQeE55R+zSVFQUFBQUFD4Z/HPuN2joKCgoKCg8I9D2aQoKCgoKCgoPJMomxQFBQUFBQWFZxJlk6KgoKCgoKDwTKJsUhQUFBQUFBSeSZRNioKCgoKCgsIzibJJUVBQUFBQUHgmUTYpCgoKCgoKCs8kyiZFQUFBQUFB4ZlE2aQoKCgoKCgoPJMomxQFBQUFBQWFZxJlk6KgoKCgoKDwTKJsUhQUFBQUFBSeSZRNioKCgoKCgsIzibJJUVBQUFBQUHgmUTYpCgoKCgoKCs8kz+kmRY/2fgbp6emkp6eTkaVBMm3yrHH/Ars2hpCsN/2gJPRkRh9g56nbPPKhhpRi/PsX97A5JPnxxikj+owbXIy+RZbpBwrPCfe5uGczIcUl2NNCn0n0gZ2cuv03jP0EyIo9xNZjN55CDdOh0xX8rySVrn/Fl0XRZ3DjYjS3SihO+sxoDuw8RfGu03IreD2LF/lx9GJ4iTUZ4P6FXWyUqculG++v46n4/vndpORx58p+JnjXwOmt6QRdTCbHtMkzhj7jCiGHz5L0iAmliwvk+yG+TNp9q0iSPgolj68n/dJxDoQ/3jilJTc31+BfWk7/5MvI9TcM/vackpuL4cz+NejTuXT8AOG3yp49xjlRWnTEBX7PEN9J7H6Msf8u9CmnWDbmfT73v8KD/cTjkhX5B+OHDmXs5LnM/3U206eMZ4Tvt+zWmLY0RfElMnmoPf0TviPXU2x10sUR+P0QfCftxrzrJOLWfMb0WC/a2+1h2MBZJdRkAD0ZV0I4fDbJuC6Xary/jifle1nEc0uO2Dygumj0+QmRa/rRP4pcEfKlh/CaGCHyTD96XkkLFJO/3ylyHvxbd1WsX7RN3JSMmz1/pInAyd+LnQ8nplBqTHPiUcgNEV96eImJEc/jCtGJmJntRcMPA4XG9KMyoLuyWPSo3058d+Z+4R+leLHu/ZFidbphSzP8231ZJA914ur6RWJbKYpTbsiXwsNrojDrOl2smN3RS3wbnieEkERens60xSNR4nh/KU/A92awmDx58mTTjcvTRc/d0FX89MMitkVKuLRozP9ZmbYpDTqit/5CYIX/MvI1RyxMPtUmnGRjwDaORCRT3qUh1W1Vpg04uTGAbUciSC7vQsPqtqgAffoFAncfIeTsLVRVKmGBJeVtLNEln2bz2k0cvqylupsTDpZZxB7aRrhUC83JtawPy8PZvS52+Z0QtX8z24IiSHNogGsVa/QZ0ezfcR7Lxi44qLUknNxIwLYjRCSXx6VhdUzNgwwu7g5gY9AlUmKPE16xF0M71kStS+b05rVsOnwZbXU3nBwsHx6hvx3KuqVr2BUaj7WzO7V0F9m+ah1nhCvuFW6WML6ezKtB7DynppGzA2p0JJ/ezNpNh7msrY6bkwOWZHP10BZ2HY8kNimPyq61qGBkd8nH2NvHsHDAAGadycNKXQnX5rW5dyqI8wlJxKSY8YWMP0FPetRe1m/Yz+kEaxwb1sRODfevHWFrqIa6RODvf5S06i9QLy+S7eu2cCbPCfe6dojMywTuuYiF3Q12+u0l1toFt+rphAX8jt/RNOq0qEva0bWs3nABiybNqFMOmfhD9tVDbNl1nMjYJPLs7YlZOIABs86QZ6Wmkmtzat8LLiYH9WReDmTPRQvsbuzEb28s1i5u1LRVmZ1bVuxhtobdp9z13exMqIGHU8X8nhJPE/C7H0fT6tCibhpH165mwwULmjSrgy72ENvCJWppTrJ2fRh5zu7UtTN1MOjTo9i/eRtBEWk4NHClinX+3/au38D+0wlYOzakZr4RHNoWjlRLw8m16wnLc8a9rh0qfSZXg3ZyTt0Qmysb+N3vKGl1WlA37ShrV2/ggkUTmtXRya4Z29TjzOxvmBPO2GXIjG1KxkV2B2wk6FIKscfDqdhrKB1rqmVjZYhx3Gy5uWuN2bgb+8WZ3LMB5ud2eCth98txffdOEmo0pVry4cJxKrtSq0KezLoTpAevwS+tAyO7u2BZijVUdN09IIs9X/Th16oTWPOxJ+Ue/FllT+OmdbEsX5Maavm6J+9LnYy9RgM+ki+N17ErtjFbzPiyXNFcr5bMoS27OB4ZS1JeZRrUqiBT4zHxpSEl+7VobXLG5lYIQecTSIpJkVnD+WRc3E3AxiAupcRyPLwivYZ2pKbaZLy69zm2fB6rNoeRpJLQWLnQvGoSBx7WZHPnEz0Z0fvZcd6Sxi4OqM2NpzMT1wL0cjWv5oNznsxay4rl8NYw7pe7zu6dCdRo6kRFgw6LrjHTPH6CmO5anja6qNmiQyWVAAQqC1H3vU3iTsmbVBlyxJaBNUTjsTJXUnICxcfNeorFCTkieqa3cBywSWQaNxCBHzcTPRcniJzomcLbcYDYlCmEuBcoPu8wQKxJ0omUTe8Jp1re4qPlJ8Xt6/5i/Jd/iEupCSJwnJdw9FkuIkKXir4NHcTLg6eKGfNnivea1BG+AWlCSPEi4JMhYnZousg5O0l41eot1ibeEsFzfUQ9p+Fir0aInMCPRbOei0VCTrSY6e0oBmwytk6INBE03keMWBcrclJPim9bVRKeEyNEnhQv/Md/Kf64lCoSAscJL0cfsTLO0HmSuL6ku6jRbqaI0QkhpASxcsJMEZGTVOL4UvIp8YuPs3AavldohCTi/ceLL/+4JFITAsU4L0fhszJOZO4YJQYtShBSTpRYMPonEWLk+NIfc2fJm6LOe1tFjpC3xQg5fybniZQdn4je4/aIWzkp4sg37UST/n7iWkqEWP2/xqLSqx+JXxevEItHvypqev5PTJs1XyybN0R41ukt1iYliBMz3hJ16nYSw76cICaO6ijqOrQUE0M0QnfpR9GmwUhxUCOE0OwVw129xZxrkpDiTeO/UsRl7BCjBi0SCVKOiFowWvyUPzHxZp33xNb8iRWbg1LiCTHjrTqibqdh4ssJE8WojnWFQ8uJIkQjyc8tOVwsH+AmHLwGiWnfDBO+E/cb9KYTl35sIxqMPCjyTR8uXL3niJiUMLG0b0Ph8PJgMXXGfDHzvSaijm+ASDM4UgghpPgA8cmQ2SI0PUecneQlavVeKxKTdohPeo8Te27liJQj34h2TfoLv2vJImxpX9HQ4WUxeOoMMX/me6JJHV8RkCaJ5FO/CB9nJzF8r0YI3SXxY5sGYmS+I8Xe4a7Ce06MSAkzs2aEcU5IKTJjx5l860wLEuN9Roh1sTki9eS3olUlTzExIk8+VoZLJLNo3MzHvahfkrVm5ha+XAxwcxBeg6aJb4b5ionbAoqMI5/rOhE7y1u4fRhYxnVnQG6wGNe4nGg5+ZyZq65m6p4ZX8rba8Aj+FJ2Hd+KkvHlNZF3xzTXt4kdowaJRQmSyIlaIEb/FGJmfRn60pDS+9UwD+XHMCYtaLzwGbFOxOakipPfthKVPCeKiDz58UTuKfGVx0ti0tk8ISTDmiyJO2bWhpQULOb61Cuoy+bGMxPXB0iJZmue7Fq7lizClw8Qbg5eYtC0b8Qw34li/z2D7mTXmDnfPz4yX0+eLpnBQYRkivx/CInEY0GcyzNt9ZhYufLOxHF01YbxZ5Ke3KREMo3u21nh+s5ExnXVEvZnEvrcJBIz9Wij9rE/tTYNK1tQrWN73HMcaNWnFXfXLSY4V0PozkBuOnajZz0JncfbeNe3w63nOMZ99AkfvFGFuCuJ5J5bxuxLzfFtaU+5ZqPx3zGV16rV4qWebXAuuNxj5foOE8d1RRv2J0n6XJISM43uN0qxK5m2y5kBvVwoV7klb3VywQKQrvixODgXTehOAm860q1nPfJuG94BVOPU71N8kv1ZfV6HdHkHiY370bRcjRLHp7oX77TPHwfpCn6Lg8nVhLIz8CaO3XpSL+82kiadQ/NHM2M/9PlmGC8abpfLcowZWwx9oZPzp8MVlv54gLpvdaJWuWq0HzuSxvtmsPymO706NsKmTjsGDR/E0E960fheOVp/9BFDRo7gjWrXuZxYndY92uBUoQkDpk5jyq8bmN7lBv4Bp8mzscHm4bcFG2ysVIDEFT/T+OdxO1dD+qH5jM6fGMOKTqzYHFTXbE2PNk5UaDKAqdOm8OuG6XS54U9AyHn5uSU0pVdHN6xdXuez75awbkpXg8FU2NjYFH5zsrHBSgXqqi1527s+dm49GTfuIz754A2qxF0h0ejJNh3nls3mUnNfWtqXo9lof3ZM7cyd5T9yoO5bdKpVjmrtxzKy8T5mLE/A421v6tu50XPcOD765APeqBLHlURBda93aO9SkGAqG2wKHYmNjRUq1FRtKb9mjB+0k4heKjP20nMG97olYldOY5fzAHq5lKNyy7fo5GJhPlaGS0QqGjeVbNzl/PIaVS3MzM2zFx3drHF5/TO+W7KOKR3URcYpKdfLuoYKySNPApVabfQtuhC5updnxpclr83S+9LMOv4/Wxlfgrqqp0mud0CTfoj5o2ewnz58M+zFEteXEWX1a0ljSLGsnLYL5wG9cClXmZZvdSI/DeXHM0JtWJPNrw1R4yV6tnEuqMtmxpONq1GxMVPzQjgvt9aWJ9C0V0fcrF14/bPvWLJuCl3zL9qWbo09Yf7yTUqFli/TrNyDxFRTteUrvFim2z1myEonQ6ciM8KPJYcsaNOhIeURFGyLHqLKjMBvySEs2nSgYXkQAqzdu/FmuWC2hqZyO/Qs9zv3oK2txO2U26icOtF/4EDe+3gKv/48hJbWalQP15caSytL9Ho9uuQkUtJSSdUD2FPf0xGrbD2oVIWFQ5VJhN8SDlm0ocODwQ3QXb5IjGRZcMlMjapgIOl2CrdVTnTqP5CB733MlF9/ZkhLa6NjsevIyH5q/Bft5ejeezTvWTs/yKUY/8E4SLdJua3CqVN/Bg58j4+n/MrPQ1pi32s+G8fW4cjYtnj0WURk9oMOy3gM5m15gCTnz3vXiUvQoM0raFveGefqmdxNlVCrDcqzhQVqIQoKqyUWFqB/0L3aoiD57Wni7og+V4uQrexm4l+tF/M3jqXOkbG09ejDoqITKzEHAdQWBUvQvgnujnpyc+LNzk2lUmFh9SAvjJE1HVAXJilqSyss9fpCHwAgkZyUQlpqar6f7Ovj6ajiyvUENNq8ApvL4+xcncy7qUhqgzxSW2JlqUevF4DKYD2YtUZ2zZhkP/FxZsY2aHP5YgySZYEn1A/GNhMrwyViLxM3WXPl/GJFtl62ccH8LbB6YJPsOMXnepnX0AOs3XnJw45r589xz/QzQC9b98z5suS1KT9H4yYPkF3H2XIrIh/jXLen1/yNjK1zhLFtPeizKLLU6wsex68ljKG7zMUYiULXFawNM+MVwbAmF7M2HtZlc+PJxvVBXwYUqXk55teaSoXKwurhWIWUYo09Yf7yTYqlx1ds3DaTUX378N6Xy9i1pC81ymiF0AuEUcXNIiRgO5Enfmb83hr0G/gKlTTZ5OklNBqDJ7a1J/l5/F5q9BvIK5U0ZOfpkTQasHXCy6cHTdOPEWw1gg3+g3GxsKRRCzcuzBvDorBUdLnx7JzvR4QO2UVh1cSLF68uZ/LKSLKkNMKWrSAo3bCFlpM/j2dvjX4MfKUSmuw89JIGQ/MsG7lTP2EfG09lAHoknY48bS6WjVrgdmEeYxaFkarLJX7nfPwiTLewljQZPJQGu8YwO8+bzg93wA8oeXwsG9HC7QLzxiwiLFVHbvxO5vuFk7L7AHd85rAnIojhuWtZF2ZkdKmPUavUSDod+qy7HCzBFll/3vekQysNx/aFowHQJnPHtjPdvWwKDywBkatBIwByib8peKWTJza2tljfTyNVC7rEa9zM0qLVWsjGP/zWbg7c8WHOngiChueydl0YqFWoJR06fRZ3D5aQg/lWkKvR5OdRbjw3xSt0eql1sXOTyzkAW1tr7qelokVH4rWbZGm1aEUxBzzEiiZeL3J1+WRWRmYhpYWxbMUxnNu3QnNsH+H5RpB8x5bO3b2wKblDwBZb6/uk5TuSazez0Gq1FGdOYU5ocOtgbuwHWNLIvT4J+zaSv0QkdLo8tLnm1+oD9CkycZONu6WMX4JIL2ZuhrMrOk5wMeuu4OT3CGtInxpF8PmUh+PlU4VeX47hheOz+C7orsFVj3TObFpPaMJxmbqnM+PLkutE0Tma86WQX8fpxfnSwJv6FHYfuIPPnD1EBA0nd+06tCfNrS+Zzcoj+LUwDzNJNTtGYb/u9RPYt/EU+a7TocvTkis7XkS+bUIvv4EoZm08xNx45s5nJhSteS/Ruri1JmtQcWtMxvdPgL/hwVk19vXb0K33u/h08aS2zINIJaPh+ol1LF+6gWOXEkm5Hs6h/bvY8NtEFue8y7e9a3BxxffM3RNDjq1E3NFz6Dy70MGlUv7hKhuyz6/g+7l7iMmxRYo7yjmdJ30bRzJ5xHdsPH2WP08cZPeeUO45vkr71zvQ8EYAU8Z8xYz10dQfPJbOOXtYumATUTYtaOt8m92rVnAgsQbe7wzlHfdr+E0Yw9fzDpLz+hg+fdWCqA2LWbg9loptutKtRjwrvp/LnpgcbKU4jp7T4dmlHS6V8n2hrtycltX+5JcvprPtXAIpN64Sk22PR5fBvOuZQMCUMXw1Yz3R9QcztpdLkYfZVPYNqBRzBodBo2hbRQ36VM6XOH5bqkatZfWddozq0ZRmrRtwI2AKY76awfro+gwe60PlkKkMnx+JNieVDNvW+PZ/hdoProKp7HixlMfUVcewfe4yjgp33vC4T8APprYU+kJVqSkvOcUa+7O9Mx5t3Ihf/gMrztwgNuQajh9OoH+dm2xfsoCAcyo82jcm+9Balm+/SoVWbXFK3sGKZQdJqtGevo2us2JRECn6bK6d2EKw3RCmfdCMSraV0YbOYtK8IK6qq2Idd45Ue086DeyFx03j+PtUDWHq8PlEanNIzbCltW9/XqqrJmb7XJYdFbi/4cH9gB/M5yCCO8dXsCgoBX32NU5sCcZuyDQ+8KhJE5m59a1xjS1LF7I+XItb27a41zB8ME5FucpaQmdNYl7QVdRVrYk7l4p9Awdu7FzFpigbWrR15vbuVaw4kEiNDp1pU6fCw2MrNX0Jp1g/Joz5mnkHc3h9zGe87t0et/jl/LDiDDdiQ7jm+CET+tckbssSFmyKwqZFW5xv72bVigMk1uhA59YViVy7mjvtRvFWgwpU1oYya9I8gq6qqWodx7lUexo4xLFz1eYia6ZD55epZxv7MCe6Dx1AyxumYzfKfygdADWVm7ek2p+/8MX0bZxLSOHG1Riy7T3oMvhdPBOMY9XLpdBX4t4hppjErZVrddm4d33/HdyvGfrlU9pVl5tbRepXimPX6g2Ea91o29ad6nmHTcYZQFv7S0XWnYeXA2FrF7ItpgKtO3Whx+svlGINtUb3x2B6LpT4tJ/XA6cAYFn7VXq8ksfuHyazaFcwZ86eJSIijgre/8Xb0U6m7rXgo0/+I+vLTk3vsf5H82uz9L5szssd38Db2XQdO1KtiC/tadbYhlN/LCrM9ep5HJ4ynPmRWnJSM7Bt7ctrbe05b1LjtQ3qkLz793xfdnyF+pULilOZatOLdPSuwfWVxZxH1JVp3rIaf/7yBdO3nSMh5QZXY7Kx9+jCsHc9TcbrjObIChauPMiNCo1o0rAqd/YuLajJXXgpJ5AlMueTdi3Kc3LtIrbHVqTNaz3x6VRTZrxONL+3vsj5rH8Hl4d5Ie4cl6l5HtRs0qboOu9bg2tblrJwfThat7a0da9hcI5RYfdiaxqYnA/fcYhh48IFRX3/BFAJYW5f9+8jN2o1c0+509+7AunpmdxLOcPvB8szY+YA7E0b/+PQc+OX1+gWP4U/Z7/KU7x697cjXfqR9r1vM/3MHNr+bROVuPRje3rfns6ZOW2ff3/rb/DLa92In/Ins1997mejoPCP4tmoeWWjjDda/onkcmLBDDadvsj1HFuqVK0I6Vm4d+zAg++c/0z0JB5awarjSaTeq0S7zs2e/xNmSegl9KV9A+dTRC/pkaS/24rHRJ/IoRWrOJ6Uyr1K7ejc7B+fPQoKzx/PSM0rC8om5SE2dPo+gPGu51gzfSKT5mwk1qk/o7oVfQfLPw2VdIfQ33/mYJMpTO9W5CGWfxbaeIKPZfNCK0vOHovlvunnfxHa+GCOZb9AK8uzHIv9u6x4EqiQ7oTy+88HaTJlOv/09FFQeO54RmpeWVFu9ygoKCgoKCg8kzzHV1Luc2HXRhlBsyckyCfXv/YWwesXs8jvKBfD5UWfSs+TspMn3NffQFYsh7Ye40Zpr0UaiaDJxOkJIifupb17jYsxyfm/vnliPOo8Hi3mf6sYWSnELc0h5/+njlw+Zt0i+mI86UaJUFgP4p5sMigoKBTw/G5S9BlcCTnMWRN1pscV5HsoLmXavxTHms+mE+vVHrs9wxg4a3tR0adH4HHtNORJ9vWXo0/h1LIxvP+5P1dMf00ti4kImmmcnihy4l732TOuF+MPpj3ZxfOI83ikmP/NYmQli1uaQ87/T4DiRCBl81Hi8oL3GLAkuvCevlE9GE7fmZEPu1BQUHiCmL6C9vnnMQT5iohLFaKLnS06en0r8rWh8sRjakM9np1FeJJ9/fXoYmaK9g0/FIGlfZ/y3ymClhsqVi48IlLLJOXwJHm0mD9bYmR/JyWLQBbJRylRbF2wVkQbvI7+ydcDBQUFOf6G96Q8IfQZRO/fwXnLxrg4qB9JkC9LRnSttuaEschZs8rcOpDff737R1g+bxWbw5JQSRqsXJpTNemAgeiTnvSo/WzeFkREmgMNXKtgjZyIH+bt1KcTtXc9G/afJsHakYY17VCTVUS0zMlQ5clcXzJzNiL7qoFYlz12N3eZFfoyFfdzzj1bjJhdWUTBVIj0YNb4pdFhZHdcirzh0AA5EbTqmQZ5kF3UX7YpMr6Qi5epmJwrVaxNxb30pEef5/K1aCJvGQr/Fc0nORG/QmTGf5jPbpQzK9BXzmzMdTJ+xZwYmewlIPOCh0XE3pzsiggg2t4tpbhlthmBwtL434woaL75SRxfvYg/9oWTWKE+L9SUiN6xgt+Dc3FpVi9fkE9/l+Mz+xuJQDrL5IdpPupSLhJ16TLnY/LF1ComHzKpBy1wrZghv35lRePIX1dF2isoKBTBdNfyfCCJpOC5wqdegaDZIwjyLY8INSu6ViguZdq/ELmnvhIeL00S+dpQhqJPkogP+EQMmR0q0nPOikletUTvtclmxLnM2ZkidnzSW4zbc0vkpBwR37RrIvr7XRPJpqJlhipPZvsqOmdjEcLMomJdsoJw14QkJwqWrDUjZldWUTAhdLGzhLdbCVdSZEXQcg3ilC3umPprb5SML/Jk4yUnJpd4yzjO8sJ/pRPxK0QuXxKN881cPMzF3Ixf5cXITO3Jx5zg4ckE07julfVDnK4U4pbZd8wIFJoROTTyfwkiakIIzdkfxKs1eojlyZIQQhK3ln0qvjly37iRoQikmbVimI/yYmrG9UCYW79mROPk28cJ5WKMgkJRntPNu5oaL/WkTYFi3qMI8kk6j1KIrhn3b4raUPRJd45lsy/R3Lcl9uWaMdp/B1NfqyorzpVnzs7opfx4oC5vdapFuWrtGTuyMftmLCehqYloWaHK0yPN2ViEUCoq1iUrCGdGFKyqhRkxuycsCmaEOUE5wzgVFXmb6LytqC8Sz8jEy15WTK5aLUNxr2gzwn+lyScDZPOlmnG+mYmHuZjL+jXPnBiZPOYEDzfEuhvHdWI9WT8sPacvWdxSXZWWsgKFuSX7vyQRNcCm2Yd82f0SK1ZcQpKusSW6Hn3blDdqY0hp1kppxNTMrl8zIqRa2fZLOVeqZ7IUFP5dPKebFDAUNHtUQb6SRdcw6l+OQjG+ZJJS0kjNV87Cvr4njlbyYmLm7NTFx5Gg0VKoKedM9cy7pEomomUGmOvL3JwLkRfrkkNeFExvpvUTFgUzohgRNBNhO0N/yfqieapMvDLNiMkZinuZF/4rXT4VYC5fSiHQZy7msn4tRoysOIoIHmqFcVyL8UOpxC1lBQp1Jfuf0oio2fPmZwPRrfyZ3SGbiGv4H14ounQeIpsfRmuldGJq5tevvGhcntn2D9oqKCg84DnepBTyyIJ8RYpbPobiUlmmH4p8McMih1o1wevFqyyfvJLILIm0sGWsCEqRFefSOcvbaeXZgVaaY+zLV3lCm3wH287dydeUKzIilGXOD5AR6zInCGcpKwpWjJidobUy45gXBTM44WTHcuLQ+YKN0QPMCcoZtnlAob9kfXGhsUy87psRkzPAqhhRQ/kQkR17gkPnC068D5DNF6ORzMbDwkzMZf2qc5YXIzNnF4Cc4KGnibBhcX4oUdwSM/ksJ3Jo4v9SiqhZug/n42b7GT06gZa96hUtcAYikDl1ZPKjYK3k52MxYmoG9aC49Ss7W7Pt9aRGBXM+pWhkFBT+rRRZw88HelIj93Pq2l0uHD5BQp0RzJvlyZEh3nQfNpkNl9Xo445wKu9dZi96h7TZXXF1bMVnF5rT3ekye05cJSPqCAejogk+cIZb8aHsDU/GzqM1rsE/MnRBCPHnCvuPvx3NgW3BxF87xsbtf3IjJZL9p65x98JhTtysxv/mLqB70lTa1XOlxxJbXu/uQsN27chZ1pe3R/1GtFU14vf5cbriMHk7de8yd3E3IicMZOx3P/HTqebM+f51ROROjl1O5+yezZwzPmtj4fIIc25m+HVSImHDt4yY+Bv+x7W0+eh/oK5K1z6vEv5VZ3w+3cSdKrXIvXKQcMuBzF3QnaSp7ajn2oMltq/T3dGSql378Gr4V3T2+ZRNd6pQK/cK+w8dZuexy6Sf3cPmc6noZcaxbNiOdjnL6Pv2KH6LtqJa/D78Tl7lwv4QrqWc4+DRa2gOfodvrx6M3WK4TbTAZcQ8ZnkeYYh3d4ZN3sBltZ64Iye4cPZBnI5x/oyxv9TVfIv6ormTTLycqPO/uSzonsTUdvVw7bEE29e7UyfdMM4O+M5dTLfICQwc+x0//XSK5nO+502izORTHAe/86VXj7EYTUVdR2b8Okb5HK+Tj8eZ8vL5c7pim6J+PV2REfNm4XlkCN7dhzF5w2XU+jiOBMfK2wWA4F6YP7N++YUfv91F3ak/8bYq0jiu6uryfigQt1I7/pcPenrR2adFvryCPpXI/ae4dvcCh09EErXnBFczojhyMIro4AOcuRVP6N4ILAeW4P9bTrRrl8Oyvm8z6rdorKrFs88vxMR+QF2D3h/3xtnrTbpXNf0QsPOgtWswPw5dQFi5PkXzo0mmQT7GUc13NoveSWN2V1ccW33GhebdaXbfuB4kVvGVWb9vQtQeTlzNIOrIQaKigzlw5hbxoXuJEH1k29vrb7D+i/6M33zD1GoFhX8tyhtnFZ45NEen83P2R3z1hp3pR88ZGo5O/5nsj77i2ZqKnF3/FMFDPcl/TGZ1wwl88dLzOwsFBYV8ntMrKQr/VHTXj7E5pT2DXnumzuplQMf1Y5tJaT+IZ2sq5u16vgUPJaIDJvHl5ElMDGvAf1soGxQFhX8CypUUBQUFtPHHWbloBSdym/O/UUPo7PpM7axKgcS1TVOYcaou//tyKC9XVb5/KSj8E1A2KQoKCgoKCgrPJMrXDQUFBQUFBYVnEmWToqCgoKCgoPBM8pxuUnRkZ2aQnp5OenoGWZqCh/102WRm5P8t88HfykQWsYe2cqxAq/1vkYt/EugziT6wk1O3nzvL/3KyYg+x9diNQpXbfxh/Ww5nx3N8cyBXn6hjjdfn80EWt6IvEp/+qBHQkxl9gJ2nbj9G7P5+f+kzozmw8xSlK0V/v71Pmme+vty/wK6NISSXKj5/Lc/nJkWfyc3Ti+nfqDovfbyB88n5L0XSZ97k9KIBdHh/GX/eyjY9qpToSTm1jDHvf47/FR2PLRdfnCz8U0VHXOD3DPGdxO5bZbK8zOTmPuqMc3nkQ54g+pRTLBvzPp/7X+HZeTP5k/TJY+ZwWdGnctb/awaPWMHZPNMPi6O4uZuuz6fHo+exeaTLC3hvwBKiH/EspYsL5PshvkzafauMsfvr/GUWXRyB3w/Bd9JuSi5Fz4C9T5hns75gtM70GVcIOXyWpBLj89fzfG5S1JVx6/AWr9SzoXGnd3nFKf+XCOrKbrTv3pYuXf5De1fZ112WAjXVvXrS9qFuj5ra70zj1xEeBa8jfxTSCfppNgeLvhjzL8ASpw4+tHX8i0OcHsRPsw/mv420lKQH/cTsv8dJAKire9Gz7QONmGeDJ+uTx8nhx0BdBY9eHXF7xEGLn7vp+nxKlCGPzaPn9sWKDPKbTtdH/NWRpVMHfNo6Pkah/ov8VRyWTnTwaUvpStEzYO8T5lmsL5isM3Xtd5j26wg8HnGt/hVYTJ48ebLpH58ueu6GruKnHxaxLVLCpUVj/s/KtE0pEHc4tmIpCS+NpW/z/Fd3A+hvnyAorildW9lzP/YQ28IlamlOsnZ9GHnO7tS1M1Uw0ZMetZ/N24KISHOggWsVrEU6wWv8SOswku4uamO5eHQkn97M2k2HuaytjpuTA5ZZMvLztTWcKIUsvKEdmZcD2XPRArsbO/HbG4u1ixvV08MI+N2Po2l1aFE3jaNrV7PhggVNmtWhnJwtABkX2R2wkaBLKcQeD6dir6F0rKlGl3yazWs3cfhyvuS80fCQLx+/fzPbgiJIc2iAaxXrAv/sZf2G/ZxOsMaxYU3s1PmXL019W1tzgpn9BzDrTB5W6kq4NtDz57Yw7pe7zu6dCdRoWot7wRsJ2HaEiOTyuDT8P7JPzKT/gFmcybNCXcmV5rXvEbwxgG1HIkgu70LD6raosmI5vNWwHycqqgD9bULXLWXNrlDirZ1xr6Xj4vZVrPvzNhmR+9l0LI06LeqSdnQtqzdcwKJJM+qUQ8YPgvTgNfildWBkdxcszcyZ7Ksc2rKL45GxJOVVpkGtCg8cR9Lx1Sz6Yx/hiRWo/0JNpOgdrPg9mFyXZtSrYJBzuuSiOWDUrz2VYxaWyidFcq6uHSpAnx7F/s3bCIpIw6GBK1Ws9SY5rCXhpGEcqmOryubqoS3sOh5JbFIelV1rYWg2crlWjA0PyT2L/2+xeLz/AtfXbyIsrx7udQra6NOJ2rueDftPk2DtSMOatqQdN8kHZ1tSTMc1Wp+WpfCpYazy0SacZGPANo5EJFPepSHVbQut1t89/sh5nHV6HUvX7CI03hpn91roLm5n1bozCFd36tjc5mLUJS6fjym1fZDBxd0BbAy6RErsccIr9mJox5qo5eZqiDaBk6a5YuovfToXAndzJOQst1RVqGSh5/aFrfj5HSWtTgvqph1l7eoNXLBoQrM6OmIPbSNcqoXm5FrWh+Xh7F4XO1XxPnxAxsXdBGwM4lJKLMfDK9JraEdqqmVyyfAgE3tlxynBf9lXD7Fl13EiY5PIs7fl5q41+B2VrwfG68WZ3LMB/C7ri3JkxR5ma9h9yl3fzc6EGnhUSy5iR1F7MakvcvMvaf0BmjhObtnA9pM30WQkcLuCDQk7zM+raJ170JGeuybrrFnlWxzYcR7Lxi44qOWOzTKbB7Lr70liKov8tNFFzRYdKqkEIFBZiLrvbRJ3JNNWpUAXJb5rVUH0WHnP6M95kT+Jsb/Gibw7YWJp34bC4eXBYuqM+WLme01EHd8AkWbUWhLxAZ+IIbNDRXrOWTHJq5bovTZZCF2smOXtJj4M1AgpyVAuXhLx/uPFl39cEqkJgWKcl6PwWR5hVn6+NLLwDy1JPCFmvFVH1O00THw5YaIY1bGucGg5UYRodOLSj21Eg5EHhUYIodk7XLh6zxHXJBlbVsYJkRYkxvuMEOtic0TqyW9Fq0qeYmJEnlnJ+UID4kXAJ0PE7NB0kXN2kvCq1VusTc4TKTs+Eb3H7RG3clLEkW/aiSb9/cS1ZPO+vbPkTVHnva0iR7ojwpcPEG4OXmLQtG/EMN+JYueOj0WznotFQk60mOntKAZsyhRC3BFL3qwj3tuaI4TIEYEfNxM9FyeInOiZwttxgNiUUbSf/QYhl64vEd1rtBMzY3RCCEkkrJwgZkbkCt2lH0WbBiPFwXynieGu3mLONcmMH3Qidpa3cPswUGiEJDvnOF2m2DFqkFiUIImcqAVi9E8hBs4TQmjOih9erSF6LE8WkhBCurVMfPrNEXHfsI1sDmTI9FuyT8zlnBQfID4ZMluEpueIs5O8RK3ea0XiLcMcFiInsGgcMneMEoMWJQgpJ0osGP2TCMk1MrxorhWX94akrxBvVX1VfDhvsVj56xDhWW+A2HRPCCGliB2f9Bbj9twSOSlHxDftmoj+fnFCZzR3mXFXxhmtz9L71ICcQPFxs55icUKOiJ7pLRwHbBKZxi0ePY+l62JJ9xqi3cwYoRNCSAkrxYSZESK3LPaJNBE03keMWBcrclJPim9bVRKeEyNEnmxfhotYJlcyhbG/xD0R+HkHMWBNktClbBLvOdUS3h8tFydTosSPbRqIkfkLRuwd7iq858SIlLClom9DB/Hy4KlixvyZ4r0mdYRvQFqpfJgWNF74jFgnYnNSxclvW4lKnhNFRJ6ZmBpiaK/sOCWsxcwdYtSgRSJByhFRC0aLn0KKqwdF10uy9pKML66JvDvhYvkAN+HgNUhM+2aY8J24ragdsvYa1xe5+Re//oSQ7h4UE98bLf64cFekhM8QXaq9JKZG5hUzL7k6Z9ijwTqTkkTwXB9Rz2m42KsRMscuFxGhZvKgxJx8fEp1Ae5JkhkcREjmAzU6icRjQZx7pPvVD1CjVqmKCnjpRb6IWNWWvO1dHzu3nowb9xGffPAGVeKukGh4T1h3jmWzL9HctyX25Zox2n8HU18zFvxQ1zCQi5eu4Lc4mFxNKDsDb+LYrSf1JJ0Z+Xnjm88lycKra7amRxsnKjQZwNRpU/h1w3S63PAn4HQeNjY2hd9ObWywUpmxJS+J2JXT2OU8gF4u5ajc8i06uVhQGsl53bllzL7UHN+W9pRrNhr/HVN5zeEKS388QN23OlGrXDXajx1J430zWJ7gUbJv1VXx7NURN2sXXv/sO5asm8IbTd5h4riuaMP+JEmfS1Jipsl9ditc35nIuK5awv5MQp+bROL9ykX66WpwJ0/t1I9PfZLxX30enXSZHYmN6dfUGpWNDTaFTsMm32kl+gEpWnbOS8/lokk/xPzRM9hPH74Z9qLBQYBNMz78sjuXVqzgkiRxbUs09fq2obxBE/kcKKFfMz6Rz7lczi2bzaXmvrS0L0ez0f7smPoa1WoZ5DBg5Vo0DnmadA7NH82M/dDnm2G8aCT3JJNrpcx7AJW1E52GDef9Ye/jXSGW6AQJKXopPx6oy1udalGuWnvGjmzMvhlLOWcUC5lx824bNCijT61ceWfiOLpqw/gzSU9uUiKZ5u7FlzaP1U70+9SHZP/VnNdJXN6RSON+TbEog31S7Eqm7XJmQC8XylVuyVudXLAwO1dDh8nkiunEtFHs259K7YaVsajWkfbuOTi06sMrVW2xKVww2NhYoUJN1ZZv413fDree4xj30Sd88EYV4q4kIpXkQymWldN24TygFy7lKtPyrU7kl6KSY2qE7DhSsf5D0pB+aD6j85OZYS9amqkHOtn1UtXCRsYXoK7qSa+Obli7vM5n3y1h3ZQORe2QtfdhV2bnLxW3/pC4uvw7ghoOpc+LVajW1JuX6uafuuXnVYo6Z4i6Bi/1bEP+HTa5YyV0HvJ5oC0xJx+fv3yTUqHlyzQr98Craqq2fIUXy3K7R1WBCuUFWRlpRic6fUYWVKyEmnx5+geoLa2w1OvRG+5qpGSSUtJILRDvs6/viaNV0QduH8rFS7dJua3CqVN/Bg58j4+n/MrPQ1qakZ833j6VLAufj9qiICT2TXB31JOrFcaXzx8ga4sHly/GIFkWZLhaVSAVX7LkvJScREpaaoH6sD31PR2xuneduAQN2kJNeZyrZ3I3VSrZtwAqFSoLKx6YgyqTCL8lHLJoQ4eG5Q2kjwtRZUbgt+QQFm068LCJaT9G2NFxZD/U/ovYe3Qv95r3pLYazDitRD+gizcz5wr0mr+RsXWOMLatB30WRRoclI/9m58xULeSn3eHsCmuIf95wdhg+RyoVmK/sj6RzTkdyUkppKUWKBzb18fT0YpsvUEO53dYJA72veazcWwdjoxti0efRUQaLgPZXCtd3htjiaWFhE4S6OLjSNBoKXSzM9Uz75JquMcxN65Rk7L4VEVmhB9LDlnQpkNDyiOjbm6Iaf7J+A/AruNI+qn9WbT3KHvvNadnbXWZ7NNdvkiMZFlwC0T9MHbyfRnXENlcMcTanW5vliN4ayipt0M5e78zPdramlswBeMX/r+llSV6vR5Rkg91l7kYIz30mVpVkCuliKkxcuPYF+s/7Hsxf+NY6hwZS1uPPiyKzDYzPcnMepFtDAXnAgurB7GRs0POXgPMzL/Y9YeO2CvXwbrwsYaHyJpaijpnyoP4mD1WPg90pcjJx+Uv36RYenzFxm0zGdW3D+99uYxdS/pSoyxWqKvxUitnLh87SqGyeQanD6RRu2XB/UnTBWqKVRO8XrzK8skricySSAtbxoqgAoH4IqsbsGxEC7cLzBuziLBUHbnxO5nvF2F+oFLKwhciyNVo8nvLjeemeIVOnjbY2lpzPy0VLToSr90kS6tFayFnSySN3OuTsG8jpzIAvYROl4c2txjJ+QKsmnjx4tXlTF4ZSZaURtiyFQTd96RDKw3H9oXnP0CoTeaObWe6m9OgB9QqNZJOhz4rkywMXaPl5M/j2VujHwNfqYQmOw+9pEGTq0alltDp9GTdPcjP4/dSo99AXqmkITtPj6QpeHTRzHgAlk0GM7TBLsbMzsO7c8FlFltbrO+nkaoFXeI1bmZp0WotivFDQTGxMjPnFhnsPnAHnzl7iAgaTu7adUY2AGDpzvCPm7F/9GgSWvainkleWzaSyYHwWzL9lsYncg6xoonXi1xdPpmVkVlIaWEsWxFEQUYXIBeHbOK3HeCOzxz2RAQxPHct68IMftnyqHlvhPwGwMqzA600x9gXnh9fbfIdbDt3x8vGYO45dcyMW7g+S+/TQrQnf2b83hr0G/gKlTTZ5OklNBrjX/I8eh4Dlk0YPLQBu8bMJs+7MxXLaJ9lI3fqJ+xjY/4iRtLpyNPmyvdluIi1J83kimE9s8XJy4ceTdM5FmzFiA3+DHaxAGyxtb5PWv6C4drNLLRaLcJMlEv0oWUj3OsnsG/jKfJLkQ5dnpZcs7lkQoG9suNk3yjWf/qU3Ry448OcPREEDc9l7bowM/XA0sx6Me8LDP2hTylih6y9mtzCdSA7/3BSdhez/rDEtWFdLmxayak0Pfq0BBLvFVghO6/i6twDDNZZpqEcuvlzhVwelJiTT4C/4cFZNfb129Ct97v4dPGktszDVqXDgrqtX8I2aA4/rDtBeHAgOzbtIeHlz/jcuxqWGVFsXrKATVE2tGjrzO3dq1hxIJEaHTrTpk7BJkZViaYvORHrN4ExX8/jYM7rjPn0VSwubmDhgm3EVGhNh0b3ObBiIdtjK9Km6xt0f60RNwKmMOarGayPrs/gsZ25v2cpCzZFYdOiLc63d7NqxQESa3Sgc5uaJO+Yy7KjAvfuQ/BtfpOAKWP4asZ6ousPZmwvFwqnL7hzfAWLglLQZ1/jxJZg7IZM44NmlbCtrCV01iTmBV1FXdWauHOp2Ht24n+9PExs6Y3HK15U+/MXvpi+jXMJKdy4GkO2vQddBr+LZ0IAU8Z8xYz10dQfPJZeLrYPN+KqSk15ySkWvwlj+HreQXJeH8On7Z3xaONG/PIfWHHmBrEh13D8cAL9a8axxYxv29ZMZvvcZRyV6lEzcT+/bwhH69aWtu41ccg5z4rv57InJgdbKY6j53R4dulAvds7mLvsKML9DTzuB/DD3D3E5NgixR3lnLYhHnf2s3D9g35qGPjsgfH2NKgUwxmHQYxqWwU1oCpXGW3oLCbNC+KquirWcedItfek08BeeNw09sM7DjFsXLiAbTEVaN2pCz27uxeds5vE4SnDmR+pJSc1A9vWvnR9qbapIVRwq8mN3am8PvFdGph8oVDZvUjrBjeMc8CnKiFTTfutixSz3bxPdA3xvLNPJue8eWfoO7hf82PCmK+ZdzCH18d8yqsWUWxYXJDDXTrQ2CrKJA55vFDhEN8ti0Sbk0qGbWt8+79C7QdXOFV2vNi6Qenz/uU6+Q/96TO4sGUJCzdGYdPiVZzv7GHVioMk1/KmS6fX6NoonuU/rODMjVhCrjny4YT+NLKzNJh7d4b4Nuem0bjvUClm48P12alLD15/oTQ+LYyVyiab8yu+Z+6eGHJsJeKOnkPn2YUOLpUetrGQYh4xj9vhUkmNfYNKxJxxYNCotlRRP0rMC+1TV25Oy2p/8ssX09l2LoGUG1eJybbHo8tg3vVMMF9DVDZkn1/B90a54kG3KmEP/dWxdQWOfz+C7zae5uyfJzi4ew+h9xxp49WQ2nmhzJo0j6Craqpax3Eu1Z4GDnHsXLWZKJsWtHW+ze5VKziQWAPv7k1J9f/BvA/VlWneshp//vIF07edIyHlBldjsrH36MKwdz1NcqkXTg8noSctsrD+dvKuyc01JrFq/jL63z836z9x7xBThs8nUptDaoYtrX3708q1umw96Pp+0fXSrnoFKmuL+qJZYxtO/bGI9eFa3Nq2xb16XpGa8Fpb+yK5pW1Qh+Tdvz+sLz1ef8Fk/j5UDpnK8Plm1h9qqjZ5EcvAH/h00hrCNP+HzbVoHHoPxrteVdl5ydU5w3oPFoXrrLEHFcL8WLQ9loptutKz+2s0uGF8bOecPSxdsKloHvQYTC+P4s5rj4+i3fPMIHHpx/b0vj2dM3Pa8mQvmCn8VeiT/2Dy6oZM+OIlJYYKzx65Uayeewr3/t5USE8n814KZ34/SPkZMxlgb9pY4ZlEd5qvW32M7ZrjfOsuew/8H0VZbrQoPCX0kh5JKvrgocKzjxQdwKQvJzNpYhgN/ttC2aAoPJPknljAjE2nuXg9B9sqValIOlnuHelg+gtohWcXvYQk6ZHMPez9D0PZpDwjaOODOZb9Aq0sz3Is9r7pxwrPOtaWiHvZOA76hgFOz9prmxQU8rHp9D0B4105t2Y6EyfNYWOsE/1HdcNRSdnnBB03QsPRN3dHGxJG4r9go6Lc7lFQUFBQUFB4JlGupCgoKCgoKCg8kzzHm5RnWymz7KqzT0L1tHSqlvcv7mFzmWxUUFBQUFB4+jynm5RnXSmz7Kqzj696mk/JqpZ60i8d50D4442joKCgoKDwtHh+n0mRYpnV6Q2uTTrPb51k3sT33KLl1Fet+MhmNcFT/mLVWgUFBQUFhWeIv+Flbk+I0ihlGiKnDgro0y8QuPsIIWdvoapSCQssKW9j+WgqkEXUgy1LoTprbF5ZVE/1t0NZt3QNu0LjsXZ2p5buIttXreOMcMW9wk32P1S1lBtfT+bVIHaeU9PI2Yy6cwlKowoKCgoKCk+T5/R2jwmaIMZ2m05G96F0TZtDt0+25r/KurABQWO7MT2jO0O7pjGn2ydszQIyg/jinZ9IerUXXa3X8pZXHyZvCOdOXAAT516l6X//Q+OIMbTru4Kzp/2ZMGI4E378jV3XMwj98T98ujEd9DdYP3ose6t0Z8DLMXzV7n+siQxh5fjhjPOPRgdogsbSbXoG3Yd2JW1ONz7ZamwdpHPo60H8cq89g/q4cvNsHBKA/gYBE+dytel/+U/jCMa068uq+MKbM+pqXrxqd5yfN97i//5PjbqSA2kJWl5sqid05XiGj/MnWic/vj4ljJVfDOXzddHo0HMjYCJzrzblv/9pTMSYdvRddZGdX/zA5bb9ebdZEvv2xxkarKCgoKCg8NT5Z2xSSlKeNKMOqo3ax/7U2jSsbEG1ju1xz3GgVZ9W3F1XehXIXBn14DdeaF2i6qyheWVXPVXj1O9TfJL9WX1eh3R5B4mN+9G0nKGqpfz4VPfinfb548grc6YUVfhUUFBQUFD4C/lnbFJKUp5EXh3U2r0bb5YLZmtoKrdDz3K/cw/a2j6iCqScenC2vkTVWUMeR/UUu46M7KfGf9Feju69R/OetfOD+lDV0vz4xas7d5BR+FRQUFBQUPjreL43KcUpZRoqcppTB7V1wsunB03TjxFsNYIN/oNxsXg0FUhZ9WAj2dliVFMLKLPqaf7RNBk8lAa7xjA7z5sHIsCFlDy+rDLnmqAiCp8A+tQogs+nGBysoKCgoKDwdHhONyl60i7sJ+RaCucOHuVGnXa0y1lG37dH8Vu0FdXi9+EXcqewuWVD2rXLYVnftxn1WzRW1eLZ5xeC/vYxAhb+zLTJP/DT5I8Z6DuKBcEZVPWdzaJ30pjd1RXHVp9xoXl3nC7v4cTVDKKOHCQqOpgDZ24RH7qXCMuBzF3QnaSp7ajn2oMltq/zpl0U+09d4+6Fw5yI19OwXTtylvXl7VG/EW1Vjfh9foTcKbzhY+EygnmzPDkyxJvuwyaz4bIafdwRTuW9y+xF75A2uyuujq347EJzujcr+nsfteN/+aCnF519CjRj9KlE7j/FtbsXOHziVrHjq1RqUFfDd/Yi3kmbTVdXR1p9doHm3RuRsOFbRkz8Df/jWtp89D9Az431X9B//GZTExQUFBQUFJ44z+9PkJ8AuVGrmXvKnf7eFUhPz+Reyhl+P1ieGTMH8M8XBNVz45fX6BY/hT9nv6oI4ikoKCgoPHM8p1dSngS5nFgwg02nL3I9x5YqVStCehbuHTvwz/6hrZ7EQytYdTyJ1HuVaNe5mbJBUVBQUFB4JvlXX0khI5LNS1ez93wK+soN6eA7jH4v13j4q5x/JnqSDs5i6vo71H9zIMN9mlLkMRYFBQUFBYVngH/3JkVBQUFBQUHhmeVffLtHQUFBQUFB4VnmH7NJ0eke/DRXQiqVMPITUhsuA1mxh9h67Eb+W2X/EvRk3LhI9C3TN93Ko8+M5sDOU9wu1jFabgWvZ/EiP45eDC9RcRnuc2HXRkKKNPr74vA0MKd+XTqflkzR/h81DsXzpOw0RXsrmPWLF+F3NA6N6YdmyI4/zubAq4+0TvSJpwiJyST++GYCrz7KkY/L08xjY8X3ojmQz5OJnUE+xZU6UmXwt57EUyHEZMZzfHMgj3ToY1ImP2XFcmjrMfJDYByPJ4o+k+gDOzn1SMaVgfsXHrtW/FU835uUrEj+GD+UoWMnM3f+r8yePoXxI3z5dnfJi+tJqQ0/KvqUUywb8z6f+1/B9I0nT45ccg3fg6I9zU++I1l/w+Bv5tDFEfj9EHwn7eaWWcdIxK35jOmxXrS328OwgbNKUFwG9BlcCTnMWZNGf1ccng5m1K9L5dNiyM0lP5ym/ZchDsXxuHaaQYpbw2fTY/Fqb8ee4X2ZGVly5utTz+L/9WBGrDhLnumHZpGI3bqX0JgAvh48ghVnS3/k4/L08thU8d00Bwp4IrEzzqfhfWeaNpBBT+pZ/0f3txTL1r2hxAR8zeARK3iUQx+LsvhJn8KpZWN4/3N/ruhM4/Ek0REX+D1DfCexu9TGlQ19xpXHqxV/JeJ5RXdFLO5RX7T77oy4//CPkohf974YuTrdqKk8uSLkSw/hNTFC5Jl+9FTRiZiZ7UXDDwOFxvSjJ0Ra4GTx/c6ch//WXV0vFm27KSSjVubJDflSeHhNFBHmHKOLFbM7eolvw/OEEJLIy9OZtngE/q44/LWU6FOzpInAyd8Lg3AW8kTjkE/Z7TSHTsTO7ii8vg0XeUIIKS9PlNbKtGXdRc1+G4Xc1GXRRYvfpq4UCVKaWNa9pui3sdRHPgGeYh7rYsTM9g3Fh4HFV4zHjl2Z8+nR/a2L/k1MXZkgpLRlonvNfuIRDn1syuInXcxM0b7hhyJQU/p4lIncEPGlh5eY+CjG/cP5G1SQ9dwNXcVPPyxiW6SES4vG/J+VaZuSydrzBX1+rcqENR/jWe7BX1XYN25KXcvy1KyhllH+xazasK4kFWX9bULXLWXNrlDirZ1xr6Xj4vZVrPvzNhmR+9l0LI06LeqSdnQtqzdcwKJJM+qUQ0ZNWZAevAa/tA6M7O6CJXrSo/ayfsN+TidY49iwJnbmrm/JKSIbKRXbUzlmIf0HzOJMnhXqSq40r32PU0HnSUiKIcVA/VmOjIu7CdgYxKWUWI6HV6TX0I7UVJuoI9e9z7Hl81i1OYwklYTGyoXmVZM48EBxOTuWQ9vCkWppOLl2PWF5zrjXtUOlzyB6/w7OWzbGxUFtNg7q0vpDn8nlwD1ctLDjxk4/9sZa4+JWMz/G+nSi9q5nw/7TJFg70rCmHWqyiD28lbD75bi+eycJNZriVLHQE/rE0wT87sfRtDq0qJvG0bWr2XDBgibN6qCLPcS2cIlampOsXR9GnrM7de3kvKg3Ub8upU+dHLDMkvFbbQ0nZvZnwKwz5FmpqeTajMq3DuT3X+8+R4qLgxr06VHs37yNoIg0HBq4UsUas2rh8nbKxyIr9jBbw+5T7vpudibUwMPJ3O/DJBIOLWfeqs2EJamQNFa4tHDFLsV0TRTEzEhJ3Jrcs/78FuvB+y9cZ/2mMPLquVPHTmVW0Vy64s+BzB686WnNOf/fiPV4nxeur2dTWB713OsUKpaXIjdq3QuW9VNRzOSx3FotQjZXD21h1/FIYpPyqOxaiwp5MnMzUnxXly7HdDL9mA5viJTAIZN8auFqR4ppniKXV7mcNeNv+XyTuOJ/gMweb+JpfQ7/32LxeP8Frq/fRFhePdzr2BUo1Eexd/0G9p9OwNqxITXzk4/DW8O4X+46u3cmUKNpLe4Fy9X5osj6SS1Xo02PBJEezBq/NDqM7I6L2jAelvJ1GT3pFwLZfSSEs7dUVKlkAZblsdGbiUvGRXYHbCToUgqxx8Op2GsoHWvqzJzDiqN0a7apwy32G9WKCwTuPkLI2VuoqlTCAkvK28jPLavU9fAJYbpredroomaLDpVUAhCoLETd9zaJO6X9iv+QXBE8rrEo13KyOGdmw5kT+LFo1nOxSMiJFjO9HcWATZlCiDQRNN5HjFgXK3JST4pvW1USnhMjRF5OoPi4WU+xOCFHRM/0Fo4DNolM0w6FENL1JaJ7jXZiZoxOCCGJhJUTxMyIXKG79KNo02CkOKgRQmj2iuGu3mLONUlI8f5i/Jd/iEupCSJwnJdw9Fkp4iSdiJ3lLdw+DBQaIYmUHZ+I3uP2iFs5KeLIN+1Ek/5+Ik7uC4wUL/zHfyn+uJQqEgLHCS9HH7EyLkPsGDVILEqQRE7UAjH6pxAhxB2x5M064r2tOUKIHBH4cTPRc3GCyImeKbwdB4hNchMTQqQFjRc+I9aJ2JxUcfLbVqKS50QRkSeJeP/x4ss/LonUhEAxzstR+KyMEyL3lPjK4yUx6WyeEFKSCJ7rI+o5DRd7s++IsKV9RUOHl8XgqTPE/JnviSZ1fEVAmiSSgucKn3pOYvhejfk4lNofkkg8MUO8Vaeu6DTsSzFh4ijRsa6DaDkxRGikFLHjk95i3J5bIifliPimXRPR3++aSA5fLga4OQivQdPEN8N8xcT990z61IlLP7YRDUYeFPlhHC5cveeImJQwsbRvQ+Hw8mAxdcZ8MfO9JqKOb4BIMzlaCCGkpGAx16eecBq+V2gexafLI8z4TQhxZ4l4s857YmtO0f7NxkEjhBQfID4ZMluEpueIs5O8RK3ea0Xyffk8N2enXCyuJYeL5QPchIPXIDHtm2HCd+J+UzeYkCtOfeUhXpp0Nv9KityayIsXAZ8MEbND00XO2UnCq1ZvsTZZEukr3hJVX/1QzFu8Uvw6xFPUG7BJ3DOb0zoRNW+a+D1REkKkixVvVRWvfjhPLF75qxjiWU8M2HRPiNLmxs4dsn4qipk8ll2rRYtc5o5RYtCiBCHlRIkFo38SIblm5qaLFbO83cSHgZoiOSAfOzP9lIRhPgmZPF0ZJ59Xkhl/m6uruigxb9rvIj9UK8RbVV8VH85bLFb+OkR41hsg8kO1Q3zSe5zYcytHpBz5RrRr0l/4XUsW4csHCDcHLzFo2jdimO9EsXOHXJ0viryfzORj0VAJXews4e324EpKYTzk67Ik7gV+LjoMWCOSdCli03tOopb3R2L5yQT5uKQFifE+I8S62ByRevJb0aqSp5gYkWfmHFYcpVyz3wYY1QpxL1B83mGAWJOkEymb3hNOtbzFR8tPirt5Ree2PCK01PXwSSH3HfWpkhkcREhmwa+ehUTisSDOleF+ZF6eBCo1ajMbODnl3zwzasMlqyjno3bqx6c+yfivPo9OusyOxMb0a2qNysYGm4d22GBjVfBtwc9UTTkPIxFjKZqlPx6g7ludqFWuGu3HjqTxvhksPVf0Xqe8InJuCUrF8urPRZBiWTltF84DeuFSrjIt3+qES74Ms4w68m3jY9UGisvqqrR825v6dm70HDeOjz75gDeqxHElUVDjpZ60KZBlNqf6XHp/qKnZugdtnCrQZMBUpk35lQ3Tu3DDP4CQ80v58UBd3upUi3LV2jN2ZGP2zVhOQtNedHSzxuX1z/huyTqmdDX99q/Cxsam8NumjQ1WKlBXbcnb3vWxc+vJuHEf8ckHb1Al7gqJMs/MqWu8VKh+/Sg+lXRm/GY8iFH/phjGAR3nls3mUnNfWtqXo9lof3ZMfY2qNjJ5nmfOTvlYLE9oSq+Obli7vM5n3y1h3ZSuppYUg/yaSDxTVEn8tapqQIW1UyeGDX+fYe97UyE2mgTJTE7rLnEgw5nXqheUNJU1Tp2GMfz9YbzvXYHY6AS00aXMjTeaFPWT7LKRz2P5tWqawyBp0jk0fzQz9kOfb4bxoqWZuRlQqhwr7bovDrk8zUuUzyu1vL8lM3VVd+kAGc6vURgqJzoNG877w97Hu0Is0Qlaopf+yIG6b9GpVjmqtR/LyMb7mLE8gaa9OuJm7cLrn33HknVTeKNJ0TpfZKZm/SSfjzKhMot8rLOJ2ref1NoNqWxRjY7t3clxaEWfV2rIxCWP2JXT2OU8gF4u5ajc8i065Rsnew4rMjdDSrtmp/YxqBWgjdrH/tTaNKxsQbWO7XHPcaBVn1ewjyk6N0nnUep6+KT4yzcpFVq+TLNyD04Faqq2fIUXH/l2jzXuL3lgd+085+6Zfgbo5ZV/zakNl0ZFOR87Oo7sh9p/EXuP7uVe857Uzq+lMphTUzZooosnLkGDNq9gtPLOOFfP5G5q0YjLKyJXK1GpWE79uQi6y1yMkbAsuMypfqCgLKuO3NLkYIwVl9WG/2+JlaUevV4Aqocq0mbj8Aj+yEeNRUEG2zdxx1GfS058HAkaLYVdOFM98y6pkgqVygKrB5OUQTaMBf54+P+WVljq9ejl/IiBsvSj+tSs34wxUtc25WEcJJKTUkhLTc0vavb18XS0Ilsvk+fm7CwmFiqVCgurB/F7FOTXRPNUeSVxIywtsZB0SEI+p3WXDnLP9TWqyVQ0S0sLJJ1EXqlzQ8ZPhh0WYC6P5ddq0fc62/eaz8axdTgyti0efRYRmS0/N1NKzLHSrvvikM3T5mbyyvjQB/4Wsn7UcengPVxfqyZz8rHE0kJCJ+URH5eARptX4PfyODtXJ/NuKpJKhcrC6uGc5ep8Ecz6ST4fZUJlFvlYV8C925uUC95KaOptQs/ep3OPttjKxkXH5YsxSIXGPayTpZqbIY+yZg1yxdq9G2+WC2ZraCq3Q89yv3MP2tqam5v1I9XDJ0HRPHnKWHp8xcZtMxnVtw/vfbmMXUv6UqMMVlTp9SVjXjjOrO+CuGuwSNLPbGJ9aALHZZR/dc7yasMlqigbYNlkMEMb7GLM7Dy8H0gO29pifT+NVC3oEq9xM0uLVmthVk2ZB0XPypMOrTQc2xee/7NMbTJ3bDvT3cvGaExAXhE5/JaMUrEalVpCp9OTdfegvPqzKZaNcK+fwL6Np8gA9JIOXZ6WXDl1ZL+IfPuF3syakf2jEeZUnx/FHwCIXDSa/PFy428iXunES6070EpzjH3h+fPUJt/BtnN38rso3jZbW2vup6WiRUfitZtkabVoRYmHyVMGn8qiVqGWdOj0WWQW+QW5uThY0cTrRa4un8zKyCyktDCWrQgiRS7Pdc7ydpYQC8Mhs2NPcOh8wYlLBiEEeiEAeYXxC43NKIkXnZgZRfMsog5m0qBr9YcFTe5QK8/S5UZp64G5PJZdq0XUy/Wk7D7AHZ857IkIYnjuWtYFH5aZW8F6lZuQuRyT9ZEGsmM5ceh8wWZQDoN8ks3TC7J5ZT5UMn7MiuBgZgO6PriMIrsBtMKzQys0x/aRHyotyXds6dzdC+NQlULhnWL8ZCYfi4SqAKM5FvzDXKxtnbzw6dGU9GPBWI3YgP9gFyxk46KjkXt9EvZtJD+NJHS6PLS55uaWTeyJQ5yXC+IjrFkjbJ3w8ulB0/RjBFuNYIP/YFwszM/NXEcl1YGy8jc8OKvGvn4buvV+F58untQu+UkgeSxr82qPV8jb/QOTF+0i+MxZzkZEEFfBm/96O2KXfZ4V389lT0wOtlIcR8/paPGfj/iPazi/fDGdbecSSLlxlZhsezw6NeXe+h+ZuyeGHFuJuKPn0Hl2oYNLJdNRQWVPg0oxnHEYxKi2VVADqnKV0YbOYtK8IK6qq2Idd45Ue086DeyFx80Apoz5ihnro6k/eCzvOMSwceECtsVUoHWnLvTs7k788h9YceYGsSHXcPxwAv0b5T84ZjSs3Yu0bnCDgClj+GrGeqLrD2asT1VCpg5nfqSWnNQMbFv70vWlukgx25m77CjC/Q087gfww9w9xOTYIsUd5ZzOk/4dXIw7V1emectq/PnLF0zfdo6ElBtcjcnG3qMLw9715EbAFMZ8NYP10fUZPLYzmiMrWLjyIDcqNKJJw6rc2buUhdtjqdimFbXP+LNgUxQ2LdrifHs3q1YcILFGO1qUP8naRduJrdiG13r60Knmn0Xi0KxNZ7q93rhU/kDc4fiKRQSl6Mm+doItwXYMmfYBHjWb0MYtnuU/rODMjVhCrjny4YS+1Li2haUL1xOudaNtW3dqFMk7FeUqawmdNYl5QVdRV7Um7lwq9g0cuLFzFZuibGjR1pnbu1ex4kAiNTp0pk0dY5Unfep5NixeyPbYirR5rSc+nWqW2qf39yyV8VsHOrepSfKOuSw7KmjsUYEwv0X5/XfxQBu8ykwcuuLTswtOsX5MGPM18w7m8PqYT2lfN5fzK743zvMW/+GT/7jK2jm8b8sisehb4xpbli5kfbgWt7Ztca+hYu/nHej7QwxuQ9/mRZNvoRnRe1m+cCUHb1SgUZPGNO/SBbcbxmuid7NWtHKKxW/CGL6ed5Cc18fwcbMUti9ZyMYoG1q86sydPatYcTCZWh3fwiPVn+8NczrXAZWuNr3ebEJ59GRc2MKShRuJsmnBq8532LNqBQeTa9Gx52De9bxRYm7UdMgp6ieZeqCu3JyW1YrmsUeXwbzrmWC8Vnu5mDz0KLh3aArD50eizUklw7Y1vgM6YH9phfHcdB50qxLGwgXbiKnQmg6N7nNgRUk51onm99ab9ONJ7+xf6dD3B2LchvK2aaDIIHrv8sJ8atycLl3cTPK0N01atTLJq49plrJd3t9vNSXV/wcjP+Y6ZKGr3Y83m5QHfQYXtixh4cYobFq8ivOdPaxacZDkWh3pOfhdPG8s54cVZ7gRG8I1xw+Z0LcG17YsZeH6cLRubWnrXhOHnKJ13rNLO1wqGTjbXH1r1oaub3ahgUk+9nIxechYn0bkhoUs2BZDhdYdaJF94GE8OnXpwesvmNTlXk5k7pzMiO82cvrsn5w4uJs9ofdwfLUNVa6uNIlLCz765D9U+/MXvpi+jXMJKdy4GkO2vQedmt5j/Y8mc2ubxa9v9eOHGDeGvv2ise6ayg73Nm4lr9lqOURuWFxQK7rQye4ok0d8x8bTZ/nzxEF27wnlnmMbvBq15GXTc07nHPYsXSBTD18lY043s3XgcVBei6/wfCJd4sf2vbk9/Qxz2j7BFaFQBjQcnf4z2R99xRt2pp8pPEtojk7n5+yP+EoJ1FMkl6jVcznl3h/vCumkZ94j5czvHCw/g5kD7E0bPzqao0z/OZuPvnqDJxHF3KjVzD3lTn/vCqSnZ3Iv5Qy/HyzPjJkDeDRrn04dKMONFgWFZwE9kr60bxdWeHrouH5sMyntB/HaEyxMCk8e3fVjbE5pzyAlUE+X3BMsmLGJ0xevk2NbhaoVIT3LnY4djK+8lgnddY5tTqH9oNeeyAYFcjmxYAabTl/keo4tVfKNxb1jBx7N2qdXB5QrKQrPIVrij69k0YoT5Db/H6OGdMb1CS8MBQUFhbKSEbmZpav3cj5FT+WGHfAd1o+Xa8j+Lu/vJyOSzUtXs/d8CvrKDengO4x+L9eQ/xXh34CySVFQUFBQUFB4JlFu9ygoKCgoKCg8k/wzNilPQDnSnLLo38H9xMtcjE9/JPXXp8MTUnY1UhB9TngebVZQUFD4h/EP2KQ8hnKkWXXZvxHpGkve78tvkdqiP7v9i3kiyq5GCqKmHz4dco0koM3wMPYy/A02KygoKCgU5R+wSbHEqYMPbR0fdSrpBP00m4MaADW135nGryM8yvAWzSeLPj0K2/5rmdOt8MVUfxeWTh3waev4eHaoq+PVs+3DVzA/ddKD+Gn2wfyXGZnFMPYy/NU2KygoKCjI8je8zO0JIqscqZZVtcy+eogtu44TGZtEnr09MQsHyKvLujiQbVblUV5h8gH6pOOsXvQH+8ITqVD/BWpK0exY8TvBuS40r1f4gy45Fcna98II+N2PY5qODO9uyQkDFV7p2hG2hmqoSwT+/kdJq/4C9fIi2b5uC2fynPJVhpFT8yyq7upklyGjAmtKWZRd9WReDmTPRQvsbuzEb28s1i5u1LRVGSuIWmqLKnvmniVg7ip2nQwm+ORJjh87wTWrF/GoniqjGCqjHFtwyUl/9zgz+w9g1pk8rNSVcG3ujF2GiZKqbRrHjZSFm1NbRvHW2GY535rkVGVXaj0wREFBQUHhiVD0/PS8kH6Irwf9wr32g+jjepOzcfkPD+hvBDBx7lWa/vc/NI4YQ7u+q4i/t5MvfrhM2/7v0ixpH/tv2NN2SC+a2r1Aj0+H0N4ijJXjhzPOPxrt3T/xnzCC4RN+5Ldd18kI/ZH/fLqRdPTc3jmaoatUdB3cB7ewT+j0vz+IN3hmQV3zJVrk7WTu/kxqV1aDnT0p0am4tqj5sI3eTP/3arXAM3Mbc7fFoCvnwiu1LrJo2XHu3jnLpikfMGzab6wNuoH26jL6+Yzgx9+PczfnT2b2/pB1t/Uy817B2T/XM2nECL6evY5DJ/dw8FwcO0cPZZWqK4P7uBH2SSf+90e8ybMv6Rz6ehC/3GvPoD6u3Dwbl/+5/gYBE+dytel/+U/jCMa068uq+MKbQPqkEBZ9/j4fT/qe3/ZeIcr/Y7xfm8Ipk3sqmqCxdJueQfehXUmb041PtmahT7/Endr9+Xzc57z/Ygy/r7yInZMNQWO7MT2jO0O7pjGn2ydszYKsnV/ww+W29H+3GUn79hNncDtGXbUtQ3o1xe6FHnw6xJuad3cyeugqVF0H08ctjE86/Y8/bjoYxd67ymHGdptORvehdE2bQ7dPtmL69vmivpXJKUNDFBQUFBSeCM/pJkUyoxxpRtUyV0P6ofmMzpcbZdiLxjd1DJVFzareauUVJo0Vem1o9uGXdL+0ghWXJKRrW4iu15c25Q3GMte/ZEaFt4oHvTo2wqZOOwYNH8TQT3rR+F45Wn/0EUNGjuCNate5nJAnM28JnYm668R662RUYJdiOIWyKruqa7amRxsnKjQZwNRpU/h1w3S63PAn4LS2sHMzyp5U780IX0dUcX8w6tMQ3lg0l141bWQUQ/UyyrFG3RsgySupLj2H0XbCjFJrIWXLKQUFBQWFx+c53aSYU440o2pZrRfzN46lzpGxtPXow6LIbJP+jNVlZVUe88wrTBph/yafDdSx8ufdhGyKo+F/XijynIts/6IYFV61wScWFqiFKHiQ1RILC9ALM/O2NlZ31ZlVgS3s/nGVXdWFssS4O+rJ1Zq8hkdO2VNtiaUUxa/DviXx/WVM6+hQ0NRUMVReOVYenXklVaN2ckqthpjxbSlySkFBQUHh8XhONymWZpQj5VUtw2/t5sAdH+bsiSBoeC5r14UVry4r93q7EhQmC7HEffjHNNs/mtEJLelVT8bFcv0Xp8JbIvLzfqC4/IDiVWALenosZVdBrkaTP2JuPDfFK3TyLFDgFBSjWnqfkO8H87PVFyz/yovyuktEhAfKKIZmF1WODTO+n6RWqZF0OvRZGtzMKakaxP7uQRml1gIZ1Xyb5X0rm1P6VKKCz5NS5p9CKSgoKCgY8pw+OKumcvOWssqRXQa/i2eCsaqlT9UQpg6fT6Q2h9QMW1r79uelumpitsuoy7b6P874Ly6q8ujdk2HvtiiiMCmn0Kuq4EbNG7tJfX0i7zYwlYWNYvMSORXJLnRqYl1UhdetKrd2riLgnAqP9o3JPrSW5duvUqFVW5ySd7Bi2UGSanRg2LDeJmqeY+h0fw/LDNVd/09OIbg/jewMruyUWdlVcOf4ChYFpaDPvsaJLcHYDZnGB010XHioINqJbjVvFlEtbVRuBx+NP0/zPi/DpdOc2LKUIJUvHVhjohjanB76342VY/u/Qm2rh+ZjIcWwfe4yjgp3ug8dQEtTJdX+jbCzlB7G3v0ND+4HGCu16jy8qBK29qHNPXu8XkQpVS6nWur+YHDPhUg+vng5mGaFgoKCgsKjorwW/2mgT+aPyatpOOELXip6R+QfisSlH9vT+/Z0zsxpaywhrqCgoKCgUAZk7kUolBkpmoBJXzJ50kTCGvyXFv+yM7Ve0iMpssQK/8/efcdHUa0NHP/tplITQoeE3qSXUKRIUVEEC0UFpHcUuBYQECmCXJQiCCgdROkCgvTQQ4cIoRNKIIF00tsmuzvn/WNDSDabEBS9wff53k/u5e60c86cOfPszOw8QgjxjEiQ8kw5Yq/iSPLoz4Re5fNMFsl/QmrgKY4lvUAT+4sc80+0niyEEEI8NbndI4QQQog8Sa6kCCGEECJPkiBFCCGEEHnSvyZIMZkevbPDTO6e3dSI99vPzjMRucrwmxR4nK0Hb1u9COyvSfA/zLZj95/pOtFiuX/dj2Drd79Y0+Lx27+TMxFPqH1qMKc2LWHxWm+un9/F5tNhObdX4lV2bT5NmPVMud3ePyoB/8PbOHY/6x5IvGq7rlq8H/t3nuGvViPr+lMJPrWJJYvX4n39vO02fBrPsr1zsa5s+3JSIMe3HuR2lgl/QYI/h7cdw8Zu+5tpxFzfy/aTIVn6xbOTeVzK2k+eIVvHamokd6/fISy75Jt/lq1t5SQXfe6xpxvLn7U/v48SubprM6dz3ShPydZxkhCM3/VAYjLt88djfMCz3u/PwPMdpCRcYd34QQwaPYW5CxYy59uvGD+0OxN3P7mlTQEHmT6wO5N3Bz+xc2lRF9nwxQCGrryI0XpiDlJSrBLXZKCFn2H5p/34bMOtzK9pf1opKWTcSuq5b+g+fBP3M3yWlYmAg9MZ2H0yu4NzqL05gF8+/hZ/z5cosGcwvWf/zpGLoTm2lxZ7i9NHLhKaaaZcbu8fpRF+Zjmf9vuMDbes94BG7K3TWetqCuDg9IF0n7ybP1WN9H1lvX4zAb98zLf+nrxUYA+De8+20YZP41m295PXlW1f1qK4uOELBgxdycWnO3Ay9elMtHDOLP+Ufp9tIMtu+5uZg0+y6LOBfLEt4K8dsznIPC5Z95Nny9axmrhnDF3GHyD6GZ8ZbG0re0/ucxk9zVj+7P2FfaTFcuv0ES7mrlGyeurjxMzNH/vQa6nf4y8Tmcb4IfSYdSV9FXmGel6Zbqklb1ZWrb6+oBLTPzSrwPX91PDVMZlmtS1FnR5bT3lO8lVG60k2RC/vqEr13KySrSdkJ/qgmjJ9Zw7zm9SdWS+pqh8eVAbrSbkWrQ5Oma52pm/EpG5vWqy2PzBnns2WlNNqbD1PNck3+9qb/Oeotp4T1XmjUspsVEaT9RxPIRfb+8eZ7qhZL1VVHx7M/R5IOT1W1fOcpJ6+Gtb7KgOTv5rT1lNNtDS0Mv6lhk7zLNv7ievKoS9HL1cdS/VUm23V26Yc2imN6c4s9VLVD9VT7LZnxKguf9VE1RlzSqVYT3pmnm5cerZS1NlVi9TRqFyMH3+3J/a5jP6Xbfa/8ieOE3OI2vbjGuWXofM+0zH+b/I/eOOsRuTZn/jmv4vZfsVMxYY1KJbhjaG5lbDnc95bWJQvfxlJA+dHn+pwqVEHd/v8lCqpJ+jkZjZuP4pvWH4qVi2R9nbUWK7v3sjmQzcI9z/O+UJdGNS2FKagk2zeuJ2jvmHkr1iVEo9fpQpAysUN/OBfj34v3GPTFh+M5WpRtoAO0Ii5tpdNv3pxLsgRj6qlyBd9nFkf9GL2BSMO+sJUql+BfOHn2LpmC0duplKiWnlc7RUxp35hbXRrhnesmCW/jynMen5Iun2Y33Yd54p/KEYXF+4s6kWv2RcwOugpXKk+ZeLOcOhyEKF3wm3WAYDY6+zeuJlDN8LxP36eQl0G0baUPsv2CoUdZsX8n9jqE4rObMChYn2Khu5nx2V7alR0Jcn/MNvPmyltOMmaTT4YK9TCvYAOLdYPrx2Xsa9REVd99tvTYq6xd9OveJ0LwtGjKqUKWH110+K5eXAP1+0KcH/nWvb6O1KxWinLPtRiuLZ3E796nSPI0YOqpQqgJwH/I9vwSXTm3u6dBJWsQ/lCGetvIuzcVtZsOcLN1BJUK++KvYrh1C9riW49nI4VM+4BjVg/r/S6Wqqxm42bD3Ej3J/j5wvRZVBbSultrDPBn8Pbz2MubeDkmk34GCtQq4yBE7M+yLCv6lIkOK0tyyVydMV8ftrqQ6jOjMGhIvWLhrI/QxtqMdfw2rqdQ77RuFaphJsjkBrEyc0b2X7Ul7D8FalaIp/lzcdP094J/hzZ5kOi8z127wyiZJ3yZGqybNZl3Vdy7MspF9nwgz/1+r3AvU1b8DGWo1ZZy1uas5QpXzTHM7VTfSrkC+fc1jVsOXKT1BLVKO9qj4o5xS9ro2k9vCOZdlsmCfgf3s55c2kMJ9ewycdIhVruWA5ZW/0nkbtHt3HW4A6+G9jgHU2JF8phvPI763+7gLF8LdwLKCK8V7EltR2vOxxhw8FgClSuSnFnSPA/wjafRJzv7WZnUEnqlc+XtW9YFzETW+NSCeIz9MOkXG7DZn/RYrjmtZXth3yJdq1CJTfHLMeqFuPH5Zt38bsSnKmPZOnP7lnfsp1JTtuq5sytX39mrXc0ZRu6E+29htW/XsWudl3KOmfX50xPNZbbvAiU7XhiY9woEGvVP/IReXY9y37ZxdlARyrUKo3p+u/8tP4CqtILFHzw5HHRcp7wYuv2Q/hGu1KlkhuOWix+Xju4bF+Diq56Up9wDkqnRf6p48QUfp1rN25y+U52Y3xDKhWyrnva2PpUx9IzZh21/N1M1+ao1oV1ClDo7JR7ny3q4VMH7inq1JgayrnRFHUpm9A5+eBIVfetJSoo2U/NauOhem2JV0pFq0PjO6uh6/1VctRJNbFJYdVgkq8yJh9UI+u+pZYEJSu/WW2UR68tKt5qfTErO6miLT5U85esUgsHNlDlem1RccqswneMUl3H7FHByeHq6IRWqvYHa1WASamHSzuosn22qWSllDlwgxo/dp26ERWkDo7xVB6dV6kAs0n5z26jqtn49mlz/tgd6qP+i1WQOVld+/ET9c3pFKUeLlUdyvZR25KVUrmog4o+pMZ3HqrW+yerqJMTVZPCDdQkX6Pt7ZmVSjkzTtVrPFldNCplDj2l5nYup8oP2auSHvqoZT2qKtdmA9TUmQvUrD61VdnuG1W0OVSdmttZlSs/RO015LC98B1qVNcxak9wsgo/OkG1qv2BWhuQMYQ3q5ATM1Wnsu6q3eCx6stJH6m27q6q0aTTymAOVztGdVVj9gSr5PCjakKr2uqDtXdV2PkVqlc1V+XZf5qaMLi7muQVl2l9gRvGq7HrbqiooINqjKeH6rwqQCmTv5rdplqWKykZ62qpxnjVeeh65Z8cpU5ObKIKN5ikfI021rnCV/ks66GqujZTA6bOVAtm9VG1y3ZXG6NVpn1lvX6VckaNq9dYTbY0dKY2NAduVKMGzlFnY5LVxcmeqnTXNSrMnKwOjqyr3loSpJL9Zqk2Hr2UpXs/RXvfDVPnV/RS1Vw9Vf9pE9Tg7pNUpibLbl02+0r2fVnFrFSdirZQH85folYtHKgalOultsQp22WyHDiP+7Q5UG0YP1atuxGlgg6OUZ4endWqALMy+c9WbarldCXFrB76LFM9qrqqZgOmqpkLZqk+tcuq7hujlcqm/4T7rlZ9axRWLUYsVEtWLlGftCilGvSdpmYvWK7mD2ygynZdo8LNRnVlahPl0XaQGjdxohrW1l0VbTZVnQ46r1b0qqZcPfuraRMGq+6T9mbtG6sCrAuZge1xKSXTMZe7bdjsL8ZAtXHUQDXnbIxKvjhZeZbuqtaEBGfuZ7b2x92w7PtzdsxP3pbpxgzVvMpwdcCglDLsVUMqtVHf3TVn2+eeaiy3Lo9SOYwnJ1WQ9bix199G/whQJvM9tbRjSdVq1h1lUkqZg1apL2f5quTcjIvKrAI3jlID55xVMckX1WTP0qrrmhAVemqu6lyuvBqy15C78TujpzxObB+3mcf47I6NsKc6lgLUs74Y88yDnieJP3WI0/Fpr2ZRZkKOHeLS09yvTmM0mkGnJ2OC4IwcKr3DpDGvkurzB6FaCqEh8Rj9VzFtVwV6damIc5FGdGpX0fLCNYdKvDNpDK+m+vBHqEZKaAjxWW4T6nAs347BQ/oxuF8bCvr7EZTqx7IZ+3Hv1I7SzsV5afRwauybybJLGe9Ym7m1dgmnUgyc3XmQBx5v8FY5IxHZ3tTOZv4UAzGHF/DJTC94bwKDa1p9L3tiHcz4r5rGrgq96FLRmSKNOtGuol3227Mqn75kY95qXgE7QF+0EW+3qUyBam8xZswIRg17HbeAW4SokjR+qzkV7HLent+yGex370S70s4Uf2k0w2vsY+aySxnu8+sp1fRNmpcvSO1eU5n21UJ+/fYV7m/YyOnLy5ix351O7UrjXPwlRg+vwb6ZKwiq04W21Ryp+NrHfL10PV+9Wuhx4c23WLvkFCmGs+w8+ACPN96inDHi8XQrGeuK2Z9V03ZRoVcXKjoXoVGndliqYWOdZhON3m5D5QLVeGvMGEaMGsbrbgHcCsn8hGem9VvTZ2xDE5eWz+FG/e40cnGm7icb2DG1PUX1DlR6ZxJjXk3F549QtJRQQuKNT9feK4Ko06Ut1Rwr8trHX7N0/Vc8brLs911u+oo1nWN52g0eQr/B/WhT0B+/oFTbZcrUB8B8ay1LTqVgOLuTgw88eOOtchiftDEA9BRt9DZtKheg2ltjGDNiFMNedyPgVgipfrb7z4NaXWhb3YmyrfozpP8gRnWpQZxzU0aMGMjwoa9T/N5NgjQAHa6eA/lq6lQWbf+Rt4LXstG/Fl3aVsOx4mt8/PVS1k+qkLVv5NDfzNmMS5mPuQa52EaIzf7icmU5c27Up3sjF5zrfsKGHVNpX7x0pmPV5v5YEUS9XPTnjEyXnrQt0Dk54ZQ+bjvh5KDLoc895VhuU3bjya/418o8bkwqt95G/1jGJa08Pf/TmbANq7lsMnNzRwg1etbBOTfjYsolls+5Qf3ujXBxrssnG3YwtX1xSjZ+i+aPGuWJ43f2nnyc5O64NWdzbATVe5pjaRmZTn/PwD8epBRs1Iy6zo96qJ6ijV6k5lPf7nGkVuN6FLh7mUtx1tMADdDF47t2KYftmtO6an5QCtPN69wx26dddtWj0z0qh45437UsPWxH89ZVyY/KLlGxhb09dmYTZmMgAUEGUo1pc+evQIUS8URGZTyIzUSER6Ar344Pevemz8ivWDhvII2yfWV+NvMX78KCzaMpe3Q0Leu9x+IrSVbLPakOJm5ev4PZPi240euwVD+b7dko3+P2An3Gf9s7YK9paArQ6dIuBWe3PROBAUEYUo1p5ctPhQoliI+MyvrLEPTYpfVQl9q18NBSSA4MIMiQyuMmr0CJ+EiizDp0OjscHm0vI3ME4RE6yrf7gN69+zDyq4XMG9jIeq5M0utqusn1O2YeVyOtftmtU/+o/oDeHgd7DU3L2psytmUW6W1oJiw0nOioKMtDeS6VaeDhQJIGunhf1i49jF3z1li6959ob50OnZ1Det0ey25due8rttljb2fGZDZmX6YMc5sjwonQlafdB73p3WckXy2cx8Bcb0yfVmbLv+0d7NE0DWO2/SfzFx47Oz1KpZ0l7O2wQ8s6JuSvRjUPhdGo0Ol02DmkjS3Z9Y1sZD8uZe4nT95GfZv9JT4klPDoKKIsH1K5gQcOSVqmYzXb/ZHL/vyIOexJ2wLb94qy63NPO5bnJOt4kqoyjxumbPsHFGg7nJ76DSze683euPq8VcaysieOi6YwQsOjibI0Ci6VG+DhkARkqOMTx+/sPfk4yd1xm33dn/ZYejTvs/GPByn29caxefssPurxHn3GLmfX0h6U/BOlcOsylk9fOM7srw8RmSHijLmwhU1ngzg+bzx7S/ak94uFMSQZ0cwGTBVqUTloH5vPxAIaZpMJY2oKqSfnMX5vSXr2fpHChiSMmhmDweq5aVsv5nVoQOsmBo7tO48BIDWMh/lepqOnE3qdHrPJhJaQTNmG1bg6/1MW+0RhSglk54K1+JoAmx3Rnuo25j8fvJv9Dzvz3R5fDg1JYc16H9Dr0JtNmLQEIg88qQ72VK9VmaB9m7FU34zJZCQ1xfb2fE2WOivNVhnB9ocZZbc9Bxq0boLh2D7OWxqNsIf5eLmjJ07Wq1ApGAyWDaUEPkC92I7GTVvTxHCMfZaFSQ17SL6XO+LpRPaFsq9Ow2pXmf/pYnyiTKQE7mTBWl/LNFv7NSP76tSqHMS+zWewVMOEyZhKSrbrzGZ9GfZVfJafhyuU0mwUxYHanjW5vWIKq64kYI72YfnKQ8SknmTe+L2U7NmbFwsbSDJqmA2mP9feWbZJDvsuh75isy+Tzec5lClDOyWXbUi1q/P5dLEPUaYUAncuYK1lY4/bKsmfE4cvp50UM8u6XXBokFP/eUpxV7ihvUyntIXTt5dd38imrPbVbY9LtuS8jas2+0tibU9q3l7BlFVXSDBH47N8JYdiMq41h/1hsxWzb3eHJ24LyJcPx8RoolLBFHKXBwmppKbaZdPnUjn5FGM5JOF/4jCXrQuG7fGkgdVBkGP/sK/NgEFV2PXpHIxtXibDtdrHbDWXQ208a95mxZRVXEkwE+2znJVWjZLdOSjJ/wSHL6cFnRk91XGSw3GbYYzPqe42q5XD/M+U9f2f54k5/ISaP+g11fr17mrIp1+qad/MUUv33FYGZVYhW4aoWmVrqTc+nKam9amvqnSYqg4+SFSXl/dVnlXrqzcGjVefvl1X1ekxUx25sEkNqVVW1XrjQzVtWh9Vv0oHNfXgg8fbibmi1varrgo0+ljtuHJdeX/dXhUv/aaaczZMmR/8rj7v0E51+2yamjFhnJp3NFyZlVIpZ6eq5hUbqR7fHlDBKXfV1k/aqkquLqpU3c7qG+9IZYy6qBZ3K6dcWo5XXv6Pf5+klFLKaGP+4MWqW+P31cSFK9TCCWPUDz6JSqWcVVObV1SNenyrvHx/zbEOSimlki+r5X09VdX6b6hB4z9Vb9eto3rM9FZBhqzbM8fcUDvHv6Rc3dqqL7f4qMAwX7X43XLKpcU4dfDyBfVLn6qqoOcnasfVG8p7+uuqZOlOavap68p38buqnEsLNe5gQPbbS32gfv+8g2rX7TM1bcYENW7eURVu/VyS6br6b7PiqvHAr9W8ef9VnwybrHYGmZVSZvXg989Vh3bd1GfTZqgJ4+apo+FGFX15jepf3VnVGrhWXYy0XplSxrtb1SdtKylXl1KqbudvlHekUUVdXKy6lXNRLcd7qYy7wByZoa4BKSr58nLV17Oqqv/GIDX+07dV3To91EzvIBvrjFJXf+mjqhb0VJ/suKpueE9Xr5csrTrNPqNCkzPsq6vnM6w/XN3YOV695Oqm2n65RfkEhmVuwxQ/tX54C+XuWkSVazFY/XzdoJQ5RG0ZUkuVrfWG+nDaNNWnfhXVYerBp2tvY7S6vKa/qu5cSw1ce1FlabLs1mWjr2Tbl80x6srafqp6gUbq4x1X1HXvr1X74qXVm3POqjCjjTJZDpz0djoQnKLubv1Eta3kqlxK1VWdv/FWkcYodXFxN1XOpaUa7+Wvkrf3V+6u5VX/zZnv4Mdc/UX1qVpQeX6yQ1294a2mv15Sle40W50JNdroP2YVf+NXNahmPlXvw63q6u1zamnPysq15Xjl5XdLHftvB1Wy1Bvq21PBKtJ7tur15vtq1NTZ6puJU9TPvvHKHH1ZrelfXTnXGqjWXoxUZpv9zZxtWZVKtj0uXfkjvZ/sv3Q+V9uw2V9UivJbP1y1cHdVRcq1UIN/vq4M5sjM/cxsa3/EZNuf7/2WXV1ysS3TbbXi3WqqUuN31IezZ6qBnp5q4A+nVWiirT53RF3YlPux3PvOVtXf3VWV77858zMdNscTW+OGrfElw8ER87v6sMd36lbagxeZxorsxsUzoSrFb70a3sJduRYpp1oM/lldN5hVpO9i9W45F9Vi3EF1N2CLjfH7ttre3125lu+vsjbz0x0nts4p1mP8A6Ptuj/tsfSsSe4ekTeZbzDjpa5EfHuB71rm9hK/+P/I4P0t85JGMO71AtaT8pznqaxPkmfrYvDm23lJjBj3Oukle27HEwPe384jacQ48loz/1P+xI0WIf4JGmYtt28PFv9fme4dY2v4S/Rvn/dH8OeprE+SZ+tiusexreG81L/94wAFntPxxMS9Y1sJf6k/ea2Z/0lyJUXkQakEHl/F4pUnSKnfl48Gvkyl/8cHqRDir5Dx5HkmQYoQQggh8iS53SOEEEKIPOn/d5CSGMLN64HE5IH7lM8qu+5flilzZvZZgoUQQoi/2//jIMXM3aX96PHDFVJz8x6gv9Nfza6bk5wyZVrLlDkzpyzBQgghxN/v/2+QosVwLd8HrPnuDUr8r1vBvjytO7fE45mXI4ZD38zhgOVdO0+mL4HnWy3TXl+tp4TnW7R89NpmIYQQ4h/2P8iC/AxooRxfvZh1+84TUrAyL5Qy47djJT+fSqFi3XIUfHRlxFYGzzJx+Gz8mbXHDLQd0hH7ExmycJrvcnTbWSyJUDfgHV2CF8oZufL7en67YKT8o8yPprAsGSezZkEtkCU7snWiX54mu67Vclkz0T4pS3IVtD+2Z872+aTMmfrMWYJtZulMus3h33Zx/Io/ocYiVCld0KqkQgghxJ9j47T5HNCXonFDIzvnehFfpgh6CuAS7kdUpYaUelQjLZI/NnzJ0CFfMuOHXdyLPcuMbv9hc1xpGjaIZ/vc7dwxOVPxxdJcX7yc45EPubjlK4YNnsYPaw5xP/U2y3t2ZuiMnzkemcwfs7ry4foINO0+GyfN5Xad9+lWw5dPW/Vg5cU/2DR5KEO/mMP6wyfZc+ASETs/YdBPOl4d8B7VfEbRru86Aq0e7Yg5/AX9v4/jpf7vUenBRQLMABr3N05i7u06vN+tBr6ftqLHT4GZltPub2TS3NvUeb8bNXw/pVWPnwiM28nn/71Jyw/epW7oPrzuu9ByYBfqFHiBN//Tnzphm5k8dChfzFnP4ZN7OHDJL0s9fgrM4V6T4RCj3/iW2I6DeDX6O94YtY0EEtj5+X+52fID3q0byj6vAOulhBBCiD/t+QxSAKe6HzK24w1WrryB2XyX3/zK0aN5/scz6Itmm5HWZhZOvRv1urSlulNZWvUfQv9Bo+hSIw7npiMYMXA4Q18vzr2bQRhtZJw0m+pYZSgt9+TsyE+TXTdTBtVsMlrmmCVZT9EGVtk+K2zPUo8cM8zazNJpxhBzmAWfzMSL95gwuKb1UkIIIcSf9twGKeBCh497Y1o1j92ntxBQtRsvWN8TyS6DZ3YPyur1GSbZYadXPE6EageayjbjZKYMpaZcZEd+2uy66bLJaJmLLMkZs31mV4/s2crS6UKXBZsZXfYoo1vW473FV6wXEkIIIf605zhIAftaQxhZ14tPPgmiUZdyNiqTzXvqbGbhzGZeK/bVc8g4+WimHLIjZ1jRU2bXTV/QZkbLJ2VJtmTefVzHHOuRsSnS/o/NLJ1J99m9/yGdv9uD76EhpKxZD2hEXTvF5fAcbh0JIYQQuZD1vP480Zek68iuVPDsQMei1hNjubbnBLdjr3H0wDX8Tu3nQnAgZ/eeJ6LIq7zX4jzjXu7Mf7Y8xK10CrcOeHNipzc3E/w4uu8ad87v5WxAFNeOenPz9mn2/vGAoPP7Oa+9x5zF7xA951UqeTTh46v16VDuBjuP3STm4h62XopC05eg+9wlvHHlS3qP/ppvvjlD/e+m08ElQ/HsKjJ0/mwaHB1Im46DmfLrTfRaAEfPGOk+ZzHvRM/h1UoeNPn4KvU71s2woJ7i3eew+J1o5rxaCY8mH3O1fkfq6oL4deJQJv2wgeOpzRnRtwkUqEfTSqeYMWghh879zrGbMVzcs5VLURr64t2z1KNj7Xiuep3mbvglDnjfIfqqF6fvhnPpgDf3y7aiVfJyerz9ET/4OVA8cB9rT0cQ9OtEhk76gQ3HU2k+oi9o99n0+QeM33o/Q5mFEEKIp/ecvxZfI2zdFFZX/ZLPG+d0q0IIIYQQz5vnNEgx47dxKiuva8TEVeWLWX0oL6/zEEIIIf5VntvbPY72irgkD/pP6CUBihBCCPEv9JxeSRFCCCHEv91zeyVFCCGEEP9uz2mQopGaGEtMTAwxMTHEJhj4U3l6E6+ya/NpwnLxa9nU4FNsWrKYtd4Blp8V/+MSubprM6czFTaVyLvXuRP2vynR3yFPZIPOlAlaPDNaPH77d3LmL+/czNm5E6/uYvPpMP7qWvMujZSER+NdLLHxSaRaVVZLSSA2JobYxMwvZDQlxRMbE0NMbAKG5ETLv2NiiIlNJDXTnP8EjZjre9l+MiRv7qscMsBn18f+N+OVrez0CQT7XScwJvP5IfjUJpYsXot3wPN7jnhOgxQjD2958WWbkpTv9C2HroeRbD1LLmixtzh95CKhT+hg5oBf+PhbfzxfKsCeIT2YdSWHN7P+XbRYbp0+wsWMhU3cw5gu4zkQ/ZzuRmt/Zzbo3MqUCdp6ovjzTAQcnM7A7pPZ/Zd2rnV2bo3YW6c5cjE0ywkkV54mS/j/TCoPb+xg9IslqfHW53y3YC5ff9aXDi+9TN9vDxJshuTQS+yY8Q7Vy7Xjvz6PXuSoEf/gHIt6t+ejDZcICrnNoekdcC/7OtMP+xPzD/dvc/BJFn02kC+2BfAPb/rJcswAn00f+9vGqxRSsu2U1mWzMN/8kT69luKXHreYCfjlY7719+SlAnsY0mNW+rzPHfXcSlZbe5VQ1T87oVKsJz1TJuU/p63ynHheGZVSZqNRmaxn+R9JObtKLToapczWE55jKafHqnqek5Sv0XrKP8d0Z5Z6qeqH6qDBeor4S1JOq7H1PNWkv7pzTXfUrJeqqg//8g6KVgenTFc7k60/z4sS1C+dC6uGky+qR61nvLtefVDJRTWaeEolKqVU8g41pFJhVajaYLU99NGoYFQXpn2ulqX9f4PXUFW+/FDl9Veb7k8xqstfNVF1xpz6m8fsPyfTcZ/LPvZ3jFfRB6eo6Tl1yixlM6uQbT+qNX4ZWtXkr+a09VQTzxuVUmZlNOaVs9bT+x9kQdaIPPsT3/x3MduvmKnYsAbFHKznyQ0Tftu+52DB9xne3gPrH/jYzNhrRYv1w2vHZexrVMQ1yUbGZHdngg+vYP5PW/EJ1WE2OFCxYSUKxV5j76Zf8ToXhKNHVUoV0EOCP0e2+ZDofI/dO4MoWUnj/PYnZ1S2XU6NmGtebN1+CN9oV6pUcsNRi8XPaweX7WtQ0VUPWgx+l29y1+8KwY4eVC1VAD0J+B/eznlzaQwn17DJx0iFR5mbszAQcPI3fv39JA8MsQRFFMQpaAe/rPUmumxD3KO9WbP6V67a1aZuWWebmZ+zsJUROTfLPVU26CRuH/6NXcev4B9qpEil0hTU2ZovlaCTm9m4/Si+YfmpWLUENrqAzfbPlAk6JXeZsW2tx+Z+tJnBOvv9Zmu9WTNuF8pQI434mwfZc92OAvd3snavP44Vq1Eqnw5Sgzi5eSPbj/oSlr8iVUvkQ2fdb+uUJu7Uk9sNLYZrXlvZfsiXaNcqVHJztL1+gNjr7N64mUM3wvE/fp5CXQbRtpTeZt2ystGGKmN2bj2xfl7suGxPjYqu6LHRF2xmQzdwYtYHGbKE16eCjazgWdlYv80++XgJLeQcG39ei3d0WRq6R+O9ZjW/XrWjdt2ymPwPs/28mdKGk6zZ5IOxQi3cbR6wJi5vnMOpkgMY3KYkekDvWpPGDoeZ+u0fVB38HnUcbnEqrCFvmlcwdqszb7zXhOJ2GmHHjxDS6GUaFtBhvruLH3boeGtEJyrZqt4jttrMvYBlf2oxXNu7iV+9zhGUPvYkcvfoNs5aDhQ2eEdT4oVyGK/8zvrfLmAsXwv3AooI71VsSW3H6w5H2HAwmAKVq1LcGRt9Op+Nds6JjeNdxXPz4B6u2xXg/s617PV3pGK1Upb+bGNcyj4DvHUfy2680mxnvrc1LtqkEXl8Fh/0ms0FowP6wpWoXyEf4dbtkKn/24MpnOvXbnDz8h1LXQqFcXjFfH7a6kOozozBoSINKxUi1kbZErLtf9nUJWNpQ4+zevE69p0PoWDlFyhl9mPHyp85lVKR+uWyq+OfYB21/N1M1+ao1oV1ClDo7JR7ny3q4Z+6FJCsfutdUtUYbeNKSvJBNbLuW2pJULLym9VGefTaouKt5zGHqlNzO6ty5YeovUkPlc+yHqqqazM1YOpMtWBWH1W7bHe1MVoppVLUmXH1VOO0bzDm8B1qVNcxak9wsgo/OkG1qv2BWns3TJ1f0UtVc/VU/adNUIPfH6MWLe6rahRuoUYsXKJWLvlEtSjVQPWdNlstWD5fDWxQVnVdE67MNstpVoEbR6mBc86qmOSLarJnadV1TYgKPTVXdS5XXg3Za1DKHK52jOqqxuwJVsnhR9WEVrXVB2vvqjCfZapHVVfVbMBUNXPBLNWndlnV3VIJq7pHqgOT+qhP1l1VkeHn1cxXiqvGU68oo+mGmtG8ihp+wKCUMqi9QyqpNt/dVWZzoNowfqxadyNKBR0cozw9OqtVAdY7LV7t+Ki/WhxkVsnXflSffHNaqVwtp1T0ofGq89D1yj85Sp2c2EQVbjBJ+RrNKnDDeDV23Q0VFXRQjfH0UJ1XBaj4HR+p/ouDlDn5mvrxk2/U6RTb8yUfHKnqvrVEBSX7qVltPFSvLVl6QLb9xOQ/W7Wp9qE6mBSpfFc/y/0YpsyBG9T4sevUjaggdXCMp/LovEL5ns1mv9lYb+zD82pFr2rK1bO/mjZhsOo+yStTlcwhJ9TMTmWVe7vBauyXk9RHbd2Va6NJ6rQhWR0cWVe9tSRIJfvNUm08eqktsQ8z99vuk9TOHbloN3Og2jhqoJpzNkYlX5ysPEt3VWvCErOuP14pFX1Ije88VK33T1ZRJyeqJoUbWK6k2Khb1i3ZbkNl8lez21RTHx40KHPoKTW3czlVfsheZVA2+sIK3+yP7YdLVYeyfdS2ZEudntxXbazfZp+0WkyZ1I0ZzVWV4QeUQSll2DtEVWrznboT7qOW9aiqXJsNUFNnLlCz+tRWZbtvVDaOWKVUolpjdSVFKaWMZ8erWk7V1GcnUpRK3qnGj9+lEsP3qJG13VS9Tw+qKLNR+U4fp5aHpV1J2T9MVagwTO3P6QKBOYfxMJuxJ9x3tepbo7BqMWKhWrJyifqkRSnVoO80NXvBcjV/YANVtusaFW42qitTmyiPtoPUuIkT1bC27qpos6nqdJB1n95rs51zkvV4j1UhJ2aqTmXdVbvBY9WXkz5Sbd1dVaNJp5Uhm32dftwbLFcibPex7Mer8B2jVNcxe1Rwcrg6OqGVqv3BWhVgsjEu5uihWtqhrOpj6ZS22yFD2bLttyln1Lh6jdXki5YrKbbKdjcsu/5ne/6ALBdjDOrif1uokm+uUGFmpZQ5WC3/zwR1NNF6vr/mH3+YIf7UIU7Hp/3qWZkJOXaIS0bruf4imxl7rebRl6TxW82pYEeOGZMzM+O3bAb73TvRrrQzxV8azfAa+5i5Iog6XdpSzbEir338NUs3zGTYB0/OqKzZKmfqJZbPuUH97o1wca7LJxt2MLV9cUo2fovmFSzXi8x+y5ix351O7UrjXPwlRg+vwb6ZKwiq9zZtKheg2ltjGDNiFMNedyPgVkiWh4rNt1fw9aGqDHqvJm7F69Cmsbvl4SSdE06P00Pj5OSADjDbyPycNWNy1ozIuVruKbNBmw0xHF7wCZZkz4OpqbM9n0Old5g05lVSff4gVEshNCQ+6zMLtto/40y5zIyd+/3oaiODtRlTdvvNxnoTizTInHH7q1czFBj0pZryZvPyFKzdi6nTvmLhr9/yyv0NbDynqPTOJMa8morPH6FoKaGEJBahQcZ+u/4rXq/95HYzXVrOnBv16d7IBee6n7Bhx1TaF3XKuv54I/6rprGrQi+6VHSmSKNOtKuYds3TRt2yHKMmW22YOf+FvmRj3mpewXIl1VafMZtydWznrq/aWL+tPpnlK78OJyenx8lLnZxw0IG+aCPeblOZAtXeYsyYEYwa9jpuAbfIMuzkRCnAAYcM29QXf51ZG6ZQal0/Bv3ij+lpXzKRw3iY3djzoFYX2lZ3omyr/gzpP4hRXWoQ59yUESMGMnzo6xS/d5MgDUCHq+dAvpo6lUXbf+St4LVs9K9llUW+gs12zknW4z2REk3fpHn5gtTuNZVpXy3k129f4f6GjZy+mot9nUHmPpbdeOWXTeb7lCzjYq5l098yz5KLumRTthVB9Wz3v1Tb8y+7ZN1GTtT9cCwdb6xk5Q0z5ru/4VeuB83zW832F/3jQUrBRs2o6/zocNVTtNGL1PxTt3uykRBDrMlWxl4bHmUehuwzJmdiIjAgCEOqMW19+alQoQTxkVGYdTp0dg7pWY1zk1HZZmZhcxih4dFERVlmdqncAA+HpLQsxpblTYEBBBlSeZxkuQIl4iOJMuvT5wE99g72aJqWpe4m/1vcw5EM6Q7T2LrMnNuMyVkzIudquafMBu3SZQGbR5fl6OiW1HtvMVfibc+HLh7ftUs5bNec1lXzW2VNfMRG+1vP8kz3Y7ztDNaO2e03G+uFzBm3s6G3Szu0XWpTy0MjJVWhi/dl7dLD2DVvTXqTWPfbXLSbOSyU8OgoLFVzoXIDDxySNBvrN3Hz+h3Mj3duhnrarlsmNtvQOru3pT0g+z6Tm2M7V301m/Vn6ZNZi5jNkWXp7+n/tnfAXtMsXSpXNILPnSOgaBOa18xcVqdaH/Hzije5MaYXsy8lZW3bJ8mmzXIae/QZKmlnp0c9PlCwI+s4RP5qVPNQGI0qc5/Opp1zlG2/1fP4UKiFh5aCITf72kp6H8tuvMo2833BLONiruWiHXLVb7Mtm9l2/zNmP38WLh34uLeJVfN2c3pLAFW7vZDjuPRn/ONBin29cWzePouPerxHn7HL2bW0ByX/ZCmUplCZjugETm/8nSsnbGTsNWT7uHSaLIdQOqUUWto3lgatm2A4to/zlvTGhD3Mx8sdPS0n/OxXYZPNzMLmqnjWvM2KKau4kmAm2mc5Kw/FZFrOoUFrmhiOsc9SCFLDHpLv5Y54OuWuCPaVquJ+dQurzkSjadEEhcSlLZePfI6JRFvSQ3P3QQKpqanY5ZAxOZ0WniUjck6ZltM9VTbo84Tv3s/Dzt+xx/cQQ1LWsN63go35znFy3nj2luxJ7xcLY0gyopkNWHcBm+2fNpONc3O2bK7H5n5MsJnB2tdke7/ZXO+j8lnPnIkixWCwzJMSyAP1Iu1q/cG88Xsp2bM3LxY2kGTUMBvSfpaYvrLUXLWbQ21Pat5ewZRVV0gwR+OzfCWHwk/aWL+J6rUqE7RvM2csOxeTyUhqSs51y7AhG22YdizY2kE2+4xv9q2VIUt4ctnc9dWs67fRJ32yjjX58jmSGB1FKiZC7j4gITWVVJV90bLKGsSZ7m1g3NwbtJ44ljcKWuZ5HHzpKfHGHDZ84cKB3288/jWNWUNTaetK8ufE4ctpwaY1661Z5DT2PLW4K9zQXqZT2sLpW7TZzr45lDeHfqtSMBgsa04JfIB6sR2edbLf17YywGeS3XiVXeb7hrFZxkVIwv/EYS5nrQigR6c3YzJpJCSXtd0OPC5b9mOsQikt7UJbNmXL7oSR0/xZ2FNryEjqen3CJ0GN6FLuT57Mc/Ds1/hE9pR79TMWrtvI6m/641nkzxTBwL0T69l1IZqAnTP45LPRjP7sPwx+qwVDL5SlYU1bGXsfZl6FFsUVrzPcjbzKkRNXss2YfOv6frafCuTusc38/kcIbt3nsuSNK3zZezRff/MNZ+p/x/TXFFd2HuNmzEX2bL1ElJaA3+4nZ1T2dW2RtZxnneg790c6hk6lVblKvLk0H691LEvUFS/O3I3k6pETPHDtztwlb3Dly96M/vobvjlTn++md4BrezhxO5ZrRw9wze8U+y8EE3h2L+etXgRjV20IsyaUYXOX+jTrMZ/r+rQH4vRFefW9Fpwf9zKd/7OFh26lSbl1wGbm5451reNlc5aMyDYzLVsv95TZoM1BvzJx6CR+2HCc1OYj6NvM3cZ8DajaqhXJy3vw9kc/4OdQnMB9azn9MHM72Fe10U9O3s6QCfrKM96P5W1msC5/0/Z+u2Rjvb8cOJ4543amGj2iiPPZwOzvv2fGxF24T/2GzsWr0qpVMst7vM1HP/jhUDyQfb8csOq39rlqN33Zvsz9sSOhU1tRrtKbLM33Gh0rVs+6/rXnqDh0PrMbHGVgm44MnvIrN/UaAUdPEV7JRttbH6P6sjbasGym7Nx3HlzB68xdIq8e4cQDFxt9oXy2x3ZYvkdZwn/ExzkXfVxf3Mb6bfTJJtaDuZ6ir75Hi/PjeLnzf9jy0I3SKbc4cMSbPSduE3vtKAeu+XFq/wWCA8+y93yY1fKJ+Hv/zJ7LyQQdWsi0Gd/y34kj6fvpHqp8c4BNw6pjl3qf05t2cPDQLjafCUp7B4ozdUb9worBNXACTEFn2bzDh/AIH7ZvOs2dfV/TvcubjP4twWp7OWSQL2Z77LHz2433zQT8ju7j2p3z7D0bQNS1o3jfvM3pvX/wIOg8+30iKN3mXerdmMeYaXP4du4VXl40k1fNV6yyyNtuZ8OB7MqbQ79VcfhsmM33389g4i53pn7TmaK2xqUcMsBn6mNBZbMZr0zZZL7POi5iOMDX3bvw5ujfsK4JFKBe00qcmjGIH32ceS9LO9TOVLaAAjbqUjcRv/3bORV4l2Obf+ePEDfbZeOa7f7nq2zP72JdVgt9ya6M7FoBzw4dyXwz9tmQ1+L/v2fi3BdNGJnvF45PrPXML9WJf5qZGzNeomvEt1z4riU5X8QW/98ZvL9lXtIIxr1ewHpSnvRU5TXfYMZLXYn49gLftcxjR4LBm2/nJTFi3OvkoiZ5mxbGuimrqfrl5zT+G5r5z1zGEP8qGmazGc1s+zu5eP5oZss+FSInpnvH2Br+Ev3bPx+nyacvr4ZZM5PnDgXTPY5tDeel/u2f7wDF7MfGyWOZMnkSPlXep+HfEKAgQYow3T/Lea0+tVJP4xMigcrzLjXwFMeSXqCJ/UWO+SdaTxYinX2FVvTs9uKffibwn/Z05U0l8NQxkl5ogv3FY+SpQ8G+Aq16duPF3FUkD3PEXsWR5NGfCb3KZ3lX2bMit3uEEEIIkSc976GcEEIIIf6lJEhJlznLcIL/YbYdu5/lRWhCCCGE+GdIkPJIhizDWvgZln/aj8823Mp72TqFEEKI/yfkmRSbzPjPbsfrdydz+Yd2Nt7MKoQQQoi/23N9JcUUdo7Ni+fz47pjBKQAJHL36Cb23Yjl9oGf+PGnwwSkmInw3cbyRes5E57265XUIE5uXMbCH1aw40q05YVYWix++37l8D3LDR6dLuPr0IUQQgjxT3tugxTt/kYmzb1Nnfe7UcP3U1r1WMmlC1v4athgpv2whkP3U7m9vCedh87g5+ORJP8xi64fridCM3Bo9Bt8G9uRQa9G890bo9iWoBF2dhXjh4xhg5/c4BFCCCHyguc0SDHbzCZrzFUmTgcb2VrJlGVYCCGEEP97z22Qkl022dxk4syarRUyZhkWQgghxP/ecxqk2GebTfaJUm1la03LBpvJ46yjWtQ1Tl0Ot5ouhBBCiL/Tcxqk6G1mk610JxeZOH1dbWRrPZkpy/C9sKt4nb5L+KUDeN9N4P6mz/lg/FbrQgghhBDibyQ/QRZCCCFEnvScXkkRQgghxL+dBClCCCGEyJMkSBFCCCFEniRBihBCCCHyJAlShBBCCJEnSZAihBBCiDxJghQhhBBC5EkSpAghhBAiT5IgRQghhBB5kgQpQgghhMiTJEgRQgghRJ4kQYoQQggh8iQJUoQQQgiRJ0mQIoQQQog8SYIUIYQQQuRJEqQIIYQQIk+SIEUIIYQQeZIEKUIIIYTIkyRIEUIIIUSeJEGKEEIIIfIkCVKEEEIIkSdJkCKEEEKIPEmCFCGEEELkSRKkCCGEECJPkiBFCCGEEHmSBClCCCGEyJMkSBFCCCFEniRBihBCCCHyJAlShBBCCJEnSZAihBBCiDxJghQhhBBC5EkSpAghhBAiT5IgRQghhBB5kgQpQgghhMiTJEgRQgghRJ4kQYoQQggh8iQJUoQQQgiRJ0mQIoQQQog8SYIUIYQQQuRJEqQIIYQQIk+SIEUIIYQQeZJOKaWsPxRCCCHE82v9+vXWH/1jevToYf3RnyZXUoQQQgiRJ0mQIoQQQog8SW73CCGE+J/LeHsi4+2C4SOHc+36dfR6PTqdDlBpf49pOoWGQgfodJbv3jpNhw4dSqlsl7NFobPMptNZ/r+mpS1vkd26FKDpQI9CnzbZjA70+kxz2iktw/97xFLmx6djBTqFDh2a0tBZapZet4w0TaNG9RosXrgo0+cZ27N1+4aZpv0djnqdT//3s7zdI0GKEEKI/7nsgpTWr7Rh5MiRkEOA8Ciu0JTlxA6gUzp0uj8RpCjQoUeh0Mxm0OnQ63To9BkDhKzrsgQpliV1ZkBpmABNgZ2dHTqdJQjRP45/MrAOUizLKxSaZglS9Hb2kN4GabMohV6vZ/738zly4PDjZSVIEUIIIZ6d7IKUdq+9zEcffYSmaej1ekCh0q5GPApC4uMTuHr1GvcCAoiPi8POzp4iRVypVKkSNWrUwNnZOS0AeHwVI+PJPqOIsAgO7D/A1atXiYqKQqfTUaJkSeo1qE+7du0oXLhw2pyWdT0Kgixr1xETFc2h/Qe4cvkyYRERKKUoXqI4devWpV27dhQr5pZpexaPg5T4+HgOHzrExQu+hIaGopSiaNGi1Kxdi7bt2lGqVCnIUH6lFD/++COH9h3MtEYJUoQQQohn5ElBSnowoLS0QEURExPD1q1bOXb0OKkpRnQ6y9UTlELTKcxmM0XcitC+fXs6dOhAvnxOVldXHjObzXh5efHrhl/xKOvBa6+1p3r16phMJi5evcyePXtISkqm/4D+NG3aFJ3u8alTKYWm4Ojxk6xd/TNFi7jR8Y03eKFGdfR6PdeuX2PXrl08jHhIzz49adOmTfrtK6UsV28Azp8/z7KlS8mfrwBvvNaBunXr4uDgwM2bN9njtZd7Affo1q0rb3TsiJ2dXfr2f/jhh39tkJL1BpcQQgiRZzy6tWIJTCzfq3Vcv3adSRMn47VvP+U8yjFu3Dh+++03Tp86zcmTJ9mwfgMjPvoIJwdHNm3YyH+n/5eQkFA0c9oVkIy3VxTs3rWbDes28p+Rozhx4jgzZ86kYsVKNGnShB/m/8DpU6fp0rkzPy78kTOnz6QHFhY6jhw5yk/LV9Cndx9OnzrN7Nmzeb97d95+523mzJ7DmdNnGDxkCKtXrubA/gOZ7hbp9Xb4nPPhhwUL6dixE6dOnuSHH35g6LCh9B8wgJkzZ3LM25vx48axZfMWtv22DU3LUI/Hq/rXkSBFCCFEHvY4SNHpFHqdnutXbvDd7HnERccxeeIUvI8eY/LESbze/jXq16tHwwYNebvTW3w36ztOnThNv979uHfnLjNnzCIiPBKFHk0Hml6hUNz0u8mWTVv4cvyXfPnlJAoWLExYWAQ9evSkf/+BmE1mShYryYJ5C+jfpx8rl60gPDwCs1mhlI4HD4JY8/MvDBs8hG9nzKCIqyt6nZ7dO3ez4PuFmIxmXF2KMH3adMZ9Pp4NazYSeC8QpSnQQ2RkFMuWLue9bu+xaMGPFC9anAu+vkz/73+Z8tUUdu3ZjbOjM6M/Gc2M/37Dtt+2c/XqdbRsbln9m0iQIoQQ4rmglCIy8iHz58/HbDbz46JFjB07Nv05kYxPLzy6rVOmdGkWLlzIhAkTiIiIYMGCBaSkpDyaC7PZzNatv9G0aVM+/vjj9Nsoer2e3r1707t3b+Lj4wGwt7fnv//9L0WLFmX3rl3Y2dmhlGLHjh0kJydz9uxZfvvtNx5GPuSTTz7ms88+Y/Hixbz22mtERERgZ2fHZ599Ru3atdm+fTs6vQ5N09i9azdF3dyYMeMbHBwc+HXzr7Rp24bvvvuOVatW0bVrV4YOHYrRaGTQoEG0adOG37b+Zrma8i+PUyRIEUIIkec9Cjo2bNhIbGwsY8eOpWePntjZ2WFn9/jBU7PZjKZpqLRfvuh0OhwdHfl8zOe8//773L51mwMHDkDaraP4uHhu3LjOkCFDcXBwQKfTERsbyyuvvMKGDRuYO3cu3bt3x2w2o5QiX7589OnTB98LvhiNRgwGAxd9L6aXZfDgwbRo0YKly5bRo0cPfv75Z/r160eRIkUAcHZ2pl//fly6dJkUQwpms5k//vChe/fuuLq6kpqayqSJkyhatChHjhzh3Llz9OvXjw0bN7Bt2zbs7e0ZPHgw169fIy4+Dk3L8FDLv5AEKUIIIfI8pRShoaGcOnWK2rVr859R/0Gnt/z2OCUlhbi4uEzzKqWIi4vDYDCglMLOzo7JkydTpEgRDuzfT6oxFVBERUWRnJxM48aN0wMhTdMIDQ0lMjKSyMhIwsPDMwU99evXJzwigtTUVOLj40lIiGfYsGHs3r2bnTt30tizMfny5WPTpk0cPnyYJk2apP0yycKzkSfx8fHExsWSmJhIbGwsjZs0QafT4ePjQ2hYKJUrV6ZK5SoUL1acYcOGWZ6b2b0bpSnq1KmDnZ09YWFh6et8NjQSH9zgj/MBRJutp/1vSJAihBDiOaDj/PkLGI1GBg4cSD5nZ1CKFcuX06xZMxo2aki3d9/l5q1bhIaF0r9/fxo1akTjxo2ZOXMmRqOR8uXK8eabbxIWGkrA3Xvo9XpSU1MBKFCgQPrDqGS4coPVbSTS5zVjNptBgdFkokCBAjg5OtKqRUt++eUXThw/Qc+ePfn1119p2bIlvXv35tixYxhSDDjnc0ahMBpNaJrlhWzOTpafSTdr1oyfVv3EqpUrcXRwAKUoXKhw+hUehSXgsrOzs2yfrL9U+nOSuLhwCK083+Gt9h1o2XEBZy13uf6nJEgRQgiRh+kBPTqdnjt3/NE0xctt26HT6Th+7DifffYZHh4eTPnqKx4EPWCf1z4+/ewzduzYwYcffkjnzp3ZvHkzISEhoKBVy5YoTRFwNwA0hYurCzqdHn//O+lbLFCgAJ9++il6vR5nZ2dGjx6d/vyJTqcjMDCQggUL4ejoiIOjA/mc83HX3x+lpf1MWtNISkzkq6++YuPGjZhMJvbt28ebb77J6x1eY9VPK7FzsKdA4cI458+Ps3M+7t67C0BCQgLbt29nzS9r0q++/OHjY3mzbI0a6NAR8fAhBoMBV1dXdLrMb7T9s7SQE5x26M+6oysZ85ILsT6rWeaVYD3bP06CFCGEEHmeSnsviqOjI+7u7uh0Onbu3InRaOTLL7+kR48eHDhwgEEDB7Fnzx4aN27MqFGjmDhxIocOHcLDwwOdTkf5cuXRAbGxMaCgWNFilC5Tit+2bYO0KyiOjo688sorKKVwdHSkffv26VcrlFLs2rWLSpUq4eTkhIuLCx4eHmzdujX9NtOZM2fo2LEjzZs3Z/Dgwdjb27NlyxZWrFiBnZ098+fPp1y5chTIXwAnJycqVqzA77/vQCmNQoUKERgYyDfffMPXX3/N4sWLmTBhAq6urvTt2xeF5UFdt6JuFCtWLMtVnj9LX/pVhg5tQY3qzRn8fkOcdA7kc378Lpb/FQlShBBCPBce3YJ59L8mk+nRFEueHk2hWeXGeXQFJJ0uw60cHdg72PNyu1dYtXIlly9fTl//I4+eQ3n02eHDh9m1azevvPpK+vTXXnuN37b9xvHjxwFo0qQJ27Zto1GjRlSoUIFDhw7x0ksv0aVLF6ZP/xp7ewfatWtnWTc6Xu/QgUOHDrJjxw4Ali5dStOmTVmwYAGTJk3CxcWFX375hZo1a+J/x58lixfz8ssv4+DggF7/LG71ZGTmwf0wqNSR99vks574j5MgRQghxHPBpXBhTCaT5dYN0K5dOwDmzJnDjh076NatKz/+8AOtWrbCx8eHFStW8MMPP9CuXTvu3LmDUoqQkBA0pXAp7GIJSNDR/rVXKVWqFH379uXq1auWZ0ScnalZsybVqlXD3t4es9mMt7c3gwcPpnFjTzwbeaYHLy82f5GaNWsxePBgzpw5g729PU2bNmXEiBEMGzaMOnXqAHDhwgUGDBhIjRrVeal1awAUitq169CqVStGjhrFkSNHqFKlCr///jsnTpzg5MmTHDp0iFdeeYWbN2/yQa8PKFKkCK+//nqGlnmGEv5g3S6NPrNG0qKA9cR/ngQpQgghnguVKlcG4MjRo6CzXIGYOGki58+f56MPP8TB3oG33nqLefPm0aJFC6ZOncr333/Pm2++ScWKFUEHJ06eBJ2OchXLpycNdHR0ZNQnozBj4vUOrzF79ix0OvDy2sevv24iIOAu48aNpWvXLpQuXYrBgweBvQ6zTmHWaegc9Az7cBhFi7rxzjtvM3nyJC5fvkT58uVo1qwJV69d4auvpvBGxw44OTsyYtQInJ0c0aFhh8LOTtG7by+q1ajKu++/y+gxn3HlymWKFStKqVIlePAgkJmzv6V9h/YkJifyyWefkD9/vvRsy89OPKfmriRq8BzGv1SIuIfRWB4r/t+R3D1CCCH+556Uu0fTNEJCQhj3+Vjq1a3Pgf0HcHZ2RlMaifEJpKamUrhwYRwcHAAwmUzExsZib29P4cKWX8eEhIXS7MVmGM1G5sybg6OjA3YZkvslJyezc+cuDh88gsGQTP78+VEokhKTcE27evHyy+2ws7dHsyQlTqfTwJRiZL/Xfvbu3UNCfAIFClouRSQmJlGoUCFefrkdr73ennz58mW5rQRgNBo5cuQIu3ftIToqmgIFC6DT6UhMTMI5nzOtW7emU6dO5M+fP9MtqGeTu0cjdMcEes9LonlrDxxN0dx1eJWFE9vgbD2rDX9X7p6/FKSkhPmyae50Nlx1oUmXdlQyBnDmSBjNZ8yhZ/ln98CN6cIcuo66zvvrltLT4y9e/IkP5OTa2czccZfiL3/MF4NfpmIh65ls0CL49cMubKz6HT991piC1tMfSQzk5M8z+XZnIGVavE1tkx9Bbi8zaNBrVLKxpw3+6/nys/UY31vAdz3K8zStpsVeZ83UL9jCByya1Y0yuWyaRO/FrM8/gEGejvDUZTBxYU5XRl1/n3VLe2J7dySwd8ybLMw/mdWT21DU5jxCCPFYdkFK2/btGDFiRPrPg+d/P59zp88yc9YsPhz+Yfp8+gwPtmKVJfjRZyP/M4ply5fx7vvv0uXdLiilpQcpj+bVFMQlJvLg/n0iI6PQ6XWULFGCsu7uODs5o9frUUpDZzWuWbahRwckJCby4MEDIh8+RAHFihXDw92d/PnzY6cj/eVrGcuY8XmbxKQk7geH8DAiApPZjJubG+XdPShcKPPJ6tHyCxcu5LDXoUzTnjZISb3xM33emsGxqEchgQMvTt/HpqFlcnXL5e8KUnKz7Ww5laxJFfMVvLz8cX2lO737fsKXPSpjSPzTcY9N+hK1eKndi1Rx/UvFtShUjoZl4zm1dz8RxZrlLkABiD/FJYch/HdkDgEKQIFyNCwdx8m9Bwkr34OPRr+Hw09dePHtBVx99IxXBs5lChNzZh8nbic89VU7vUtFCkccY++pOyTldmEthE1zvmTKgt3EpH30dGXQU6LWS7R7sQrZ7g6DD38kdWP6WAlQhBB/jdIUKSkpmEwmlFJ88MEHFCpUiMmTJ7Nt+zY0ZXm77KMT9qN3iPAo6NA0TCYTc+bMYfVPP1G+XHk6duqE0WTEaDKRmpqa/mc0GjGZTOR3cqZalaq82LQpzRo3oWL5Cjja2aOZTJhSUzEbjZhTUjP/pRoxpxoxpRpxdnCkSsVKNG3chGaNm1ClYiWcHBwxG00Y07ZjNBozbTfj/9rb21OxXHkaN/LkxSZNqV6lKvmcndOXs17+L1xrSOdYow8bbl4n6OGNtL/LbM5lgPJ3+ktXUiCV05/Xo9X3pZl9ew/tT/5GbMdO1Iy7zK/LdvKwTgfq3NqIt8d/mNriPtvOPiTE5zR0GMPINiV4eGw5P+yNpmp9F3z3XaRMr6l83KYocT5rWX38AcFhJXl3bE+KnVjMspMOvPrxECqeW8yW8OK4JTriOfQd3H0zzjsAz8KRnFqxCO+U/NgVeomBvT0pYtXKhh0DqPDOOpr9FMW23vmJ9V3P6mMRGO3r0HNIW0o82M2PW8Ip7paIY4O3cTuxlP2pzRnYyci2VWco+MYYhjSLYfePWwgv7kaioydDu9Tm0dU/w/a+lOuymZY/R7D1AyfuzGrNC+Pv0mf7LZZ3NOK7fjXHIozY1+nJkBcvMLRSZ3yHn+f0Jzp+W/ArQW6FiLoXjUPl9gztVY6rv5/lYYgPp+nAmJFtKEUoRxYs4GTBhpg2D2Z67FiuHhtLpZhTrFjkTUp+Owq9NJDenkWydDDT1aUM+OBL1vk3YP7lPXxYXg+G3QxKK8PJD+P4ZeFOwivUpvClA5zP34Hhr8fy66qT2L/+BV91smPf4mWcdHiVUe85sfPHzPv5m+5FrNq/IcYTtvZz8SxlE0L8/5XdlZTCbi4UcSuCZtZo9VIrunTuwpVLV5g7dy5KKb788ksGDRyEq4tLpre6Pno1fkhICNOnT2f16tW4FnHl87FjKVm2FAsWfs/9+4GQ+cdA6NChV2lXOCw/BrLxb4Wmy3zq1AE6Zdm+7WUsNJ3VBm3QAXplef/Jo+U1IK1Yj+dLC8yioqJIiM785rWnvZLyV+XJKynpVDg+y4fSa8ZZjI4FKVyiEEE7ZjPjm3VcSzGRmBTMT8O7MduvCo11exk3agHnTXpcHW6zada3rAlrTO2odUyY/ishEVsZ0W0JhvbtcNw7jhm7DJTiMivn/MKpkCPMHDkb7+Tq1C+STGS49bxRhG4YRteZ4TTr15SQGW8zdGOYdR/MRIvYxPC3F2Ps2I18v/XiP5uCOTpzJLO9k6levwjJcYXhxlrmrDxOVEkDZ3+czQafOFKOzmTkbG+Sq9enSHI02b9B2I7S7qVw0iK4cS2IiE3DeXuxkY7d8vFbr/+wKfLRfEZOTetG382Kdu+V4caS1dx3b4T55+F0m+1HlcY69o4bxYLzqYSvH8H7c8Jp0L0ZJZTRsrgWyoZhXZkZ3ox+TUOY8fZQNoZZ1zwB7yMwfH5fqiYfZunyC1keitK75CPgt1nMWh9F606FOf7tcL663Iz2BY8xZ9JS/tCXgssrmfPLKaILW+1nQ4qN9o+gsI39nKVoQghhQ1JCAkH3HxASFMyObdu5fv06terUYtQno3DK58SXk77k5Vfa8e2smRw/cYIbN/24dv06Xgf3M+7L8bRs04rlq5ZT2qMMY8d9Trly7uzbvYdzp84REhhCSFDa34MQQoNCCQsOIygohAdBIYSEhBEcEkpwcCihIaEEBQcTFBxMcHCG5dL+gh+EEBJsmTco7S84OJTgkFBCQ8MJDQ0nJCSM0KDQLMs++gsLDiPkQQiREdEEB4cSEhxKUHAIYWERBAcHExKU+S/4wQOC7z/AkJRk3Wz/Gs8mSNGVwHPgQn78qFba1QQdOiB/3U6MmLSIBYNa8vbkHxhUcD+bzsdiTk4kSQN0OnQ6N6rXrYJrQQe0pARiTu3hYJgTBYo0ZppPCJs+cLXMB2BflRcbmtg1og19jzhSysd63vyc3nuESJdiFLUvRKECD/Hefy7LidjCsk6jz368w+K5ffgwtO5NExcjVV9siGnXCNr0PYKjh0P6vU7QpTeYQ9UXaWjaxYg2fTni6JF+FcWWlKRkjDhTrERBfPZ7ExZ/G8vmmuCS9Ci80eHo5PToES6Uzh5HRztKvj2ZHwYVZP+m88Sak0lMSuH8kdPEuJakhFNRSpVwsiyeepq9RyJxKVYU+0KFKPDQm/3nMtdcC97CziuJ+N8vTi13xZWfFuGV5bXHOnR6PS6VX6BiURcK6vPjUbUCRQvnRyXGEa8eR+9Z9vOAyrbb38Z+fsZ3BIUQ/1K6tPFfByQnG5j//fcE3g+kXr16TPt6Gq1ateKOvz8TJ07klVdfoXHjxjRu0pg33+zEvHlzSUiIp3PXLkyeMhkPDw+OHTvGhvUb0MyWb0qWN6zo0On0lCpVGm/vY/y2bRtbt27l5ZdfZtWqn8hfID/r16+nZs2aj8tl4z/VqlXnmPcx3NzcGDt2LK1bt6Zv337sP3CAA/sP0KRx4/SfPdv6j4ODI6tWrmLDhg38uGgRDo6OvPba6xw4cBAHe/v0dnj8Z3l4Vpd+veXf59kEKQC6/DR+tzMvpJ+tdTg5OVuaTovhwvpvmPNHOTp6uqHP7g6TUuhcXChsvsqpE7FgZ2f1EKcDLafvYe2IF3iwejqrHxaymldPsWJu6MxmTJqBlBQdLm5uaZU0cXnmS5RtPQs/k4bSF6JwYT26ggXJr2Kxq9iZDydMZWiLoji0nM6etSN44cFqpq+4jGZnl36xLr3kDi2ZvmctI154wOrpK7hk43kTi3iOn7yI5t6Vfp2KULBgflSsHRU7f8iEqUNpUfRRDe1pNGYeY2sEs3NNCC2X7+Sbdg7EXFjPN3P+oFxHT9z0CoWOAgXzo+KiiDFnyCmhL0YxNx1mswnNkEKKzgU3t4y718TV3fG0n/kJH3wwmkXT38E1ZDOL1t/P8UpTJjZ3W4b9nGP7Z5Dd/hdCiCeIiY5m+tfTOXfuHMWKFWPosKF8M/Mbhnw4lLavtqN+o/o0aupJxzc78fEnnzBr9mzee+89HB0c2LZtG4sXL8FkSrsCnYFSGo6ODuTLn5/vv/+ekiVLcv3aNZycnFi+bBkxMTFcv37derF0CnDO50zFihX54osvKFasGCVKlODjjz/m/fff5/Oxn1OyVCnrxTJxcyuCZ2NP1q5Zw6VLl9Dr9fTq1QtN02jbti2kPWfz/0mW88fTSAm7xrmbUWhaEFdO3iS2sBuuetCi7nAvWiPG/yoBSYAWxLmTfjwMusadeDt0Udfx9TcQeS+QOBXPA//rBASnoCIDCKo5jM/fdOL3z97lw6nz2HwhjAd37pOkRXLH7zLrZv6CsUNP2jd5iZfeHmE1bzIvfjSezvrz7Nq1h4sOnflieFMsv2HRU7ZuE6qVVPifv4N9g4H0be2MY9OBjGibzM/D3mPklB85EqK4v2Emvxg70LN9E15qUYUajerh9sCLRd/t5U6qRkTAXUz3NzDzFyMderanyUstqPgoOEu8j4/vPRKVEf+jP7Ni1jhWRXVl2c4FvFPUmaYDR9A2+WeGvTeSKT8e4V7IHe4naUTdvYnvT9NZ8UBPSnQCCXdOcup2AkHnTuL3MIhrd+Kx00Vx3fcBDQYM5yXD70z96AvWXjSgIu9wPbYpH43vjP78LnbtuYhD5y8Y3tRSc9CIOjuX8asvEhMUg4YRc/mqVNbHsX/uVH49cyOtDLcJj7hLYLRG3P3b3LgZQJSWwIPb1/C7F42W8IC7Afe4cz8JLfION2/dyryfcbTR/o2Jt7Gf78bmOjQSQgjQgU5nOUnHxccxb948Fi5cSEhICMVLFKNNu9YMGNSfkR+PZMSoj+jduxdNmzYlf/78XLlyhenT/8uGDRsxGi1XmPX6xz/hJe2KDYCDgwM1atQgOTmZ0mXKMP3rr2nVqhXTpk17YoCglOL4ieOUKV0GT09PChQogNlsJioyksDAQB4+fGi9SCbx8fFMnjyZps2aMWjgIF544QUaNmjIlSuX6fVBr2y+KP67/cUHZ3PPHBtMmCpBmUIJ3A9MpXjFEjn89tpA2J0HaCUrUbpgxjgqhaQkhSEyAkp64OaYzbwpkdy9F49LxQpp8zxmjg/mbpiOUpVKk75qLZFQ/1AoXZlSBSAlKQlliCSCkni4OQIaCWHhmIuVwuXRhY+UJJKUAUtR3NICodzREkOxbK4UGV/oF79vBK2GHcHOzRFjdAD3PCbgu38gzg8VJcoUIuF+IKnFK1LCGcyxQQQmu1LMLgGKlKRQWpCUEnmXe/EuVKzwdGV6pnJofyGEsCW7B2ftHe0y/TwXwPzobK3A0dGBKtWqULteHdzd3SlcuBCapoiNjOHe3XtcuOBLcHAQZrMGmkKvz7yujMqVK8e+fV6s/mk1nd58k88//5zbt26xY+cOWrVqmZ4xOTv16jVg3NhxTJo8iWPexxgwcAC9e/cmNCQEj3Ie7N27j2XLltjcNmnbX79+PatX/0z/fgM46n2UQgULcejQISZMGE+HNzoQGhqaZXmlFKbUzE9G/lsenP3HghTxJKmcnfIG0+3GMOntEiRe38qvgZ34dkxT8lvPKoQQ/zLZBSkOTpZvYNkFFlie4nv0D8vDGugsjw9kM392nJ2cadioITqdjocPH3Lz5k3s7OypW7cuF86fR9M0dNnkylFKUbhwYcqVK8e1a9epXasWD4IekJqaSsuWLYmLi+PMmTOYzeYcy1WlShVq1qzJjRs30Ol0REREEBUVRe1atbn/4AExMdFZlpcgRfxDzCQE3+buQzMu5apRzjWnx3GFEOLfI7sgxTm/E2Zz9r+fzMj6dGZ9Ms+ZzhLuqEeRjkKv06cHQJqmWR5SzWadSinLi940S+JCHTo0paHT6dE0Lf0KDrkq1+NHYR8lTHyUKNGyisz11Ov1pCRnvsrz/y5IyVhhIYQQQghbnmWQ8pcenBVCCCGE+LtIkCKEEEKIPCnXt3uEEEIIIf5JciVFCCGEEHmSBClCCCGEyJMkSBFCCCFEniRBihBCCCHyJAlShBBCCJEnSZAihBBCiDxJghQhhBBC5EkSpAghhBAiT5IgRQghhBB5kgQpQgghhMiTJEgRQgghRJ4kQYoQQggh8iQJUoQQQgiRJ0mQIoQQQog8SYIUIYQQQuRJEqQIIYQQIk+SIEUIIYQQeZIEKUIIIYTIkyRIEUIIIUSeJEGKEEIIIfIkCVKEEEIIkSdJkCKEEEKIPEmCFCGEEELkSRKkCCGEECJPkiBFCCGEEHmSBClCCCGEyJMkSBFCCCFEniRBihBCCCHyJAlShBBCCJEnSZAihBBCiDxJghQhhBBC5EkSpAghhBAiT5IgRQghhBB5kgQpQgghhMiTdKVLl1bWHwohhBBC/K/p3N3dJUgRQgghRJ6jK1++vAQpQgghhMhzdBUrVpQgRQghhBB5jq5y5coSpAghhBAiz9FVrVpVghQhhBBC5Dm6GjVqSJAihBBCiDxH3pMihBBCiDxJghQhhBBC5EnyTIoQQggh8iT5dY8QQggh8iR5T4oQQggh8iSdUkqCFCGEEELkOfLgrBBCCCHyJAlShBBCCJEnSZAihBBCiDxJghQhhBBC5EkSpAghhBAiT5IgRQghhBB5kgQpQgghhMiTJEgRQgghRJ4kQYoQQggh8iQJUoQQQgiRJ0mQIoQQQog8SYIUIYQQQuRJEqQIIYQQIk+SIEUIIYQQeZIEKUIIIYTIkyRIEUIIIUSeJEGKEEIIIfIkCVKEEEIIkSdJkCKEEEKIPEmCFCGEEELkSRKkCCGEECJPkiBFCCGEEHmSBClCCCGEyJMkSBFCCCFEniRBihBCCCHyJAlShBBCCJEnSZAihBBCiDxJghQhhBBC5EkSpAghhBAiT7KbMmXKFOsPc8sQ4sMvX43gy4VHCEi4wfZFK/GOK0/juqVwsp75mdCIvf4LE4ZMwsu+Na/VLGQ9QxZa7HV+mTCESV72tH61JoV01nNYpMbGkuLsjIP1BCGEeCoGgs+tYtKISfx49D6m8FP8sngjF3TVaFzNDfsss/uzftwAJuxSNG9fB9dcfHU0/TGLt99bhXqlE3VddJCwlzGvfcyJCq/RukJ+shnmcpDKqa/foOeGfLzRoSYFn34FWcuUeSKz3n6PVeoVOtV1eYryaUQcmc20Xy5wcs9x9A2aUj5/CldWj6TXoC9ZciSR6u2aUS7fozWmEnZhNZM++pKFB8IoUesFyjsE4fX9FFbddaNY7A6+HjWFxd6BpAR5s+G3i5gq1qFKEauRX4vgyOxp/HLhJHuO62nQtDz5U66wemQvBn25hCOJ1WnXrBzpm81GSugfrJkyggnfb+Rm0fa0rZIPgNRz8+g7dBo/HYuibLViRO38hpET5uPln0pC4Bm2LZrNfl6mecErrJo0gkk/HuW+KZxTvyxm4wUd1RpXwy1LR/oLUmOJTXHGOccToCGHdv/75OJwyJ5z6TpUTPHF62AY5T/4hI9q3mJW//eYfDzVetZnRI9LxcJEHNvLqTtJ1hNt0rtUpHDEMfaeukOSsp6aJvYY0z5bzG2T9QQhhHhazpSp60HCuX0cDPOg64BP6e9+iondujPzko1BxrkMhWPOsO/EbRKyG6Os6Es34JX2LanuZhnCDT5/kNRtOmPbFP2Tg7odZRu2p33zahT+cyvIUiariTR4pT0tq7s9XfmSDjJp4FISW/amYcR39J98hMTbv7M3tg0DupYn8NcvGL3kJub0BRwpWbMM8Wf3sT+sKM0qu2JXqDIvVapA6Sae1GtcmriTezkYVo73hn5GN/vVdG36Ft9fyXzOSjo4iYFLE2nZuyER3/Vn8pFEbv++l9g2A+haPpBfvxjNkpuPt5odp1K1qVT4IZcPbWfu3A0EagDxHPTaz+Vje/GOLolntcrULG/gwj4v7rm9Rvd3+/LZFx0oFpeKc5m6eCScY9/BMDy6DuDT/u6cmtiN7jMvYaMn/UmxHJv2GYufcAI059juf5+n6i826R5FUrq0f5oxm4HUexzatImNc0fznzmHCNHAdG8Hc2ctZ83y+Wy+bILYC6z5bi5zv/2BQyFmMN1jx9xZLF+znPmbL2faCeaQg3w3bipLtvsSoT36NJYLa75j7txv+eFQSOYGM4dw8LtxTF2yHd/HC5B67xCbNm1k7uj/MOdQCFr8WWa/+x7f7vFi6fxdoEVwYtFX/Pf7WXyz4gxRtsothBBP8Pg7po7ChQuhM8cTl2gZi2IvrOG7uXP59odDhJgzzmtjjAK06HOs/m4200Z/zgqfUALOXyIkMY64JA0t4gSrjuqolrSH9Wei0LQwvBd9ydj//szGhR/Tb/AsDoc/HgMtrMbOpAB8r0eQGBuNQcNqbDYScWIpk8ZOZ/Ox3Xzz0eesvW3OuUyZpsVgCDjPpZBE4uKS0J5ijE319eJwkAP589tRIL8j9w97caXce4we9T7dPx3BG6XtcXLKet1el/5fjz6ww87O8mH6KQtnGvTtToPYI8yc68Xjr72p+HodJsghP/ntCpDf8T6Hva5Q7r3RjHq/O5+OeIPS9k7Y2KxN+lKdGfROSZKOrGT1VRNahBc3i75CLXsduizXlBRhO7ZwtFh3Br9TzPJRhll0hQtTSGcmPi6Rx3s0iTvbZzN27FxWrprM0P6fsNwnFmz1JS2CE0snMXb6Zo7t/oaPPl/O2dnv8t63e/BaOp9dd81Z+uYjdlWe3O5/h78epACYgjj+wyh6zbrNi+OX8GUre0JWDafb7JtUa2bPgS8/ZuH5RI7O+g9zT6RSy7MYKVGhbBr+DsvV27xfaDu9/7OJlKOz+M/cE6TW8qRYSszjoEMLZ8PInsyLbEyvlqVQRiyXATcN553lirffL8T23v9hU2T6AoRvGEnPeZE07tWSUpYFQAth1fBuzL5ZjWb2B/jy44Wcz1ePhlWd0ZdsyeBRHQhdN4xuc6NoMbA5EbM6M2xDIIczljvmn4gdhRD/Bqbg4yydNoJ+i6LoMnsFnzd1RIvYxPB3lqPefp9C23vzn8cDl+0xKjWSrSPfZZnxDdrn28/4GQcprbvK6u/XceZhCOuGdWNuVAsGNo9gVudhbIhwwfHuVubOXkfEi/WJ+3US/90clqFUNsbO5DKoSyuYt+EcMeYIq7F5M0VcQtk9bxazNl7HqCWTkvIwhzJZT9uFc2kdV1d/z7ozDwl5ijFWCwkmXLPDTq9Dp9OhIkIITTs7m4OucNO5KyN7lsfuceWyocsctKSxK1WWUk4aEX7XM5yQNUKCw9Hs7NDrdOh0ioiQ0LSgwEzQlZs4dx1Jz/JP3ioAukK0H9GHGsqXX1Ycx/9AOO4dytk4+SrCT81m8NQ9JOBEgfwZ1m8K5vjSaYzot4ioLrNZ8XlTHNMn5qcsl1k1dz4n3AbQw2U3Iz6YxgmDjb6kFcEldDfzZs1i43UjWrKeeg2r4qwvScvBo+hQcEv2fTPN07X7X5e1nf4M+7K0/Gg+m79rxa0ZXXlvnh8l35nCosGF2b/xPLHmZBKT7KjRvDHarpG06XsEx1K+7PcOI+72YQ7Tmt5NXHCo0ZzG2i5GtunLEUePx/dujec5cjoG15IlcCpaihJOAEZ89nsTFnebw4ehde8muCQ96mVGzh85TYxrSUo4FaWUZQHQl+SdKYsYXHg/G8/HYk5OJCnTF4xUTnsdJapwUYraF6JQgUi8D/hSKWO5PZ7ljUAhxL+ZfZmG1E44ycnb4RjdylFUD0af/XiHxXHbMnDRxCXDrWtbY5ThFHsOhuFUoAiNp/kQsukD0KV9BzeexutoFIWLFsW+UCEKRHpz4FwqOh3o3KpTt4orBe01khISM5Qqu7Ez7Sxu9MkyNlsuP+SnzhsfMXHRAgZUPpdDmWyUN/0KhvGpxlhd/vzk1ymUUmhmMxQoZHmuUAtn17xjNFk8j84lrU9jGa+WWChNh529jSjFkEiyEZyLlaBI+hlXR/78+dEphVIals0WwrLZXcw71oTF8zrzeLMa4Tsm0+Pdd3n33R5M3hmRvvpHHBoNZdhL+fBfP4WvI6vzWnHrMgPoKPHix3z7YTOc9YApwy0o+zI0rJ3AyZO3CTe6Ua6o1fI6HTp9WWrUdqdR/ero7p3lTGjxrH1Je7Qr6/DGRxNZtGBAptXk2Dd5Urv/PZ7hVvQUr1OLMroEbt8MJObCembM9qF8R0/c9AoF2LWYzp61I3jhwWqmrw6nQH5FjL4CnT+cwNShLcCuBdP3rGXECw9YPX0F6bdvdQUomF8RFxWDGYVSADoKFcqPitFTofOHTJg6lBZFH/UyHQUK5kfFRRFjBmVZALQYLqyfwWyf8nT0dEOf9rkuvUfrKVasKDqzGZNmICVFh4ubGw4Zy73iWd4LFEL8u+XnxUmL+LReDNs+/5g1gRq6QoXIr2LQV+jMhxOmMrRF0cez2xqj9EVwLWzm6qkTxPLotkUaXTGKFdVhNpvQDCmk6Fxws/FMyKMh0CKnsdPyzb+Q9dgMoHPCyTltrMyxTDlMQ/dUY6xDg+Y0KpiKIUVhNJkp2KAJ9ZzMBKz/gp/s3qRVijdLluwkJOOXTbuSlCyqRxmS076EmgmP1VPcRrvEnzjFRc2drv064Zr+qQMNmjeiYKqBFGXEZC5Igyb1cDIHsP6Ln7B7sxUp3ktYstNyKw70FKz5Ct179qRnz+68+kKBDFtIo69Ir486UzImirLNWlIwa1HSOFCjR09aOUSzf/XmTFPyvziJRZ/WI2bb53y8JjDD7Z7MzJoGjkVwKxiXtS+l0Tk58WhXpgeXkHPf5Ant/jfJtqlyIyX0MufvxKAZb3Fw6fd8MWEbKe0+4fuxbQg6dxK/hw+4eiceO10U131v4r/hG342dqBn+6a0bv0mg0a0xfDLcN4bOZmFh4Ix3d/ANz8b6dCzPU1bt6TSo4DasSkDhr+E4fepfPTFWi4aFJF37tBkwAjaGn5h+HsjmbzwEMHpB4MjTQcM5yXD70z96AvWXjSgIu9wPew+50768fDBVe7E26GLuo6vv4ZH9UrkC/Tix5XnePGj8XTWn2fXrj1cdOjMF8MbEZax3C0rZX06Xwgh0hkI9vXlboKG8cFlzkTU5otFY2gQv50xg2fyR8V+jGhr4Jfh7zFy8kIO3Q3hzv0ktKi73A63MUY9aMjwz9/E6ffPePfDqczbfJoHd+6TpEVyJ7Aqw8d3Rn9+F7v2XMSh8xcMbxzPvcA4VPwD/K8HEJyiiAy4m6F8jjbHzvQva45NGJBpbH5A1J17RGsx+F8NsDy74dgshzJVYWimaRcwPLjD/SSNyDuBVB2e+zFWX+pdxn5ciYBDuzkVUYfPx3WjgO9s+oxYxW/zBtDpjW58czEfmeIP+zr0G92DylfXMnvLcU4d2saRoi1oXzCR+z6+3EtUGP2P8vOKWYxdFUXXZTtZ8E7GB471lHp3LB9XCuDQ7lNE1Pmccd0K4Du7DyNW/ca8AZ14o9s3XMz3+CHg/JVb8XbnznTu/DYtK+dPX5Mh+A+OHz3GCd8Q8nUcwYfDhzGwQSqBZ325l6yRHHiJczfvcPn8HWKUxt2ja1i3cwuLP3yTj/brMQT74ns3Ac34gMtnIqj9xSLGNIhn+5jBzDxldcVGi8LvxH7Wed2iSr+hvFU4KGtfuh3KnXvRaDH+XA2wXCWx96hOpXyBeP24knPWffPxSRXDk9r9b6JT6ZcZnjFzLMFhihJlCpFwP5DU4hVx0ZJQhkgiKImHmyOgkRjqTyilqVyqAKQkkaQMREZASQ+3DPfcAMzEBgWS7FoMuwQoUrIQ9oCWGIp/KJSuXArr+NUcG0RgsivFLAtQyB7MscGEqRKUKZTA/cBUilcsgTMGwu+F4+BejiL2QEokd+/F41KxAm6OkJJkXW4hhPgLtERCLQMXpawGLttjFBjC7vBAK0ml0gWzfLtMibzLvXgXKlawHjez93jsLEbS/Qcc/6oFPe98jt/B/1BObzU2ZyOnMuU07WnH2JSIYOIKlaG4s/WU7Jnjg7gdGE++slUo5/pnvlqmEBEcR6EyxXmKzf5PGH7vR/n3bvOZ73Z65IMS5YvilENfsmYIv0e4gzvlitjn2Df/F/6+IEUIIUTel3qSz1tOJ6LCHa7V/IVjUxrnOtAReUPMum5U7HeHkWfPMLX+v2vvSZAihBD/z5ljArgZmY9KlUv8TS/iFH8fAyHXrxKUCHaF3KlZveS/ah9KkCKEEEKIPCnLrUIhhBBCiLxAghQhhBBC5El/KcGgRSyXNsxg8sKD3I2O4N75I+zeeA5DqyZpPyFOIcx3PV+P/ILvvW6TkvCAP3avYM7maDxfzZxMK/bSOqZPXsrxwHACLnmze88eDtwuSIsGZR6/2S7lJptnLuTAvQdc9fZis088TZpUyXIPLjHwJCsmjGDKYm8CU4Lw3vAbF00VqVOlyD+cRNCA//pxDJiwC9WwCle+GfRUicRymyAxk0RvFv8cQd2GGdrNBoP/esYNmMAu1Zx2qcvonF1ysFwx8cest3lvleKVTnX5U6vIUQqhf6xhyogJfL/xJkXbt8WSqyuVc/P6MnTaTxyLKkudWuVxzfLcWIZ90Lw9dVz16QkldTklRbNqo/Z1XLOJ6lOJjU3BObvsXKl+rBv9JUs2L2X5zcq837ys9RxCCCFssD3m5loS56Z3pM2nV2gxcSoje7/P+33fpUrMbSLSXzHsRMmaVTBf8cLL35VXuvei98jx9KyaQmKGp2GSzk6nU9vR+LX6gi8/7EefgaMY3iqFK36JPJ5NI3j1x3x8oSp9evdiwJD2uIaHWL011qJAuYaUjjvJ3oNhlHtvKJ91s2d116a89f0V/q70h7Y5U6ZwDGf2neC2qfTTJxLLTYLETDRCNs3hyykL2B1jPS0z5zKFiTmzjxO3E9DllBwsV/SUbvAK7VtW/5t+O+9EqdqVKPzwMoe2z2XuhrSXGcUfxGv/ZY7t9Sa6pCflC1ovR+Z9kKAyJZTMMSmaVRtl1/yxx6bx2eLb2b7kL2nX14xaGkqtHh3x9LBZQCGEEDb8pSspWvBPDO25hLCO01nc5wXLz9Z0BalWsxIFixalyKNx3xzEgcWrOFOoPaN6uLB/Wxjt329LMWdHy0t7tBB+GtqDxUGvMWVJX2qlfRN2Lt+Y+u75KVbcJS2aUkQeW8Gshes4ElqI6o1f4bXGHhQsVNDGC9ZM+G2bx8Zr5ej8+fs0dC9P3N45LN+VROPhb1Mt6QJrftzAQe/zJFduhEfkLr5fdow7149z06ERNYsEcmiLF2e9VrHspD31m5XHcHIZ3/6wl0jnBH6fuYy7xZw4s/RH9kY6k/D7TJYFVOfV2mZOLJ7NmpPnOHHVnpr13XG48zvfbwyl8dB+lDm9gI2hjRk6qBW6U4uZveYk505cxb5mfdwzpr02h3Bw3nTWXIol5PxOjqe05KMBLXGLz1zuioWsTq6ma6z/fiWHT53igXtPPmjsii7pDtu//5ZVZ+7zYO9i5v8ehvuLDSljf5vfv99IaON+vMIZvG8bcW/cmPKpPvy8aD07tmzjtltjGpbRc+/QFrzOerFq2Uns6zejYiFF9LmfWbR+B1u23catjhu3DhzhttGdxo3Lk3Qyc93KxB1j8Tc/sv9BFBdXzWbZZReavViRArpYLqz5kQ0HvTmfXJlGHpHs+n4Zx+5c5/hNBxrVLPk4kjbfxy+hCM4XD7DnjiudB7RCv3sP94qmcmT/bSp3+4zObsf44ZvFHE+tRLFrK5j502XyNfakzP20fdCrLueGv8vUk3FgV5iaqX4cuW3EvXEttAPz+XbVGe4/2Mvi+b8T5v4iDUvcT2ujoQxq7UqgVTsUuz6Hbl2ncjIO7Iq9QCPHC2zxOovXqmWctK9Ps7L+rJ86n83XoinQ7mPmdC/JqUz9owwJWfqVM2eX/cieu+Fc+nkOPxxNxT3fab6f8j0HDbVoU7sopnuHMm+nouW13UII8W9i++tjLhl9z+CboKeEu3um2y12lapRycZ9BhXuw/KhvZhxzohDgYKPlzFe4Y9LiehKuOOe6Yq5C9Vf8Mhwy0JPhX5T+aIlnF00nNa1XuTzA9G5G5ztSlG2lBNahB/Xg6yTG67NnPwwxmgjQaKWJcmWMX9hQnfPY9asjVw3aiSnpNhIUBhm8/XFWug6hnWbS1SLgTSPmEXnYRsIS58xuwSJ1om/NmVYo0WC9xEYPp++VZM5vHQ5F1KB/GXh8irmzj+B24AeuOwewQfTTmRYyinH5GBayCqGd5vNzWrNsD/wJR8vPE9q5FZGvrsM4xvtybd/PDMO5kN3dTXfrzvDw5CsdYtwceTu1rnMXhfBi/Xj+HXSf9kcZsqS6Gzt79kkmUyjK9SeEX1qoHx/YcVxfw6Eu9Oh3ONubFfUjlsbvmf1iWhKp/7B0nmb+CMuwx4okDGhZOfH9Y7KZztJV4bLbrbaIV+9hlR11lOy5WBGdXDOmtBLX493OlRBb1eNjl1r8zBL/4jAJUu/yseD3+fy3a8xtH3LjdNzRjL1SnNedznNvK+W42MrcVh2l3GEEOI59peCFJ2rKwX1GgkxcVlOJrboSngycOGPfFTb6rqHzoUiLjqUITHtlkYCd3dP4q1GDWjebwF/RD46yWjEpFRnzP4rnPzpM152uc7Kj8aw5lFazBwZSLRkkqJEwQtWCbTcMic/9HC0kSAxPTPT4yRbLzhgydX0Bh9NXMSCAZVtJM86Z/P2kvGMF0ejClO0qD2FChUg0vsA59JnzCZBoq3EXxlpwWzZeYVE//sUr+WOuvITi7ziAcsrr/Vla1DbvRH1q+u4d/ZM5mVzSA6mL/kOUxYNpvD+jZyPNZOcmITh1B4OhjlRoEhjpvmEsOkD1/TXahtP26qbJS25W/W6VHEtiL2WREJiapZEZ24ezWwnmUznQKOhw3gpnz/rp3xNZPXXyJyrK0NyMV0uuneGvBU2k3RlSE5hqx0y9TxbyeGemMDyHKk2+hU6PS6VXqBCURcK6vPhUaU8boXyoRLjSdA9aTtCCPHvkItRPHuOnu/Tva4DQae98cvwTS4lLJQowz0Orf0N3+jMo6cuf2Pe7fwC9kDqvUOs/c2XaPuGfND3RQoE/8GZu2agIBUblyXl6mXCCtehdqHAtHWZuLdpGb9HFsGzzyx2759KcxJIiLe9rUziT3DqooZ71350KpI1gVam5IcrfHloI0EikDnJluUDnJyc0050thMU2mpkfdFiFNWZMZs0DCkp6FzcMjzLkU2CxOwSf6UxXd1NfPuZfPLBB4xeNJ13XEPYvGg99zM1ixlL/im3jB8+ZiM5mBZzgfUzZuNTviOebnosOc9cKWy+yqkTsWBnl+kBXV2xnOr2iELZTHTWynaSyQz0FXvxUeeSxESVpVlL61du6y0JzRSP/iuLxwkls5eepCvD7TRb7ZApKLKVHC6THPpHln6VDZWb7QghxL9DllPHU3FszBfrVzHMZRuffLqCfSdPcXDrT6w6eA/j5RV82n8A0/c+JOzaOW5GaWhBVzh5M5bCRVzRY+Lyik/pP2A6e+Ptqf3pRrZ8UYodn43jpwOnOXXiBtGFKlGnalFU+rriUbFnWDVtHhsOnuCA1x08/vMl3WNWpU9/JPG+D773ElFGf47+vIJZY1cR1XUZOxe8Q1Fn6wRagdzPlOCqAmFZEiTeJtQqyZYWdYd70Rox/lex5GpytJGgsB7hd+6TpEVx99plbqUlEguoOpzxnfWc37WLPRcd6PzFcJqm/yolmwSJsZ5W5Q5Or68WdZa543/CNzqIGA2M5vJUrawnbv9cpm4PSJvHjxP71+F1qwr9hr6VnvQr6u41Lt/KPjmYFnSOk34PeXD1DvF2OqKu+/Kg4XA+f9OJ3z97lw+nzmPz6euWJGmRdwi0UbfG8fcIjFPEP/DnekAwKSqSgLvJWRKdBYZkk2QSA8F/HOfosRP4huSj44gPGT5sIA1SAznre49kLZnAS+cIMFShUT03Hngt4ru9d0jVIgi4G56W/CyKu7djKJueUPLQ46Rotx9aropYJelqn/CojW4Tfj9rO/hrHlSvlI9Arx9ZeeyyjYReIVy7GYpmDuHGlXiaZukfjUmw7leRdwmM1oi7f5sbNwOI0hJ4cPsafvei0RIecDckIOt2/G1drxNCiOfbM3rjrEZSRCD3IxXFKlSkqDNAKpFBUTiXzZr4L11qJEFRzpTNmMUoJYqAu2Gk5C9G2bLFKWBHpnXZJyRiV9CJhMA7RDp5ULlk/txtK4vMCbSyJLiykSCxhK3MTLZYJc/KXgqRd+8R71KRCjZmtJUg0brcuWPg937lee/2Z/hu70E+SlC+qPWPtjPLnBzMTGxwGKpEGQol3CcwtTgVSzgDBsLuPEArWYnSWXKP51y3jDIlicwxyWQuaQmEhZspVsolm59gWyWUfPRpNkm6HsumHQzh3At3wL1cEXS5SeiV6/6RvdwmDhNCiOfZMwpSRN4Ww7puFel3ZyRnz0zlX5Z/6pn5NyfpEkKI55EEKf8fGEK4fjWIROwo5F6T6iVzvory/9O/O0mXEEI8j3IdpKxfv976IyGEEEKILHr06GH90Z9i/SCBEEIIIUSeIEGKEEIIIfKkXN/uEUIIIYT4J8mVFCGEEELkSRKkCCGEECJPkiBFCCGEEHmSBClCCCGEyJMkSBFCCCFEniRBihBCCCHyJAlShBBCCJEnSZAihBBCiDxJghQhhBBC5EkSpAghhBAiT5IgRQghhBB5kgQpQgghhMiTJEgRQgghRJ4kQYoQQggh8iQJUoQQQgiRJ0mQIoQQQog8SYIUIYQQQuRJuQ5STInRREZEEGH1FxmVQKr1zE9Bi77G7q3HCdGspyRweftGToRmnJBAsN91AmOyzJytxLtH2LT/JibrCVloRF/bzdbjIeR27Vrsfa77BZNgPUH8b2nx3Ny/haMBZuspuZdwme0bT5Cp++Warb7790i4vJ2NJ0Jz0WdTCTqxnh8X/syRewbrif8MW22aGsnd63cI+x8VSQiRt+UySEnhwOcd6D5pAYt+GM/bNarz5vgfWDT/K/q0+5CtSdbz55I5mBOLRzNk4u8EWEcRWhz+f5zgStjjEc1880f69F7GzVyee7TIC2z4cggf/XT5iUGKOfgEi0cPYeLvAU+c1yKVczO68+Gv960n/E0MGP5fD+S5rb9G2JllfD7oczbdyd2etEWL8+ePE1fI0P1yz0bffRqG3FUU0Ijz/4MTV8KeEKSYCfjlY2YFvMjLbgf4sNds6xn+EbbaNGHPGLqMP0h0LkciIcT/MypXDOrE3sMqRimlDAfU8Irl1ZC9BqWUUonH9qojcdbz557x8leqSZ0x6lSK9RRrZhX6+xK1/pbRekKOopd3VKV6blbJ1hOyMKrLXzVRdcacUk8silJKme6ozUt3qCCz9YS/R9T+SWrazifX4t/qqepvuqNmta6mPjxo6aPPlaj9atK0nbnor0/B5K/mtPVUE89bjh2z+R/qtE+Uos7+tFh5R1l/LoQQFnZTpkyZYh24ZGWPR5UKOAOY77Lrh99RnUbyZhV7HMpVoYITpAadZPPG7Rz1DSNfxaqUzJfE3aPbOGtwB98NbPCOpsQL5TBe+Z31v13AWL4W7gV0aBHerNqSStvX7Tm64RBB+StTrYQzaLH4ee3gsn0NKrrqwRTO9avX8bt0m9QS1Sjvak+C/2G2nzdT2nCSNZt8MFawrDOjlIsb+MG/Hv1euMemLT6klkubJzWIk5s3sv2oL2H5KlK1pBMPvVexJbUtr9sfZcOhIPJXrkYJZ0jwP8I2n0Sc7+1m54MS1CvvRNDpg1x6EMKd8HxUrFqSfJk3CxgIOPkbv/5+kgeGWIIiCuIUtINf1noTXbYh7tHerFn9K1ftalO3rDOYwji3dQ1bjtxMr5+FRoT3DHr0/o6LJgf0hStRv0I+ws9tZc2WI9xMLUG18q7YJ/hzePt5zKUNnFyzCR9jBWq5F0AHNtedtU6FMpTdRNjTrD8DLeYaXlu3c8g3GtcqFUi5uJGfc11nA/6Ht3PeXBrDyTVs8jFSoVYZko5Z1b9MHKcy7bt8mcuhYjj1yxqiWw+nY0V7G/vaan6SuH34N3Ydv4J/SApFKpUhf5wfXjsuY1+jIq560GKucnDPUU5fCkbnVhg7LYKr29ay1juasg3difZew+pfr2JXuy5lHa37rnU9bffdMknHmNGjN99dNOGgL0yl+hXIF36OrWu2cORmKiWqlSe9WwCgEevnxY7L9tSo6EqSjXW6OwdzeMV8ftrqQ6jOjMGhAg0qFiL22l42bfbiXJAjHlVLUUCftZ9X0c6z7awBd3zZsMGb6BIvUM54hd/X/8YFY/m0/Z9K0MnNbNx+FN+wDMeCFsM1r61sP+RLtGsVKrk5osVat6kfl2/e48aVIBw9qlLKUgjb/UyL5sLW3/EvWpNyBa17nRDiX8s6ankiqyspSimlkg+qkXXfVstCDMpvVhvl/sEmFXjxZ9W3RmHVYtQiteynZerTVqVVg75fq9kLV6gFgxqqsl3XqHCzUsYrU1UTj9Zq4NiJauKwtsrdrbGaciZJhZ6epzqXS9uOOUBtGDdWrbsRpYIOjVGeHp3Vios+annPqsq12UD19awFalaf2qps940qOmNZlVIxKzupoi0+VPOXrFI/DGqgPHptVnEqWR0cWVe9vSxEGfxmqTbuH6jN8UZ1ZWoT5dF6oBo7caIa1tZduTWeonpj9ZIAAHFvSURBVE4FX1Are1dTLp791ddfDlHdJ3mp5IMjVd23l6kQg5+a1cZdfbA5PvNGzZHqwKQ+6pN1V1Vk+Hk169XiqvHUK8pouqFmNK+ihh8wKKUMau+QSqrNd3eV2Ub9VgVk/Lb7UC3tUFb12ZaslDKrgA3j1Nh1N1RU0CE1xtNDdV5xUZ1f3lNVdW2mBn49Sy2Y1UfVLttdbYxW2bTdH1nqlKHwT7f+jEsGblSjBs5RZ2MM6tKUxqp0tzUqLDW3dX5HLdi1VPWs6qqaDfxazVowS/WpXVZ13xhtVX9b+y5zOZTJX81u8+hKypPnj9/xkeq/OEiZDTfUks++VaeTQ9XpeZ1VufJD1F6DUiruoPqsdS/1S6hJPfytrypfuo0aseKkCr82QzWvMlxZqrZXDanURn131/iX+u7DpR1U2T7bVLJSyhywQY0bu07diApSh8Z4Ko/Oq1TGbmEOPa3mdS6nyg/Zq5Iiz2e7TpVyRo2r11hNvmhUSplV+I5RqttYLxVqCFdHJ7RStT9Yq+6GZ+7n749ZrH7uW0MVbjFKLVr2k1r2aStVukFf9fXshWrFgkGqYdmuak242faxYA5UG0cNVHPOxijDpSmqceluak1IcKY2NYfvUKO6jVVeoQYVfnSCalX7A7X2bnj2/czoo2a++bKa6J2r65xCiH+JZ3Mn2KES70waTbuks5wL1UgNC8e+dhfaVXeibIs+DOo7gJHvVCfOuQkjPhrAsCGvUfzeTYLS7k3rXJswaOpUpi7azo9vh7FuvQ9FPN+keQU7AMy31rHkdAqGszs5eN+DN94qh9lYh7daV6ZAtTf5bPQIRg3rgFvALUKyPK+iw7F8OwYP6cegvm0o5H+TILMDld6ZxOh2SZw9F4qWGkZovAbocG0yiKlTp7Jo+4+8HbaOjbdr0rlNNZwqvcbH05aw/qtXcaj0DpNGtyPp7DlCtVTCQuMzPRNgvr2crw9VZdB7NXErXofWnu6Wh390Tjg5Pf4W6OTkgC6b+hkjsnmewnyLdUtOk2I4y86D9/F44y3KmY00eKs1lQtU483PRjNi1DA6uAVwK8Rsc91mY+0sdfqz63/MxKXlc7hRrzuNXJyo8+l6dnzVnmJ2ua1zeZxKvkHrygWo9uZnjB4ximEd3Ai4FULmXZrdvsvOk+c3G2I4vOBjvtljpvP4QdR0LInnm81J636kXtuHV1QZqhaxo2jrVtRKdqXJey9SNJ8Tj6vmhJODDtBT8pn0XTO31i3hdIqBszsPct/jDd4qZyRjt9CX9OTN5hWwA/RuDXKxTsDsx7IZ+yn7RmtKOhXnpdHDqbFvJiseZO4TG2YOpUu76jiVbUGfQX0ZMPIdqsc502TERwwYNoTXit/jZpBm81hIvbScOTfq0b2RC051PmX9jq9oX6J0hjY147dsBvvLvkHrkk4Uf2k0w2vsY+aKB9TJrp/ZN2LM7weY2srRqkJCiH+zZxOkoCPu/M8sPmJPy9ZVyY9CoUOX4aqsnZ0epdJODvZ22KGhHk9Ok59q1TzAZMq0vDkinAhdOdp+0JvefUby1cJ5DGzkiD7DBvT29thrGlrWlT5mb4+d2YRZgS7uPD8vPoJ9y9ZUzQ/Kern81bAURaHT6bCztyftnAW6OM7/vJgj9i1pbWNhk/8t7uFI1uHU9mXq7OpnkzmC8Agd5dp+QO/efRj51ULmDWwEet3jtevtsbfX0DSV7bqz1OmRp1x/hgUJCw0nKirSErAVqkwDDwcStaeps3OGPqPH3t4eTcvaT56476w8aX6XLgv5bWx5ToxtRYP3FnMlCdA9rq9jrTfo4HySbWejiDh7keT2b9MqX7a7E55J3zUTER6BrlxbPujdmz4jv2LhvIFYdwtdxvU8cZ2AKZCAIAOpxrQJ+StQoUQ8kVHmLH0i47qxs0OvVFowbo+dHZZ12zgWzGGhhEdFEWnpCFRu4IFDopahTU0EBgRhSDWm7dv8VKhQgvjIKMxP7GdCiP9P/kSQolBKyzTQp56cxxdeZejV50UKG5IwamaSk3P7C4WM4rhyQ+PlTp44ZfjUvnpDql2dz6eLfYgypRC4cwFrfU1kOXvZYn1GAkg9ybwvvCjTqw8vFjaQZNQwJydnnifuCje0l+nkaSnJ47WkcnLeF3iV6UWfFwtjSDKimZPJWF37StVwv7qZFSej0LRogkLi0pbPRz7HRKKjUsEUwt0HCaSmpmKXXf3S6dHpzZhMGgnJZWlY7SrzP12MT5SJlMCdLFjrm6mEGWXbdtktYV/9qdb/mAO1PWtyZ+VXrLqSgDnah+UrDhHzlHW2vZUM9Y888OR9R4b9/sR9rRG+24uwt2ax68JhhqasYb1PSobpQL7yeHZ+izoxxzjlOJRf1/WzXBHIlw/HxGgsVbvLg4RUUlMz1yDb9rddUfQ6PWaTCS0hmbINq3F1/qcs9onClBLIzgVrydQtrGWzzkzHrEMDWjcxcGzfeQwAqWE8zPcyHbP089ywfSyYqnhS885Kvlp1hQRzND7LV3AoJuNyDjRo3QTDsX2ctxSCsIf5eLmjJ07ZlsDA3TNnuPtnf0kohHguPV2QYg7h3JbtnAuL4I+dmzkXbBkx7au2olXySvp0HcEPNx0pEbiPlb/+ylG/BPyO7uPanfPsPRtA1LWjeN+8zem9f/DgwR94+YShL92Gd+vdYN6Yacz5di5XXl7EzNcKEHVlH6fvPuTqkRM8cOnBnMWdiZnzKpU8mvDx1fp0LH+TPSduE3vtKAeu+XFq/wWCA8+y93xYenG12KvsOnaLOL/jHLh6gzMHLxIaeI59l4vQqlUyK/t0ZcQPN3EsEci+tWcp3eZd6t2Yx5hpc/h27hVeXjSTV81X2HnsJjEX97D1UhQa9lRt1YrklX3oOuIHbjqWIHDfWk5bvjYCYFdtCLMmlOW3dxvQrMd8ruvTHjDVF+XV91pwftzLdP7PFh66lSbl1gHOa+9nrV/djE9IFqBe00qcmjGIH32ceX/OYjrHzOHVSh40+fgq9TuW59qeE9yOvcbRA9fwO7WfC8GBnN17noiiWduuQ7kbVnXKQF+cHk+x/sc/J9VTtu9cfuwYytRW5aj05lLyvd4RD/vc17mV/X5O3I7l2tEDXPM7xf4LwQSe3cv/tXfeYVFc3R//sqwUK2IsSCeCRmwoklgIaH4mUaMRNUajYozEEstrL4kSNSYawRLbq8EWO3YUCwgqFkBABKSrIAjSpKNsmzm/PxZlyyxNVMw7n+fJ8xj2zr3nnnPumbszs/ONzNGvnH9kO/RTi12owgRYFMb5IzQ1FzEBN5AqseaItWJ7gMk8gRXT3LH92E2I+87CJPvniPULReqzOFy/nQ427ya8/7sZv638A+t+nYVx38zA9pBCoNUgjOkXiaWfueA/p57B0EiMBwFhSIype+426f4xrELWwm1HBPS+3YCdLkXYMMgKpg5zEddjKBTTgi2IhV9oKp7FXcft2CgNfT5A0hUfhKSn4ubJc7ibZYixm3ZhSOxyTFy4BuvW3UGPjb/jC1LJ87IkXAhKQllSEPziHyHychjSCuIRdCMZD0Mv425GBu76R3GuhTC9idi0YyiyVzvCzGoY/tb/EkONixR8moE2Yzdh15BYLJ+4EGvWrcOdHhvx+2BozjNRGLa5uWLDbZUNJA8Pz78aLSKuSw089YcM4T87YLb+QdxaYQulH2fwvBdI4g9g453OGO/cFEVFpSjJvYcDAY2x3mMCWqg25uHh4eGpN2p3JYWnDrBgGAYsU9XDnTwNFzFu7fgTp8IT8LhcH4atmgFFZbAd4ISmqk15eHh4eOoV/krKG0b25Bb+3uqFcGF/TJs9BZ8Y8fvC9w226D7O7D4Av/u5YFtaw2nsj/juk7bqDx3z8PDw8NQr/CaFh4eHh4eHp0HCf63n4eHh4eHhaZDwmxQeHh4eHh6eBgm/SeHh4eHh4eFpkPCbFB4eHh4eHp4GCb9J4eHh4eHh4WmQ8JsUHh4eHh4engYJv0nh4eHh4eHhaZDwmxQeHh4eHh6eBgm/SeHh4eHh4eFpkPCbFB4eHh4eHp4GCb9J4eHh4eHh4WmQ8JsUHh4eHh4engYJv0nh4eHh4eHhaZDwmxQeHh4eHh6eBgm/SeHh4eHh4eFpkPCbFB4eHh4eHp4Gyb9kk8JCJmNV/6gOW4rkK6cQlMaoftKgKLvvA+/b2ajBjDhhi+Jx0ScEuXXtQIGa2FIW54vj1bSpljrGpib28bwflD1NQkJ6Ud1iyRYh/qIPQuoj6auj7CmSEtJR9BaGqheqW1vPU3H9+BUky1Q/+HdRn3WxOuptLJXYvd16x6I0+QpOBaVBQ+a8Ff4VmxQ23QvfTz+OvCojxyLnjhcWuy3G8UcNeTWyKEm5i9uxOXVLRFkaAtdNxcTVl5FVpw4UqYktLIofhuHG/ddZOHWNTU3skyMSiVT/xPO6iESoN68yydjhOhFeyXUphzKkBa7D1Imrcfn1k74aGCTvcMVEr+R3WrhrTjVri83HvWPLMXXmftzn+PjtIkKtl2lNc7Be62I11NtYqrGreb3jpKa+qoDNuQOvxW5YfPwR3mVq/As2KTLc/2cffE78jSOPqyobArR1GIH+lkLVDxoYArT/ejW2TOuOOlkqNIeTS3+Y1ktka2KLAMZfr8a26T2qaFMddY1NTewDUBiAtZ6BtVqgPNVRiIC1ngisJ6eyz5Jg4HYE6/+vVR2KkhDmTi7oXz9JXzXsMyQZuOHI+v9Dq7cw3OtTzdoStILdqIGw0fDx26QwYC08a5VQtcjBeq2L1VBvY6nGrob1jpNa+KoCQVsHjOhvWYex6hftlStXrlT945uFRX7Yfqz7Yyd8YhlY9uyEDxqptqkFzwOx1fcDDNA7gUO5g/DjwPaaixwVIeTgIRQ6zcBQSyEkmcE46e2DoKgc6Ftao62+luoRAKChHYuiuEBcCgpFzFMtGDbXBoSNoSuUISf8NA6duo5kSRvYmBtAWJaCaz6RYIxECD50HBFSC9iaNIEW5JcF/U/74GpUIQw6WMFQh0Vxkj/O3xeik6UBBJJMBJ/0hk9QFHL0LWHdVh/cVgLFCRfhffIqEnNTcCuyGUa6DUA7AYc9SkexyAs7Cq+DFxCWrgMLWyPIEs5h/9F7oA4foemTK5W2QILM4JPw9glCVI4+LK3bQl+LRenDq/CNEaCjhQEE4BrvBR5eO4MLt2KRkiVGS6v2aKo6CZXYgLMfVZR99SLlGnwiGRiJgnHoeASkFrZo/+Im1o6biI3RMjQSNIdVDws0Y3IQfvoQTl1PhqSNDcwNREi5fhYRz/Xw+KIvMtp0hbl+rkobIfDiIa6duYBbsSnIErdEh/ZNNeQGB2wR4v1Pw+dqFAoNOsDKUEeeQ/GXcfykP8IzdWBq3Q5NBEAZxzxMmlTkHEd7+d/9cdrnKqIKDdDByhA6AGQ54Th96BSuJ0vQxsYcBsIy9Xk2U7WXK8YqTdg83Fg7DhM3RkPWSIDmVh3A3vVR6teoJETJL63LwnHU6yAuhKVDx8IWRrIEnNt/FPeoA7oa6yA3IQ4JSTF4WJucAYDiBFz0PomriblIuRWJZiPdMKCdgGPuqgdWIEpD8JkTOBecAVFxJvKa6iLz/EEcvlEI454mKLxxCP+ciIN2l24w1gNkuQmIS0hCzMOq+lW2vYV+Ji4cPIwbhcboaVKIG4f+wYk4bXTpZgw91dhZiBHtfYB7fFkKrp+NwHO9x7jom4E2XVsj57qKj6Qc9UJtbakgjsax7Sno/v1HeHz8FCIkZhX1qQa5UIF6HavI+cvHcdI/HJk6prBu1wQClCHlmg8iGSOIgg/heIQUFrbt8eLmWoybuBHRskYQNLdCB/YufCKeQ+/xRfhmtEF3oxLlebUuw02lHOyB9io593ItctdFTWuJA661q6Euc49VUz9yrGOl2AmUzw1cNZLrXNP+hZqvLLjqmxqEopCDOFTohBlD5ZsVtigel4+fhH94JnRMrdGuiUAt3zWu1bpCbxlZ/AZyaq5FAAha2mTieoqeMaqtagpDWQfm0jL/Uso/Po6MzH+ki6WqbRSQpZCnsw39FCgiKg+k2d2+Jq8sESV5OJPJ+JPEeaiGdiWBC8hpwkHKlj2jM5PMych5Fu0JzqO0Y0tpyZFEKsi8SovsTcllTzRF7v6OrA0+oSlrPGirhyt1MR5L3oVETLo3zZmygcKKRBSzsjcZjT5EWU9DabOLGZlPvUwiKqfA2d3oa68sEiV5kLPJeDrJaSRR4dVl5DLtKKWUF1DwCgdqbudOUVJG3Z59aaqHEjFp5PVVW3L0eEQyImIy99EKzygqz1a0hag8cDZ1+9qLskRJ5OFsQuNPlhKTG0bbRllUtOEer/T8TJq8M5MYUSLtWvAnhYpVDVCJjYZ+VGEU7HuRH0m7v7Mmg0+m0BqPreTh2oWMx3pTIRE9+3swGbuepXKSz/XY0iV0JLGAMq8uInvTEbT14m6aaNOC7CevoeVTx5L75TiVNi60L62Yzs+cTDszGRIl7qIFf4ZqzA01mHTynjOFNoQVkShmJfU2Gk2HcqSUe34OjV7iT9miXAr6xZG6jD9Mqbma5sFwtk+TMZTuPYembAijIlEMrextRKMP5RCTdoyWLjlCiQWZdHWRPZm67KHou3uV5+lfomopZ4w5efY3DTZ2pbPlDOXfU+nX9zyHXxhK8/qK2jp60CN5ktG+FZ4UJeaOdY1ypvAqLXOZRkdTyqkgeAU5NLcj9ygpx9z3URpHjWHyA8jddR4dicun3EgPGtS6N62OlZIscS317TCDAkREJLpMU62caWMqU+N+1W2XUeLavtRhRgDJu5xKVs4bKZXhjh3n+I/y6N7eiWTTwp4mr1lOU8e6k4+36jga6oXS2uKgaC991aof/bRlF+3b7kZ2phPoZEnNc4GrjuVIc+n8nNG0xD+bRLlB9ItjFxp/OJVyI3fTd9YG9MmUNeSx1YNcuxjTWO9CInpGfw82Jtez5cTk36O9E22ohf1kWrN8Ko119+We16sc1FynNdVF7rWkOjNNa/c5pz3cY9XUj9y5oBg7xXrHWWurONco+UqtBrrQPq5EJhmleDqTzU+BJCIiJvc8zRm9hPyzRZQb9As5dhlPh9NkHPmu2s/roWnv+MYoDbmK0FKS/w8xyLp5FTFS1VY1hEnCkdA2GDOgKQyHTcXoRmfgdaqG9+saWWGE+0IMfBGG8GwWkpxslHIdyNlOgng/fxS0t0ZL7VZwcrRFuYEDxjjk48iuUIhFYfANfALTIcNhxkhhN9wJHzaxwbAFCzFrznQMNkzDgywxYnZvQGL3sejVQhdd5x/F+VWfo42RPYb1tYC2fHBYjXDHwoEvEBaeDVaSg2wuI5kU7FtzAZYTRsJSryV6fTUQltoAmAfq9kjzVI8GBGYYN8cFOcf2I0bGIPl8Njp91xV6bRVtARpZjYD7woF4ERaObFaCnOxSoHUvDOtvKW+jYTxGVIRrW+di3SUGLsvc0Jlr066Ihn5UESjYJzC0w3CnD9HEZhgWLJyFOdMHwzDtAbJU7gAyD45gV6gYojBfBD4xxZDh5tBtMwzONrqw+mIuftt1FO4W51TamEGaJ4ao6Bq2zl2HS4wLlrl11pAbyuMBgCxmNzYkdsfYXi2g23U+jp5fhc9bPoDX2iswHuKEtrqt8enCGejktx57Mrpyz0OSxNneKzISuzckovvYXmih2xXzj57Hqs9b4sGRXQgVixDmG4gnpkMw3IyBtIuL0jxXDWqmaipnjDmmpIAAhj1U+v2yC4dfBDAbNwcuOcewP0YGJvk8sjt9h67a3LGuPmcYpOxbgwuWEzDSUg8te32FgfKk55i7FHlqN9UZPNy9Blet3TCmsyFad3WCvYm8HGrp6kL31TdBXeg20qpFv+CwXQu6urqVV0B1ddFIC4AshiN2H3CPLzBEDxdn2Oha4Yu5v2HX0VVwEqiOU8N6wYGWjjkG/jgV37tNgnOzFCRnMjXMBRlnHWv5wAtrrxhjiFNb6Lb+FAtndILf+j3I6DocTh82gc2wBVg4aw6mDzZE2oMsped7BIY94OJsA12rLzD3t104uurL6ufFtRalmuqihrUUox5MzrX7ga66PUUPuceq6ZrSkAuKKNY7zhqp8VyjXATVa6AZpFyJrASDJK+1uGI8BE5tddH604WY0ckP671iIFbLd9VjX4+3vklp2usTdNN7uQIFaNWrDzrX8XaPKPgwIiSEK5s84LE1HIZ2rRG4+yAeVvVoyiu0UBJ5ADuvC9HfyRqNQajYOqnA1U4HtkMGQy/4LMIK8hAWXY7Pv3aEPpOH3DwtmA0Yj4kTXTF71TZsntILEGhVFiiBEEIhC5aVISc7FwUF+fKEbfYh7Ewb4TkLaGlVXivTKonEgZ3XIezvBOvGAHEZKUtGwkMG2hXJIdCqGE+TPRw0GTAD3wmOYeelIFwq6Y5hRhUFW8EWaJUg8sBOXBf2h5OCMa/aaBivxchtOLPEHLeXOMJuzE7EvqjskhMN/XChaJ9A8d9CIYQsC1bFX0xeLvK0zDBg/ERMdJ2NVds2Y0ovXWhpaUMolFcV7jatMXLbGSwxv40ljnYYszNWQ26ow+RkI7egAPnyQONDO1M0Kn6MtEwRJNKKIxpbwKJNKfILGO55SNO52z/LQnZuAQrknaPZh3YwbVSCvNw8aJkNwPiJE+E6exW2bZ6CXjpaSvPkREOMq0a1Xw1+aTIAM74T4NjOSwi6VILuw4wg0BDr6nNGhuSEh2Aqkx5ytzEa5q5yOGRIefAY0FH7ANz3U2vaLzht5+4yhyN2zzU0BqClBS1tIV66mXOcmtSLKhFCqM1AxlANc4HhrGPFj9OQKZKgMl0t0KY0HwWMoCJOACCAUCgEy7Jq60ZLSwvaQuGrL0jVz4sj5zTVRZmGtVSgfuLgXLvPWXV7pBrGQg3XlKZcUKG6Wst9rlEej7u+cSSyEjKkp2VCJJFWxKoxLCzaoDS/AE058rA+eeubFGH3pTjp44GZ48bAdcluXPh7HNrWxQo2F2dPSzDO42csWrQIixYtgvumuegXtxd/h1bxdFBFgkiCN+Nn//aY4NoHzUUvIGUZlJerH6epnb65PVyGd0XRzRDoTDuBI99bQFvYET1t4rBl/k5EFMggTvfF1sNRgNoSBIBG6GLfGY/2rsK+2DIwhRHYvecqihSbSIKx+Wd/tJ/gij7NRXghZcGUlyu2kCPsCNsPM+F38g6KAbCMDDKpBGKN9nAg7IIf3KxxYZ4nZM6fQf07tgTBm3+Gf/sJcO3THKIXUrBMOZRcxjleJHIv+iNnuAcu3LuGaeJDOBohVjhIgZeLl7MfDXYrwuVmAAItARiZDGxZKUQde8Imbgvm74xAgUyMdN+tOBwlUzpYyNUm8iku+udguMcF3Ls2DeJDRzXmhiqNutij86O9WLUvFmVMISJ278HV53ZwchDhpl+k/IFeSQ6e6X+Gofa63PNopKH9Jz1h3/kR9q7ah9gyBoURu7Hnahk69rRB3Jb52BlRAJk4Hb5bDyNKBs1OAmoW45cItCBgZJCxZSgtg1K/mv0iRJcf3GB9YR48Zc74rJmmWNckZ4ToaPshMv1O4o486SGTSSERC6uYu/LxVjYmiDu5B8EFLNjCTGSVVMxBXx86zwtRIAFkWanIKJNAItGuYb8sp+36+jp4XlgACWTISs1AmUQCibALR+yKNIxfYdsrN3OME3Jdc73gOjG+gmtzXdNc4K5jz+2c4CC6Cb9I+QGSnGfQ/2woNKU3IICWgIFMxqJMnlCV7TTVQYUczA/gyDmpBXdd1LSW7HUV7JHDuXZzOeyRmnOPVVM/NtKQC9AQO851o+lco7xey4056pt6IlfwMjcawc7JAaKbfpCHVIKcZ/r4bGhPFKvmodpafT3qsj14TYQwG7QA24544591k2Hfsg4msHkI2/UfrLpegOLHeRWXzlg8eyqCXpMH8Jq7AIeiClQuqbEojPNHaGouYgJu4ImxIxzL98J11CxsT9ZBm3Q/HA7NVzoCAITWXO3ykHfTG//d/BtW/rEOv84ah29mbEdIcSuM27ATLkUbMMjKFA5z49BjqDniL93Gw+J4BAXEIynkCu49TUfY5SgIJ27CjqHZWO1oBqthf0P/y6EwLoqFX2gqnsVdx+2n5nB0LMde11GYtT0ZOm3S4Xc4VNVEQNsS07Z4wi5oCpyH/oiVJ5IhYNMQdEfKYU831aMrEMD02+n42uFzuPSU76rZAgVb0llYOzqifK8rRs3ajmSdNkj3O4zQip2/lpYAELTmHI/JPIEV09yx/dhNiPvOwiQH1WKgHJtUEXc/qijZFxuFS7cfojg+CAHxSQi5cg9P08NwOTIHTbp/DKuQtXDbEYbnrcZhw04XFG0YBCtTB8yN64b+gsu4mVyE6EunEVPAQtBatU0PDO2mhcwTKzDNfTuO3RSj76xJGnJDPYcExpOwacdQZK92hJnVMPyt/yWGmrfD2E27MCR2OSYuXIN16+6gx8bfMRjx3POIIu72LY0xadMODM1eDUczKwz7Wx9fDjVH63EbsNOlCBsGWcHUYS7iegyGWaKv0jzVEVYZYyWadMfHViFY67YNV8PPKfVblV8Ept9i+tcO+NylJ3SA18gZbVhO2wJPuyBMcR6KH1eeQLKARVrQHUjHqM59KLqpXYLWhs1UD/xifAbf2H2CcVsSIGgi/w4qaDUIY/pFYulnLvjPqWcwNBLjQUAk2G9r0i84bNdHq0Fj0C9yKT5z+Q9OPTOEkfgBAiKFHLEz5R7f/xqun7uJ5KJoXDodgwKWY5w+thz1Ilh5bal+y2WLEXfhJh6UJOFWQBwS7wQiOjsd4X730bJfTXJBAONJ6nXMvN1YbNo1BLHLJ2LhmnVYd6cHNv4+GIi/hNsPixEfFID4pBBcufcU6WGXEZmjj+4fWyFkrRu2XQ3HuZvJKIq+hNMxBWCF1hzzClXIwR2IbNdPPefCm2moizLutdRCZWqa1q5lR3V7jmVzjxWSW7M1JeBax8ZKsXuUoVDvMlpwrBtN55pI5OhX+ipC71uO+qaeyGxhHPxDU5EbE4AbqSK0GbsJu4bEYvnEhVizbh3u9NiI3we3UM9DtbX6emgRcW3TeKpGgvgDG3Gn83g4Ny1CUWkJcu8dQEDj9fCYwJHp/2pYPPnrcwx5shp3PfvKTzw8PO8bsnD87DAb+gdvYYWtesHm4eF5N9ThMgYPxLew489TCE94jHJ9Q7RqBhSV2WKAU1PVlv9iWGRd24v9t7JRUNIcjgO78hsUnvcXlgHDsGBULxTw8PC8U/hNSl3QdcaaY0thFXMQf7r/io0nU2A+fiaGmFbxQOK/EUku7hzYjIAuq/DnEPWnWHh43g9keBIWCephC0loxGu+JZSHh6c+4W/38PDw8PDw8DRI+CspryjDfR9v3M6u4mtU2X34eN9GVU1qQ72JUNWYtygYVZ2oWQX1Ik741oW3eHh4eHjeBvwm5SVsCVLu3kZsjubTHFuSgru3Y1FFk5pTbyJUNeftCUapCmNpoj7ECQG8ZeEtHh4eHp63A3+75x0iubMUDrN08U/IKnR/Kz8oYJDi+RkGp7ojZvtA1O8PxVRgUuD52WCkusdg+8A3OtJrUoiAX7dDvGw5huqpfsbDw8PD8y55BwKD9QWXqBG34NIrUa5zsciMvYTTF8OQrmMBWyMZEs7tx9F7hA4fNcWTK+dxX9gJlgYCTlEptjgJ/ufvQ9jJEvImdRNb4hah4rD95QFsHsKOeuHgBRW77+ahJNYfp25yiJHpcQnMqQpGVS2yxWbfxj+7jsAvMgtNP/wI7ZgknN97EKESS/QwU/glE5fYlqqoGafYmIo4IVc/z1MRdDYMIhMg6tgx3Chsg4/MpIg9dxRn7klhbmuCJloqooyvI7zVpJjDTh4eHh6ed8F7W3/LfBfjj+T+GD+mB/ICApEmY5HuvQKbHnbFt6M/QtR8R4zbG4OoEysxberP2HDsOkL87kLYsylubz6Jpx98AIGgOQwKn0LauStkd/dj2dRFOJYkA9gnOD5vIS4bDsXEPilY5vg9DmdnIXz/MkxddAxJMoDN88W8Hw9A+MUPGGMTgTkDJ+FIOsNhl7LdRdd+xuS/SvDp5DGwyoiG/JENDtv3p1ceJGgN+/4cdnf5DAN7lcJnkw8eyfRg2ccICTt341YhCzbdGys2PUTXb0fjo6j5cBy3H+lK90JY5PnOw48HhPjihzGwiZiDgZOOIF3hERJBO3v0kl7AJv9StG8pAJq0QE5SPqzs2in0I8LVhUOwvnQYfhxUiI1DZuOM/IWRlbB58J33Iw4Iv8APY2wQMWcgJh1JhzTvLg4sdcOCo0mQcfVTUoiY06sw/cff8N+j15Epe4S9410wbd0B3C4QIdJzFH46mgdZTjj2L5uKRceSIOPy5d4Y3PNegWlTl2Pdfy/icXEY1o7+D06WtMan075Bt6YfYdh/psC5XT6nnVU/VcPDw8PD86Z4bzcpaiJeWtyCS6qiXF90Hoc5Ljk4tj8GMiYZ57M74buuemhrPwx9LeQ/IeYUlWpjBPthfSFvUkexpdcQAhSYcdmtwy1GVhMxtBqJbOmi64zFGJq4F3sSGTCpp/HA/Dv0bazQpAYiiEwSl9iYF2JbKogTcvXzvAW6jRyIjrrG6Ofqhkk/zMaIjiXQc5iFmT9Mx9QvWuNxciZQX8JbGuzk0B3j4eHh4XkLvLebFDVxrVINgksqolxAEwyY8R0Ex3biUtAllHQfBrmW3kuBMs2iUnglGlVHsSVNgleaxKKU0GA3pxhZDcTQaiqy1WIw5k6UYf+mCwg+mQ7rUZ1eiX69RE1sS+UpJ1m6JrGxGogpKgp1QRvaAgJV7IGE2tp4qSBYH8JbVdnJw8PDw/P2eU83KRziWlEWGgSX1DWXhF1+gJv1BczzlMH5M/WXkHGKSikp/9VRbOk1hQA57eYUI6tKDK1CMKrGIltC2E6djW7+czH/aS+4mKmkjCbxL1QKYzWqQmysRv3UBo2+1PB8uILwlshGk50sCuJDcP/t/Vach4eHh+f93aRwiGt9YqIuuDTYDLG+yqJcAACBKb6d/jUcPneBXEuPRUGsH0JTnyHu+m1ktOYQlTIuQqxfKFKfxeH67Yy6iS29rhCgmt21E0PrUqogGJXWtOYiW21HYfZoKzgMGYpWqh9yin8pi5qlNeUWG3s5lJaWQEM/15B0IQhJZUkI8ovHo8jLCEsrQHzQDSQ/DMXluxnIuOuPsMSYehLeGsNtJ/sExxePx7LTT1Qmz8PDw8PzJuF/gsxTPWwOjqz8B9bLF6N3vQr08OKEPDw8PDyaeW+vpPC8BZgkeP+6BCt/dUdEh29fXb15fXhxQh4eHh6e6uE3KTxV0AjaTAlemE7GLxPM1R6YfS14cUIeHh4enmrgb/fw8PDw8PDwNEj4Kyk8PDw8PDw8DRJ+k8LDw8PDw8PTIPmXbFJYyGRVv8OCLU3GlVNBFa+hr47nSL1+HFeS39KrRtkixF/0QQj/Ho56hEVp8hWcCkp7vdfas6VIvnIKQTVLHLX2Zfd94H37dVWe3wH1kJO1W3PKvD2/vWaelN2Hj/dtZL8hQ9mieFz0CUGNwlDbXH2DvE7s3xWSzNs4umMbDlx//OZU0RtQjDh5w/lcF/4VmxQ23QvfTz+OPE2OZXNwx2sx3BYfx6Nq9x0s8u8dw/KpM7H/frWN6wEZ0gLXYerE1bicpWkCPLWFzbkDr8VuWHz8EeoeRRY5d7yw2G0xjlefOBztWZSk3MXt2Jy6nWxFojdXLKukHnKyVmtOldf0Wy143TxhS1Jw93Ysct6EobI0BK6biomrL6P6MKjm3jvktWL/bmDSDmKuRxr6fGaIgJ8mwDPuTRjegGKkgTeaz3XkX7BJkeH+P/vgc+JvHHmsYXcqaAuHEf1hqaijoxEBWtmNwkCbGjWuB4Qwd3JBf9N/QSgaEIK2DhjR37JSSbpOCNDWYQT61yxxONoL0P7r1dgyrXsd7ChEwFpPBL6TXUo95GSt1pwqr+O32vG6eSJo/zVWb5mG7nXtoCqE5nBy6Y+ahUE1994hrxX7dwGD9FP7EN78I5h0/A4HYm/gZ9s3YXwDipEG3mg+1xHtlStXrlT945uFRX7Yfqz7Yyd8YhlY9uyEDxqptqkFzwOx1fcDDNA7gUO5g/DjwPacOy8qCsHBQ4VwmjEUlkIJMoNPwtsnCFE5+rC0bgt9JQ0cMaKPbUdK9+/x0ePjOBUhgZmtCZpoQX4Z/PJxnPQPR6aOKazbNYEAZUi5fhYRz/Xw+KIvMtp0hVFJCE56+yAoKgf6ltZoqzyAnOIEXPQ+iauJuUi5FYlmI90woJ0AspxwnD50CteTJWhjYw4DpYRRH8tcPxfhpw/h1PVkSNrYwNxAiBcPr+HMhVuITcmCuKUV2jfV4uhXsa9ziM2MxaXTFxGWrgMLWyPIEs5h/9F7oA62aF2oPp+ylOs4G/Eceo8vwjejDbqbV/yUmM1CuPcBHL5RCOOeJii8cQj/nIiDdpduMJal4JpPJBgjEYIPHUeE1AK2Jk0qdXXYPIQd9cLBC2FI17GArZEMCef24+jdPJTE+uPUTY4+9cAxN0JRyEEcKnTCjKGWEIJFUfxlHD/pj/BMHZhat0MTtUSRISf8NA6duo5kSRvYmBtASEUIOXgIhU4zMFStuLAoivfHaZ+riCo0QAcrQ+gotRegOMkf5+8L0cnSAAKu/ss4/NH+BW6uHYeJG6MhayRAc6sesOCIsaIdpcmBuJSgjSZPfHH4cgp0LG3QpigC3gcO40ahMXqaFOLGoX9wIk4bXboZQ4/LFtQ1JwHIctTsU15zXDGSr6e4wEsICo3BUy1DNNcGhI0b4bmC315oyjNAPQYWYkRryj09rnWvmieAKC0YZ06cQ3CGCMWZeWiqm4nzB7n9qFOcBP/z9yHsZAkDAdcc1ddrTWpDccJFeJ+8isTcFNyKbIaRbgPQTqAhZi9RzVXOWgXO2iCHRV7YUXgdvKBSA+4iryQW/qduotC4J0wKb+DQPycQp90F3eSLr9rYs0XxuHz8JPzDM6Fjao12TQQAXuDhtTO4cCsWKVlitLRqj1emVFCbWGjMaQXU7SBkXtuDLftPIyJbC4yoESysCfd8IvBc7zEu+magTVdz6OeqxrXiXOB/Gj5Xo1Bo0AFWhjrcNUTRAJUYSTKDq84FSSaCT3rDJygKOfqWsG6rD/lpKA6Bl4IQGvMUWobNoQ0hGusKufPvmg8iGSOIgg/heIQUFornMhX7WaV85lovlaax2bfxz64j8IvMQtMPP0I7Jgnn9x5EqMQSPcyaKs7i9aC3jCx+Azk11yIABC1tMnE9Rc8Y1VY1haGsA3NpmX8p5R8fR0bmP9LFUtU2cmQpnuRs8xMFiojKA2dTt6+9KEuURB7OJjT+pOpBRbT3q1bU76cttGvfdnKzM6UJJ0uImFw6P2c0LfHPJlFuEP3i2IXGH06l3Ht7aaJNC7KfvIaWTx1L7r7naXa3r8krS0RJHs5kMv4kqY5AhVdpmcs0OppSTgXBK8ihuR25R0mJSTtGS5ccocSCTLq6yJ5MXfZR2iv/MJSvOtblODq2dAkdSSygzKuLyN7UhfbF+9DMyTspkxFR4q4F9GeomKPfPRR9V70vr6/akqPHI5IREZO5j1Z4RpG4PFBtPsX592jvRBtqYT+Z1iyfSmPd/ZWmJ0tcS307zKAAERGJLtNUK2fa+CiPInd/R9YGn9CUNR601cOVuhiPJe9CpUOJSfOir9o6kscjGRExlLlvBXlGibn7TGU45raP0hgZpXg6k81PgSQihnLPz6HRS/wpW5RLQb84UpfxhylNpjQqpR1bSkuOJFJB5lVaZG9KLvvSiGQp5OlsQz8FihQbExFD6d5zaMqGMCoSxdDK3kY0+lCOUnsmO5Q2u5iR+dTLJOLqf0+0Zn88+5sGG7vS2XIiYtLUY1yZFMRkBZPncBMyHjiVlrm708wBJmTQy51CRTJKXNuXOswIILnLppKV80ZKZThs2ZdWx5zUbJ/imuPuo4QCFzjRhIPZJHt2hiaZG5HzrD10KyH4ld9eVJln3DHQlCfc6145T/ID3Ml13hGKy8+lSI9B1Lr3aoqVavCjNJtCN7uQmflUusw5R441VoPaUHh1GblMO0op5QUUvMKBmtu5U5RUQ8wUUcxVzlqVRrLS82q1QQkmjbsGyBJpbd8ONEPuVLo81YqcN6YSU5PY556nOaOXkH+2iHKDfiHHLuPpcJqMSs/PpMk7M4kRJdKuBX+Ssim1jIWmnFbsUYMdRGK6s7Q79f41mqRMPt3bO5FsWtjT5DXLaepYd7ocpxrXfZQmTSfvOVNoQ1gRiWJWUm+j0XQoR1qtDUox4qiryrlQToGzu9HXXlkkSvIgZ5PxdLKUiEoCaYHTBDqYLaNnZyaRuZEzzdoTTHmpqnbuoeiI3fSdtQF9MmUNeWz1INcuxjTWu5CI4bA/66lSPnOvF0VEFLO2P7UdtodyGCJinpLXf36hG89Vmr0mat8l3zSlIVcRWlrxahZikHXzKmKkqq1qCJOEI6FtMGZAUxgOm4rRjc7A61T197EbWY2A+8KBeBEWjmxWgpzsUvVjtHRgPvBHTP3eDZOcmyElOROSJC+svWKMIU5todv6Uyyc0Ql+6/cgo4sLnG10YfXFXPy26yhWfdkFI9wXYuCLMIRns5DkZKNUaQAGKfvW4ILlBIy01EPLXl9hoKU2AAYPjuxCqFiEMN9APDEdguFmUuS9un0pgGEP5bHcLc5hV6gYojBfBD4xxZDhZpDmPkfRta2Yu+4SGJdlcOusxdEvA6mq3V90xrg5Lsg5th8xMgbJ57PR6buu0GlkpTaf5wY94OJsA12rLzD3t104umqQ4gShpasL3Ve7bl3oNtICBIawG+6ED5vYYNiChZg1ZzoGG6bhQZbybTqB2TjMccnBsf0xkDHJOJ/dCd911eHus1qfyfPEa+0VGA9xQlvd1vh04Qx08lsPrxiFRswDHNkVCrEoDL6BT2A6ZDjMpHkKnaggi8HuDYnoPrYXWuh2xfyj57Hq8w+Umgja2mNYXwv5S/C4+mekNfIH8+CIeowVJiho54Chn5ihWdfxWLlqFbadXI9BT47BO1wKXV3dyqtUurqQu4zDFml2HXOyevs09vEiHn7+BWhv3RLarZzgaFsOA4cx6NfJ4ZXfBIZV5JmGGHDnSQ3WPfMQu9dchbXbGHQ2bI2uTvYwEQCAFrcfBW1hP6wvLOQB5pgjxxqrrjYwKdi35gIsJ4yEpV5L9PpqIORh4IqZ5vxkOGuVF2LEIpXaoHKtQWDGXQO0dKFb6VTo6jaCPJWqj32S11pcMR4Cp7a6aP3pQszo5If1XjEQi4pwbetcrLvEwGWZG5RMqW0sqvWPZjuUng4RGKKHizNsdK3wxdzfsOuoOyzOqcZViqx7u7EhsTvG9moB3a7zcfT8Knze8lE1NqjAUVeVzxONYDXCHQsHvkBYeDZYSQ6yS1lI4v3gX9Ae1i210crJEbblBnAY44D8Y6p2MpB2HQ6nD5vAZtgCLJw1B9MHGyLtQRbEMRz2tzFSyOcarBfoouuMxRiauBd7EhkwqafxwPw79G2s1Oi1Ub0a9sZp2usTdNO7iPByAiBAq1590LmOt3tEwYcRIWkMZpMHrgAwtGuNf3YfxMMJC2FT1etRtUoQeWAniifPhJN1Y0RX8z47oVAbjIyBND0NmSJtSCuaN7awQJvSfBQwWtDS0oZQ+HJQLZREHsDO4smY6WSNxtEVysOvkCE54SGYl9fMBVrQ0gIABnm5edAyG4DxEy0gAOCqtn1SHovJy0WelhkGjJ8IC/kBYMHimzMy/P7LEjjuMMGCEyfwKWe/pYhRshtoMmAGvhOMxs5LzuhU0h1uRgKA4Z6PlpYWtIVC7jfRKlwWVEKgVfmRQAihkAXLqvq/CQbM+A6C0TtxybkTSrq7wUgAsJx9avIZIfVlE1k60jJF0K4MHCzalCK/gKlcAkwecvO0YDZgPCZWOhKgV70ow+QgO7cAgnwWaC9Asw/tYFr0XLUVtOSB1dx/YWS1/uCOsToCQcV3jua26GzGIk9C3GHgtEWMy9PrlpOa7Kt0naY+XqBssB6Wnw1DgdVzRJd/jq8d9QFFv1WVZ5piwDnpGqx7WQoePAasOTQaNHUJrZf5rGmOqmuMey29QpaMhIfMq9tpgpf9c8ZM8UBlZJpqVdOR2HamXKE2+ODnPsqX5jlrAPfiq0HsZUhPy4RIW1oxz8awsGiD0vwCNB25DWfKf8cvSxyxw2QBTvj8jFem1DYW1fpHsx1qTzJqaUFLWwh5yLjjKvabgdwCAeSp1wwf2pmiqPBeNTaoUk0uANAqicSBncWYPNMJ1o2jQQTo2A7BYL3lOBtWAKvn0Sj//Gs46jPI4LATKERkZYGBUCgEy7KQ5WSr2/+cVcjnGqwXAGgxGHMn/o7Rmy6gf4d0WI/rpL5OX5OKqvb2EHZfipM+Hpg5bgxcl+zGhb/HoW1drGBzcfa0BOM8fsaiRYuwaNEiuG+ai35xe/F3KPfThnIfSxC8+Wf4t58A1z7NIXohBcuUo1zlEK54NLJzgoPoJvwi5Y0lOc+g/9lQ2OsCUEgvSfBm/OzfHhNc+6C56AWkLINypQGE6Gj7ITL9TuJOMQCWgUwmhUQsRMeeNojbMh87IwogE6fDd+thRKk9CF45lrBjT9jEbcH8nREokImR7rsVB6+eh3/OcHhcuIdr08Q4dDSqin5VJirsgh/crHFhnidkzp+hWTXz4XCTHH196DwvRIEEkGWlIqNMAomEqjpCCWGXH+BmfQHzPGVw/qziGQTOPrWrnBsBQCM7ODmIcNMvUv5rGUkOnul/hqHywFUM2BE9beKwZf5ORBTIIE73xdbDUfLPOJOhC+w7P8LeVfsQW8agMGI39lwtkn/G1V5j/xxtId8kCBgZZGwZyo3VY3xYLSkIYpFI3ps4HRlsHwy004W+vg6eFxZAAhmyUjNQJpFAos1lS2ydc5IrB1/aJ3eFpj70YW7vguFdi3AzRAfTThzB9y+/xqnA6SVNMeDME3EV674iT4RWsDGJw8k9wShgWRRmZqGkYmBOPyoZpWmO8v5fUtVaknfTEbYfZsLv5B3IwyCDTCqBWGP+qFCRe5pqVc/iiyq1IUKlA+4aAOhDX+c5CuVORWpGGSQSCbSrjX0j2Dk5QHTTD3JTJMh5po/PhvZE8UV/5Az3wIV71zBNfAhHI8QKNtQyFpw5regfTXbYQxcAEYFVXLev/skd17hO9uj8aC9W7YtFGVOIiN17cLWsOhsqqBin2lyQBGPzz/5oP8EVfZqL8ELKgikvB/TNYe8yHF2LbiJEZxpOHPkeFtrcdkbJuNdOoy4c9leULzk1O08CQthOnY1u/nMx/2kvuJjV5WReDar3f94LmFy6s2MsdeoxhQ7eyyX57XGGcsL+IhcTITW3/4kO3suv+DsRMQUUvXM0mbXoT8v8H1LWqalka9qdhs/8jdZMsqMOg1dRQMbL1gwVxR6m7zs2oV5zz1Nswg1a83lrMhq2gcJypJRxbjENHjiaFvy2ln5ZupmCcqVUeP8QTe6oR7ZTDlN0PkNM1imaamtK3YfPpN/WTCK7DoNpVUDGS2vklN+n3ZPsybrHEHJbNp++7taVxq2/QZniVDo9bwBZGbSgdt1caN0NhXkQozYWkYxST8+jAVYG1KJdN3JZd4PyMnbS6N7f0opte2jbL4toe8RzIplqv3mUr9ZXBUXn6Kdxm+hBxTMbXPP59WwAHZrckfRsp9DhaEUbK5A9pD3f2JBV7xH0k+d6mmJvT1O2B1DQP65k3dSe5p2Po8Qbv9OXbY3oK887lK3WAVHRuZ9o3KYH9OrREc4+Qylbojq3fJIWRNPO0WbUov8y8k95TkzGOVo8eCCNXvAbrf1lKW0Oepk3lchST9O8AVZk0KIddXNZRzfypVQQvZNGm7Wg/sv8KUXlXqs46SjN6GdCBi3NqN+PByhBxCi1f/gkiv472oya91tKgWlijv4LKO6gBn+Uh9HqvpbUa9yfFPBUohZjxXARySjhj0+ode8ptGbzZvpj3nT61TeTGCKSPdxD39hYUe8RP5Hn+ilkbz+Ftodmc9jC1DEn5eOr2SdVXHMpHPmXTwyTRQdGmVL7Tr3IoY8jOQ9yoenbgulZXqXfrsREVpln6jHQlCfBFHNCfd37x95TypOiEE8a0bEtmfUeQ8v/+IG6fbyaYqUa/BicQFH/HU1mzfvR0sA0jjmqrzGutaRaG8rv76ZJ9tbUY4gbLZv/NXXrOo7W38jkjtkrlHMv5TnDUasYYp5y1AYuVGoAkYwe7vmGbKx604ifPGn9FHuyn7KdQrM5clM19kwGnVs8mAaOXkC/rf2Flm4OolyGoac7R1Pvb1fQtj3b6JdF20nVlFrFQlNOK8JpB1FRoi8t+9SADAcsp1NhcXTv0GTqqGdLUw5Hy9eZWlzziSExJR2dQf1MDKilWT/68UACiThriOYYPXxUTS4wWXRqqi2Zdh9OM39bQ5PsOtDgVQHEZB2gUabtqVMvB+rj6EyDXKbTtuACYjjsLIg7SK7WTcl+3nmKS7xBv3/Zloy+8qQ72eXq9jP5CvmcWs15UpFyCpr/Gf10uUz1g3qB1+7h4XnvYZC49lOMyvsT9zb2f38UpSXxOLDxDjqPd0bToiKUluTi3oEANF7vgQktVBu/fWThP8Nhtj4O3lqBN/KLVJ4aw8eiEkn8AWy80xnjnZuiqKgUJbn3cCCgMdZ7TMA7WTZsDo6s/AfWyxej9xsoPm/g2gwPD8/bhmVYMIza3fUGjfjWDvx5KhwJj8uhb9gKzVCEMtsBcKrHXy++DizDgGGZqh8r4Hkr8LF4iRi3dvyJU+EJeFyuD8NWzYCiMtgOcMJbXzZMErx/XYKVv7ojosO36PkGNih4N+9J4eHhqU8k6cHwCckASwIYWneBZcs3VC3qGaF5X3z6QSr8T5+G77Uo5LToj++nDEB77sdS3i6yJwjxvYOnUoKgfWf0MlF8NwvPW4WPhQJCmPf9FB+k+uP0aV9ci8pBi/7fY8qA9vX+wGq1UAkSr17DY7Pvsez7LvJ3r7wB+Ns9PDw8PDw8PA0S/nYPDw8PDw8PT4OE36TUmDI8TUpAelHN7oq+cRXQ4mTEpan9HqyGlOG+jzduNySpy5e8NRVOEdISHqFM9c9c1IMi8GtTA7+Uxfni+FtRDubh4eF5O/CblBrCJO+A60QvJNdk0/GGVUBlqWfgsTcVzY31AAAiUS03K2wJUu7eRmxVUpfvSIH37alw6sFILw7b155GapUxqgdF4Hqger+wKH4Yhhv3+U0KDw/Pvwf+mZQawSLn/G5c++gHjO1Qs9+/MSme+GxwKtxjtmOgwjvDXhtJNNZN3Isuu/7CVwYACgPw63Yxli0fCvmWpT4oRMCv2yFethxD66/TBkmhzyxMS/wRh5Z01/zTXckdLHWYBd1/QrCqIcmD8vDw8PzLea9/3VMrxUclREgLPoMT54KRISpGZl5T6Gaex8HDNzSofOYiIS4BSTEPORRoATUlVitDCGugusypRsqhKKpI/ol5WJw1Emu+sYZ23g2sHTcRG6NlaAQpSpKu4QyXSrAsBdfPKqh62hrg6ZXzuC/sBEsDgbIdLZrh4dbvlBR421er2lqdwjC3Sm87DiXlrgZPK1U4y1MRdDYMIhMg6tgx3Chsg4/MpIg9dxRn7klh/jK2HD5T7be7UQmnmqi+BcHvPzsgGjMaXVU1J2qhCMwVS652VamesnlhOOp1EBfC0qFjYQsjWQLO7T+Ke9QBtk2fVKNOyqL04VX4xgjQ0cIAAi711DKVPOhqjmaqoeTh4eFpSKi+3e19gVNxVJPio9KB+RTg7krzjsRRfm4keQxqTb1Xx5K0liqfCh1yK7FWp7rMpUZa7Vil5P1tWxq4JePVmzef/T2YjF3PUnkVysPKqp4ryDtwM7mYmdPUyyJuOxQVeKtV6qxeYViTSm/wUxWF2xXelSqcLwoo+sAk6tS8H835rxft95pPjkZ2NGmNJ23bs5XcehrTqEO5nPHZE31XRTnXl1tNlIiIeUwbndrQN0eLKg2mWqpUF6v7kLPd8+p9meb1FbV19CC5AHQm7VvhSVHlymq7XPnE5IbRtlEWFYrLHOqpxerqrv4lSoPz8PDwNDje02dSNCiOalB8VHyMhHm4G2uuWsNtTGcYtu4KJ3sT+YM5dVX51KDEqginmiSjrkZa/ViPkfhQjJYftOR8mIhT/VVN1XM1xjgNQ9+XGikcdihRnVJnDRSGNan0nnjUWVnhdvWYShVOQUt0GzkQHXWN0c/VDZN+mI0RHUug5zALM3+YjqlftMbj5ExIOXzGSLuoKOd+yakmKjeuNdoaivEgIVVBDbWWKtVqyrJcqtNS5GlV40sIYDZuDlxyjmF/jAxM8nlkd/oOXfUU1Xa58wmte2FYf8uKdyVwqKc+N1DJg1UY9L/8ugkeHp73Aq5z3XuAojLlRLjOXoVtm6egl46gQrkVSoqPig/dyFIe4DF0OJ4/4L7urajyOdF1NlZt24wpvRSOrlBiLciXn22afWgH00YqargVapLXhf3hZN1YLjDVYiS2nVkC89tL4Gg3BjtjX1Q/FmSo8qWi3FNQUfUE5ErKFf/ksEOZCqXO60L0d7JG45dibC+pUBiWcCoMK6Oq0iuWkLrCrZIKp8K/oQ1tAYEqTupCbW2AJY0+U+1XriZ6HcL+TngZglc9CwVglRxboVKtXZUisELetVb1YSl3O51qfAkATQZgxncCHNt5CUGXStB9mFHFJlpdnVQpn6CiHMw1X7U84OHh4WnYvKeblNopPioitLKBSdxJ7AkuAMsWIjOrpOKY2qt8AlUosb4Su+RWk3yerq5GWpWaLABAaAZLUy0UF5a8+gWHQEsARiYDW1aKMk711wqPaHAMm6tuh6ICb35ANUqdNVEYBjSq9Mo/qTtV+exVv5rURAEAz1FUQjCxMEPlNaTaqVRHPlX1IbfqdPiNanxZMXaXH9xgfWEePGXOeCkAXQl3Pil1U9V8FZ3NFiA+5D7e5S+reXh4eKriPd2kCNB63AbsdCnChkFWMHWYi7geQ2GefAm3HxYjPigA8UkhuHLvKdLDLiNS4Xeb2jZT4fGLMc58Y4dPxm1BgqCJ/BuqoBUGjemHyKWfweU/p/DM0AjiBwGIZL/Fhp0uKNowCFamDpgb1wNDuyncEhEYY9KmHRiavRqOZlYY9rc+vhzcFHH+oUjNjUHAjSewdnRE+V5XjJq1Hck6bZDudxihz57gxIppcN9+DDfFfTFrkgMErcdVPRYMMPDLj5GbnPTq1kST7h/DKmQt3HaE4XnLQRjTLxJLP3PBf049g6GRGA/8r+H6uZtILorGpdMxKGBZFMT6ITT1GeKu30Z6eaaaHWjSHR9bhWCt2w5EtusHx/K9cB01C9uTddAm3Q+HQ/MrTRK0wdhNuzAkdjkmLlyDdevuoMfG3zFYTemKUBJxDJ5//YW1Ky7AZPU6fK0VC9+bySiKvoTTMQVg2QLE+oUi9Vkcrt9OQNKFICSVJSHILx6PIi8jLK0A8UE3kPwwFJfvZiDjrj9nfAabJSr3K7SGo2M59rqOwqztydBpkw6/w6FysyQJSMzqjS//z1DBVm1YTtsCT7sgTHEeih9XnkCygEVa0B1Ix6jnXTctVR9+wpmfdh85Vu3LCgSm32L61w743KWn/Iqfkl+ecudTxZU8LS0BwDXfgwGI9VXMA4B9chyLxy/D6Sf8LoWHh6dh8j/+E2QZwn92wGz9g7i1wlbhm3QDpvgK/vN9EMYdW4NPVC9WNFgarkqvJGwFxhzsh3+2fvluFETrDRZP/vocQ56sxl3Pvg3Kxzw8PDx15T29klJfyJVjWeY9+ibZYhBWLzbCpYNRUHnypUHTIFV6xfHwvtQGi357nzcoLLKu7cX+W9koKGkOx4Fd+Q0KDw/Pv4b/6U2K7EkYIqkHbCWhiHiHbxOtLS36zMSSgeWIfSxW/ahBIkkPwc0XH8FBGINbKQ1layXG43uF+HjhbPQzUP3sPUOSizsHNiOgyyr8OUTtIRYeHh6e95b/8ds9PDw8PDw8PA2V/+krKTw8PDw8PDwNF36TwsPDw8PDw9MgeU83KSxExfnIy8tT+S8fxWK2QivmCk4FpSm9bVYjbCmSr5xCUJq8ddl9H3j/r0jes0WIv+iDkJq8LON5Kq4fv4LkKlWD3xQsiuIvwick972LC1uajCunglCRXrWkDPd9vHE7+w3Nujbxr+264uQ5Uq8fx5X6TCKV9dvwkSDz9lHs2HYA1x+rvien/ni9vHvzvP06+zr5+3rrsNaxKHuKpIR0FFUz3Nv3Id56LX5PNykyFKffwh+DzdBj0hacPnsWZ8+exmHPyZjllQFZzh14LXbD4uOPFF51rgkWOXe8sNhtMY4/kgFgUZJyF7djc+oWAJFI/lKz9wIZ0gLXYerE1bhc3YPDbD7uHVuOqTP34371Tq13ZGmBWDd1IlZfzqpbXN4VbA7ueC2G2+LjeFQXv7ElSLl7G7EK7/qpP2oRfwBsrdYVFyzy7x3D8qkzsb9WSSSCSOOiUl2/DR0GaQfnwiOtDz4zDMBPEzxVG9QPr5t3b5zXrLN14LXy93XWYa1jwSB5hysmeiVXs5l6+z7EO6jF7+kmRQdtu36BTz9qjua2gzH5xx/x44/TMPePvzD7Ex0I2jpgRH/LGr73RIC2DiPQ3/JlawHaf70aW6Z1r+HxihQiYK0nAjUW1IaGEOZOLuhvWoM0ELSC3aiBsKm9U+oFobkTXPqbvn8JK2gLhxH98Sq9aougPb5evQXTute1g6qoRfyBWq4rLgRoZTcKA2uZRIUBa+GpcVGprt8GDpOOU/vC0fwjE3T87gBib/ys2qJ+eN28e+O8Tp2tG6+Vv6+zDmsbC/YZkgzccGT9/6FVlUvz7fsQ76AWa69cuXKl6h/fLCzyw/Zj3R874RPLwLJnJ3zQSLVNTZAh6exfCGz6LWZ8bgptyJAckwnLnh9CD4SikIM4VOiEGUNVk5JFUbw/TvtcRVShATpYGUKHihBy8BAKnWZgqKUAxUn+OH9fiE6WBhBAhpzw0zh06jqSJW1gY24AYVkKrvlEgjESIfjQcURILWDb/gVurh2HiRujIWskQHOrHrDQz0X46UM4dT0ZkjY2MDdQSaUXD3HtzAXcik1BlrglOrRvCshyqjiGRWlyIC4laKPJE18cvpwCHUsbtCmKgPeBw7hRaIyeJoW4cegfnIjTRpduxtDjsh8AihNw0fskribmIuVWJJqNdMOAdgLIcsJx+tApXE+WoI2NOZSGF0fj2PYUdP/+Izw+fgoREjPYmsjf2MsWxePy8ZPwD8+Ejqk12jWRp/CLh9dw5sItxKZkQdzSCu3oAQIvJUC7yRP4Hr6MFB1L2LTThxagYexiJFz0xsmrichNuYXIZiPhNqAdZJnBOOntg6CoHOhbWqOtvhbKUq7jbMRz6D2+CN+MNuhurvhzXA4/cMWxYj6KsEXx8D/tg6tRhTDoYAFxtDcOHL6BQuOeMCm8gUP/nECcdhd0M9aDhMMuKgrBwUOFcJoxVF6oRGkIPnMC54IzICrORF5TXWSeP4jDNwph3NMEhTcO4Z8TcdDu0g3GOsVI8j+P+8JOsDQQcOaH2ryNShB80hs+QVHI0beEdVu5f5WoS/zV1hWLovjLOH7SH+GZOjC1bocmAg15/Qoxoo9tR0r37/HR4+M4FSGBma0JmsiTCPGXj+OkfzgydUxh3U4f+TfWYtzEjYiWNYKguRV6WOgjVzWOSutXyOmjqm0CABHSgs/gxLlgZIiKkZnXFLqZ53FQQ5w5x1CCwzeUiWt7tmD/6QhkazEQNbKANd2Dj1LO6qvnqVoOWsFQB9XaoJx3EmQGn4S3TxCicvRhad0W+ipJwZW7AIuiuEBcCgpFzFMtGDbXBoSNoSus3XpSt59VrrOSzOpzFgDYbNz+ZxeO+EUiq+mH+Kgdg6Tze3EwVALLbmZoqnCQei6r5i/HHACwRXEIvBSE0Jin0DJsDm0I0bjRc4V1+AIp188i4rkeHl/0RUabrjBvpjSwWlzUasBLylJw/WwEnus9xkXfDLTpag79vATEJSQh5qHCGmSLEBd4CUGhMXiqZQh5GBrhuYIPy1ODcDZMBBNE4dixGyhs8xHMpLE4d/QM7knNX8VC3S9lSLnmg0jGCKLgQzgeIYXFyzWpBHctFnDMt15RlUV+08jiN5BTcy0CQNDSJhPXU/SMUW1VE8rpzMTWZDTwP7Ru/Xpau2IKOX+3g54yREQySvF0JpufAkmkdAxD6d5zaMqGMCoSxdDK3kY0+lAOkSyFPJ1t6KdAETHZobTZxaxC8p6htGNLacmRRCrIvEqL7E3JZU80Re7+jqwNPqEpazxoq4crdTEeS96FRPTsbxps7Epny4mISaNjS5fQkcQCyry6iOxNXWhfmuJES+n8zMm0M5MhUeIuWvBnaLXHMFnB5DnchIwHTqVl7u40c4AJGfRyp1CRjBLX9qUOMwJIRESiy1PJynkjpTIc9u9LIyq8SstcptHRlHIqCF5BDs3tyD1KSkzaMVq65AglFmTS1UX2ZOqyj5RMLtpLX7XqRz9t2UX7truRnekEOllCxOSepzmjl5B/tohyg34hxy7j6XCajKj0PM2cvJMyGREl7lpAfwanUbDncDIxHkhTl7mT+8wBZGLQi9xDRRrGLqSry1xo2tEUKi8IphUOzcnOPYqk5YE0u9vX5JUloiQPZzIZf5KK8+/R3ok21MJ+Mq1ZPpXGuvsrGM7hh6riqHhkujfNmbKBwopEFLOyNxmNPkQ5kkRa27cDzQgQEZGILk+1IueNqcRw2FVKRLIUT3K2+YkCRURMfgC5u86jI3H5lBvpQYNa96bVsVKSJa6lvh1mkLzLyzTVypk2pkopO3QzuZiZ09TLIs782BN9V2XevhQ4uxt97ZVFoiQPcjYZTydLledU5/grrSuGcs/PodFL/ClblEtBvzhSl/GHKU3GkddKFNHer1pRv5+20K5928nNzpQmyJOIzs8ZTUv8s0mUG0S/OHah8YfTSEbP6O/BxuQqX1TqcdyXprR+uXy0L624apuYfApwd6V5R+IoPzeSPAa1pt6rY0kq0xBnzjEUHaXJN0QkvkNLu/emX6OlxKjl7GXO+XHmoLQ6G5TzrjxwNnX72ouyREnk4WxC41WTQkPulgQuIKcJBylb9ozOTDInI+dZtCc4T93OKtYTl/1ZTxXrbHn1OauAKGYt9W87jPbkMETE0FOv/9AvN54rteHOZeX8VZvDvjSikkBa4DSBDmbL6NmZSWRu5Eyz9tyihOCX6/AF5d/bSxNtWpD95DW0fOpYcvcvURyYMy6Ksahsm0/39k4kmxb2NHnNcpo61p0ux3HZXUKBC5xowsFskj07Q5PMjch51h66lRD8yocvCqLpwKRO1LzfHPqv137ymu9IRnaTaI3nNtqz1Y16Go+iQ7kMh1/2UHTEbvrO2oA+mbKGPLZ6kGsXYxqrWghJQy3WMN/65G1dsXlFachVhJa+FL1jkHXzKmKkqq1qigAteo7BvEWLsPTXVXDr27LqS1CyGOzekIjuY3uhhW5XzD96Hqs+/0CpiaCtPYb1tZCr5zIPcGRXKMSiMPgGPoHpkOEwY6SwG+6ED5vYYNiChZg1ZzoGG6bhQZby3UPmwRHsChVDFOaLwCemGDLcDNI8xRuSDERF17B17jpcYlywzK1ztccI2jlg6CdmaNZ1PFauWoVtJ9dj0JNj8A6XQldXt/Kbh64uGmlpsF+ajZR9a3DBcgJGWuqhZa+vMNBSGwCDB0d2IVQsQphvIJ6YDsFwMymUTAagpWOOgT9Oxfduk+DcLAXJmRIkea3FFeMhcGqri9afLsSMTn5Y7xUDGSNC0bWtmLvuEhiXZXDrYgKHoZ/ArFlXjF+5Cqu2ncT6QU9wzDsUcRxjZyfvw5oLlpgw0hJ6LXvhq4GW8rg0ssII94UY+CIM4dksJDnZeG7QAy7ONtC1+gJzf9uFo6sGVRrN5YcaxVGGmN0bkNh9LHq10EXX+UdxftXn+EBbF7q6lV8zdHUbyX3PYVep0k1bBg93r8FVazeM6WyI1l2dYG8iz1gtXV1UdqkL3UZa8lsZ9sPQ10IuW8yVH4y0i8q8v4TVCHcsHPgCYeHZYCU5yFYygnmt+L+CSYLX2iswHuKEtrqt8enCGejktx5eMWK1vFZDSwfmA3/E1O/dMMm5GVKSMyFJ8sLaK8YY4tQWuq0/xcIZneC33gsxSkuGI47SPIUG3D6S5lVtE/NwN9ZctYbbmM4wbN0VTvYmFcrT3HHmHkPBUI2+UXamwFAlZ90tOOaXxZmDLR9VY4MKjaxGwH3hQLwIC0c2K0FOdqny8wScuStBvJ8/Ctpbo6V2Kzg52qLcwAFjHPLV7dS4nsSc9rcxUqizaFRNziqj23UGFg9NxN49iWCYVJx+YI7v+jZWaFGDXNaQS5J4P/gXtId1S220cnKEbbkBHMb0QyeHl+tQAMMeLnC20YXVF3Px266jWDWo8opttbmhiMAQPVycYaNrhS/m/oZdR91hcY7D7hfx8PMvQHvrltBu5QRH23IYOIxBv04Or3woaNkNIwd2hK5xP7i6TcIPs0egY4keHGbNxA/Tp+KL1o+RnCnl8AsDadfhcPqwCWyGLcDCWXMwfbAh0h5kKT0Pw6Rw1+JazbeO1PN1mepp2usTdNO7iPBykt+j7tUHnet0u0cFbWO4uH4FHZJBxn2hEGBykJ1bAEE+C7QXoNmHdjAtUn8D6ivJeyYPuXlaMBswHhMtBABcARZAYWTlCAIhhEIWLKv8TjwmLxd5WmYYMH4iFA+tpAVGbjuD8t9/wRLHHTBZcAKXPq3uGDkCQcVWrLktOpuxyJMQ94w57Rfj8vSHYF5ekhNoQT5dBnm5edAyG4DxEy0gb801+kuEEGozkDFSpKdlQqQtrRDYbQwLizYozS8A02Iktp0px++/LIHjDhMsOOGDJS0BCAQVm8nmsO1sBjZPxDm2+PJ0PGQqbk9BUBkXaKEk8gB2Fk/GTCdrNI4mUEXctIXCisKnAKcfahJHBjnZuSgQ5INFewiafQg70yI8Zzm9rdGuSmRIefAYsOZ4cb2mLvEyPppzqjRGed5aJZE4sLMYk2c6wbpxdIUa90tkSE6oh/jL0pGWKYK2tKLzxhawaFOK/IKmankd+HMf1aNfIRRqg5ExkKanIVOkjcruLNCmNB8FSpVSQxwpVaEJt49QhU2ylAd4DGsOOQHuoGgc4yUafaP+GKRSznLOTwy/Geo5WHivGhtU0SpB5IGdKJ48E07WjRGt9g5PrtzVge2QwdBbfhZhBVZ4Hl2Oz792hD6TwWGnpvUk07CGFOpstTmrSgsMnjsRv4/ehAv9OyDdehw6KS16TblMeJUpnL4G8KIMg/WW42xYAayeR6P886/hqA+ldSj/tzaEQrVKozE3FFJUGS0taGkLIe9Kk90vUDZYD8vPhqHA6jmiyz/H13KjlH2o8G9oa0NAVJETQmhrAyxp6r8QkZWBg1AoBMuySrVLlpzAWYs1zbc+Eaj+4U0j7L4UJ308MHPcGLgu2Y0Lf49D2zpaQURK0vONm2khcv9hREgAQPUEAaBRF9h3foS9q/YhtoxBYcRu7LlaJP+Ma1UIO6KnTRy2zN+JiAIZxOm+2Ho4SkXvXgGBFgSMDDK2DOXGPWETtwXzd0agQCZGuu9WHI5S2GGyubjon4PhHhdw79o0iA8dhbBjNccAAAhikUhugTgdGWwfDLTThb6+Dp4XFkACGbJSM1AmkUCizWV/LDrafohMv5O4UwyAZSCTSSERC9Gxpw3itszHzogCyMTp8N16GMrDc/gUjWDn5ADRTT9EigBAgpxn+vhsqD0a5V6Ef85weFy4h2vTxDh0NAIAQGIRRPIJID2DRZ+B9ujKMXbsh7b4MNMPJ+WGgpHJIJWIIQnejJ/922OCax80F72AlGVQXi5/sFLdvjrE8RWN0MW+Mx7tXYV9sWVgCiOwe89VFEEf+jrPUVggAWRZSM0og0QigbgquwgAhLCyMUHcyT0ILmDBFmYiq6TCBn196DwvhLzLVGSUSSCRKNtXVX68aikJxuaf/dF+giv6NBfhhZQFU16u2MtrxB+VOdDIDk4OItz0i5T/mk2Sg2f6n2Foz2K1vFaFa6k1snOCg+gm/ORJBEnOM+h/NhT2ugJoCRjIZCzKyo01xLGyU04fRT6t0iahlQ1M4k5iT3ABWLYQmVklFf7kjrM21xiKjtLkG3tduf+IVfLBq39y5mkcZw6WVWdDBfJxJAje/DP820+Aa5/mEL2QgmXKUZGaAKBxTemb28NleFcU3QyBzrQTOPK9BbQ57dS0njStIQU05eyLFNy+dh8FHGc9oe1UzO7mj7nzn6KXi5nKiayqXK7IX01z0DeHvctwdC26iRCdaThx5HtUXMhUgWuuGvLv5RrlPkQxATTYrQ9zexcM71qEmyE6mHbiCL7nNqoaNPWvaTaVCDty1+Kq5ltvqN7/eT8op8c399APXXSoRe8ptGb9elq/fi2tmOJE/eZfpxcF0bRztBm16L+M/FOU71WKk47SjH4mZNDSjPr9eIASRAwVRO+k0WYtqP8yf3r4JIr+O9qMmvdbSoFpYpKlnqZ5A6zIoEU76uayjm7kF1DcQVeybmpP887HUeKN3+nLtkb0lecdyi4Po9V9LanXuD8p4KmEUk/PowFWBtSiXTdyWXeD8pVuWz+lnaN707crttGebb/Qou0RRCSr+hiSUcIfn1Dr3lNozebN9Me86fSrbyYxRCR7uIe+sbGi3iN+Is/1U8jefgptD83msJ8hKr9PuyfZk3WPIeS2bD593a0rjVt/gzLFqXR63gCyMmhB7bq50Lob+fRqeKaIYg9/Tx2b9KK552Mp4cYa+ry1EQ3bEEY50gw6t3gwDRy9gH5b+wst3RxEuQwR83Qnje79La3Ytoe2/bKItkc8J1nCH/RJ6940Zc1m2vzHPJr+qy9lMkQk4xq7nO7vnkT21j1oiNsymv91N+o6bj1dv3ecptqaUvfhM+m3NZPIrsNg+vVsAB2a3JH0bKfQ4WgFuytQ90MVcVQ8WJxER2f0IxODlmTW70c6kCAiIhk93PMN2Vj1phE/edL6KfZkP2U7BcecULNrlX8sRe8cTWYt+tMy/xSiohDyHNGR2pr1pjHL/6Afun1Mq2OlRLKHtOcbG7LqPYJ+8lxPU+ztacr2YEqI/C+NNmtO/ZYGUppYPT/y8u8rz5vJolNTbcm0+3Ca+dsammTXgQavClCYENUt/kTEqKwrJuMcLR48kEYv+I3W/rKUNgflEsOZ1696oKLYw/R9xybUa+55ik24QWs+b01GwzZQWI6UMs4tpsEDR9OC39bSL0s3U1AuQ0RiClvdlyx7jaM/A56SRC2OUqX1m/Jc3Uf50qpsIiIqohDPEdSxrRn1HrOc/vihG328OpakGuIcml3N2ibi9g0VUaLvMvrUwJAGLD9FYXH31HJWPU8ZjTlYpQ1MgULePaSsU1PJ1rQ7DZ/5G62ZZEcdBq+igIzKA5isU+q5G5BOWQdGkWn7TtTLoQ85Og8il+nbKLiA4bCzivVUrm4/k69QZ1PTOHO23GcymRiY02QND6iUB82nz366TGWqHxB3PZGq5K/6HBhisg7QKNP21KmXA/VxdKZBLtNpW/Azyot6uQ6vUEzkIZrcUY9spxymaNXAc8VFqhiLlMqmTCHdPzSZOurZ0pTD0fL4cdjNMFl0YJQpte/Uixz6OJLzIBeavi2YnuUp+DA+ho5P+Yj0u/9Ep+MeUvjf39GHBv1pmX8SPbj5Bw1u25YGrwvh7L8g7iC5Wjcl+3nnKS7xBv3+ZVsy+sqT7igVQu5afCNTrD5fVZe8Jrx2z3sFg8S1n2JU3p+4t7E/x+Xphg+TuBafjsrDn/c2ov/7OIH6RBaOnx1mQ//gLaywfet3Xnk4kSH8ZwfM1j+IWyts3/798AaFBPEHNuJO5/FwblqEotIS5N47gIDG6+Ex4e3ohotu/InNL2Zh6ZdNVD5hkXNkJf6xXo7FveuvkEjiD2Djnc4Y79wURUWlKMm9hwMBjbHeY8K7U0qXxOPAxjvoPN4ZTYuKUFqSi3sHAtB4vQfeUhjeKXW80cLzrmAZFgyjfm/7vYFlwDJMNS8p+h+BZcAwLBiOy9k87wr5+mL5oADiW9jx5ymEJzxGub4hWjUDispsMcBJ9efbbwZZ2m2czfsUkz9X3KAwSPL+FUtW/gr3iA74tmf9bVAAMW7t+BOnwhPwuFwfhvIJw3aAE97OjLkR39qBP0+FI+FxOfQNW6EZilBmOwBvKQzvnHfwnhSeuiJJD4ZPSAZYEsDQugssW9bnAn0LSNIR7BOCDJYgMLRGF8uW7+XVoPpBhichvrjzVAoStEdnOxMovmqB590gexIC3ztPISUB2ne2g8n/clCE5uj76QdI9T+N077XEJXTAv2/n4IB7evyPETtERiYoUtnU6V3nwCEksSruPbYDN8v+x5d1F/m8RoIYd73U3yQ6o/Tp31xLSoHLfp/jykD2qs/jP8WEZr3xacfpML/9Gn4XotCTov++H7KALylMLxz+Ns9PDw8PDw8PA2S9/d2z7sUu6uBKFtZnC+O11r4qRjJcWn1pv3DFsXjok8IclkAZffh430bddTHqje4BLEk+alIeJRTb/N+43D5UpKP1IRHyGmgk6i1wJkaIqQlPEKZ6p+rQiaCqGJ9ymQVA3P5rtbUh8DZ6wnGceZx5m0c3bENB67HIeI1+pbzeva9pE5xl2Ti9tEd2HbgOmqsf1gv9bg+4vpmUKql9U0Nzie1R0VMUdO6eyNj1y/v5yblnYrd1USUjUXxwzDcuF+LTYosFWc89iK1uTH0VD+rC7I0BK6biomrLyOLBdiSFNy9HYu66GPVH1yCWGW4tGgklgUWvjfJyOXLskuLMHJZIAob4iRqLHBWlZCfHoz04rB97WmkVtkHADYbl90nYMLCddj0589wG+mEr38Ph0SD72pLvQicvY5gHEceM2kHMdcjDX0+M0TAjO+x6dLNOvUtehmA17KvghrHXQEmDQfneiCtz2cwDPgJEzzjVFuoU0/1uF7iWhV1FX9VqaX1S03OJ7VHVUyRe929mbHrHdWf+7w3FO6moe2+o5Plqh+8BcShtKS7PblHSVU/qSNiilo7huacV30V8eshDl1C3e3dqd7MfBOIw2j/zhtUoPr39woxhe3fSTca8CRkjzzISfW13CoUXHGn33yrXlAFZ2fSN+uiSKz6gQLSsGXUc+BGelzxU0TZwx00a3VwlcfUDjGFLulO9u5R1DBSW0YpGwaQ/YpIuT0Mo/YT+BpRcIXcf/OlqiNQO2oSd0VkKRtogP0KipRPhJiaTqRe6vGbjGsBXXH/japJb4280Vpa7+cTIiIZPfJw4pCGUeGNjF2/vL8PztZa7O4FHl47gwu3YpGSJUZLq3agB+pife30tcApRgdNomwyDuEuFqUPr8I3RoCOFhpEChXnkn8C8xZnYeSab2DdSH7pNOhsGEQmQNSxY7hR2AYfmUkRe+4oztyTwvyl+JMGYafihIvwPnkVibkpuBXZDCPdBqBNaRL8z9+HsJMlDATViI2xpUgOvIQE7SZ44nsYl1N0YGnTTt6GY8yylGvwiWRgJArGoeMRkFrYwqSJFoeoW2MV8UYWRUn3kfw4EbEKAnUa+1OCQ8BN6SoGtxijxvhqFEdTzZv2aFyi6EuALUrC/eTHSIxVyDeN/SmjLrwGDqG9JhDgOVKDziJMnhQ4dqMQbT4ygzT2HI6euQepuS1MmpDGOasKnCmLjJlCGqwi5Ne+BCEcgm/6FgS//+yAaMxodFV8E7kC7LOb2LP2KJJNPsWA7m2gZ2AFM0M9tGnbAihW9l3txM40CJxx+ksZVaHL9o1LlIUbOQXcpEjntEVRHK8Zsq7twZb9pxGRrQVG1AgW3Q2RfUW573j/0/C5GoVCgw6wMtRRE/NrXXYTa8dNxMZoGRoJmsOqW0s8vXIe94U2aJrsDa+DFxCWrgMLWyPIEs5h/9F7oA62aF0YwiEKWEltRAaZzGvYs2U/TkdkQ4sRoZGFHSybcImkcoi0aqzHVY8pR0NcOWqNMjVcx2rirx3A3vVREgg0KuH2I1ctbSerQgyxFgKI3OeT6kQ+OXK5qZTDx8piigKVdadpbNW8VM2nd4LqruW9oZZid6XnZ9LknZnEiBJp14I/KThNk1ifBuEpDaJsXMJdTG4YbRtloVmkcF+a0lRKvb+ltgO3UAZT8RKmA5OoU/N+NOe/XrTfaz45GtnRpDWetG3PVnLraUyjDuVqFDkrvLqMXKYdpZTyAgpe4UDN7dwpSpxNoZtdyMx8Kl2uVmyMoaxgTxpuYkwDpy4jd/eZNMDEgHq5h5KIY8w90RG0+ztrMvhkCq3x2Eoerl3IeKw3FXIIKKqKN3KJsKXmRmroTxHuY9NkCi00ijFyxKMKcTTVvAktV/YlZ76l5mrsTxEu4bUcKZfQXirlRR+gSZ2aU785/yWv/V4039GI7CatIc9te2irW08yHnWIsjM1zVlF5FBNZGwfpTGKQn5VCL4xj2mjUxv65miR8mSUKKTg9V+Rhb4+mQ6YSTtvZ1VcYVDxnZodVYmdaRI44/JXGimkgrrQZWi5snAjcQm4edHla39z2qKcx0REYrqztDv1/jWapMSoiEKmk/ecKbQhrIhEMSupt9FoOpR2hVPM79nfg8nY9SyVq/WRRl5ftSVHj0ckIyImcx+t8IwisQZRQEVqJTJIROI7S6l7718pWkoaxPKk3CKtGupx9WNqiivX2Epvq6vVOq4Uf2XUBQJ9z3P6kbOWSqtYGxXURABR0/lEfU2oiHyq5bJYg48VxBRV1p2msTWJTL5rVL9wvFfURuxOLCrCta1zse4SA5dlbuhiokGsLzSOQ3hKkygft3AXWvfCsP4VYngahKwqkeFx4kOIW36AlgIAgpboNnIgOuoao5+rGyb9MBsjOpZAz2EWZv4wHVO/aI3HyZmQcgk7ZSdj35oLsJwwEpZ6LdHrq4Gw1AYgaAv7YX1fvd6Zy+bKO5ICtHMYik/MmqHr+JVYtWobTq4fhCfHvBEapz4mI+2K4U4foonNMCxYOAtzpg+GYdoDZDHqAorK4o3cImx7MjT198pAjccqCrhpFGPkiq9GcTQGjEredNZR9CXDnW97MtBVQ3+VcIsXtnzAJbS3B086j8TAjrow7ucKt0k/YPaIjijRc8CsmT9g+tQv0PpxMrLaaJhzuERh3BqIr1Ul+CZojbaGYjxISIXmxw8M0GfReUSF7Ydr8wAsdrbDYM8IvFDKQy47NIudSTQJnNVImFBF6LKzjpJwIyRcAm5j8YXzCE5bSDGP1VAWhZTF7MaGxO4Y26sFdLvOx9Hzq/C5UQcOMT/NfUBghnFzXJBzbD9iZAySz2ej03ddocMpCqjYjzJVr3t1OMXjsu5pFGlVr8dMtWPWWbiOq65WsY4r4RAI/LKLuh+lKdy1tKq1UUFNBBC5zydca0JVGFE1l4XV+li5/msaW5PIpGJH74b3epNSiYrYnURd7K7pyG04s8Qct5c4wm7MTsS+kB+pKtYnFikIT010xexV27B5Sne5KJu2qihbpXDXdWF/OFk3fiXQwClS+Kq/XhUHy5GpvpxNS0vhtoA2tAUEqkgWoVwpSknYaaLrbKzathlTuj9GwkMGlWYq9KP0b26blRGg0jWdYcaKIeIas5cOBArCVgKhEEKWBUtyAcUl5rexxNEOY3bGAop+qRBhk3CIsHH39+pPVR6rSs3i20se01cHVYoNtuDKm1e+lGnMN0ZDf5VUiBcW5MsLSrMPYWfaCMWP05ApknAI7SkKnAHa2gJQZVJAG5WCYGpzVtIAUhQZmwjX2auwbfMU9FJ5YY1c8O06hP2doJoi2kIBWNWcVYB5HI6ILBYtuozBmrNRCP3LHrHrNuDCc0XfabJDoDDPSrEzaXICHjLaagJnsnRN/nrZB4AWI7HtzBKY314CR7sx2CkPYuU4OrYYMlgPwWfDUJAXpiDgxm0LqYq5qaEgCpmTjdyCAuTLg4wP7UzR6DnJxfyuC9HfyRqNOTWxlOPdZMAMfCc4hp2XgnCppDuGGQnwShSwyn4UqNG6r4SzxvQoQHZuAQrkE5KLtDZSFWl9WY+p2jHlwnXqceUcWzFJNdXVatcdKnyrKBDI4UdZssZaWtXakCMXQJTt34QLwSeRbj1KRQCxQuRT7XyiaU0oHMqVy9X4GFCuWdxjg9sPrzp4d7zHmxQuB2oSu+uJ4ov+yBnugQv3rmGa+BCORojBKdZn35VDeEqTKF/1wl0ahawqG8DM0hRaxYUoqcWulVPYKfZD2H6YCb+TdyA3UwaZVAKx0pE1sBkASAyRXAUQ4vQMsH0Gwr4rx5ia1Kk4BBSVqEqEjas/Rao6VomaxleTOBqLXM68eYmmfLOHLmd/inALrz3XKLSnerwmOOZsJz9YXrs0iYwpCPnlB3ALvgEAnqOohGBiYQYhW4D4kPtqP8tkci5i5z/3K35JoQebL53RsWVLGCrdW9dkB3ckNAmcaRYmrDyW1SB0WYlmATcuW7ggIrAcJ4dGXezR+dFerNoXizKmEBG798Av4C9OMT+BlgCMTAa2rFT9p97CLvjBzRoX5nlC5vwZmkGzKKAqNRUZfNmYWHlt5awxcZ00iLRy1ePqx9QUV86xFYXrNNZVdSsA+cn4pfhraRmU2nH6UWrBXUs1iSGqUK0AIuf5RPOaeIl6LodU4WOumGgaW4Mfyl+gID4E91UX+Vvk/dyksMWIu3ATD0qScCsgDol3AhGdnY5wv2hgzCbsGhKL5RMXYs26dbjTYyN+H9wCTOYJrJjmju3HbkLcdxYmOcgVSUsijsHzr7+wdsUFmKxeB5dWrTFuw064FG3AICtTOMyNQ4+hdrCctgWedkGY4jwUP648gWQBi7SgcDTr64jyva4YNWs7knXaIN3vMEIrvmVoaQkAAVd/3ZSmYzDwS3ycm4wkGQCUIelCEJLKkhDkF49HkZcRllaA+KAbSH4Yist3M5Bx1x+R7LfYsNMFRRsGwcrUAXPjemConTWmbfGEXdAUOA/9EStPJEPApiHodhxi/UKR+iwO128/hbWjZptfQSWIOOaJv/5aixUXTLB6nQtatR6nPqZ5Mi7dfoji+CAExCch5Mo9PE0Pw+XIbGSeWIFp7ttx7KYYfWdNAlsQC7/QVDyLu47bGQYYu2kXhsQux8SFa7Bu3R302Pg7BiNeQ385lbYJ2nAfq6ZjUdP4miP+0m08LI5HUEA8kkKu4N7TdIRdjkT2E5W8sX+u4MsMtBnLlW/Q2F/lTwAFMJ60CTuGZmO1oxmshv0N/S+HwrzdWGzaNQSxyydi4Zp1WHenBzb+PhjaSRcQlFSGpCA/xD+KxOWwNBTEB+FG8kOEXr6LjIy78I/I4Z5zi0LE+YciNTcGATfS0HrcBux0KcKGQVYwdZiLuB5D0U3YBN0/tkLIWjfsiGyHfo7l2Os6CrO2J0OnTTr8DofKzZYkIDGrN778P0OwT45j8fhlOP1EJXcE+ii78Tt+mvcL3JcvxPRl0Rj4318xoFGBku+47DBPvoTbD4sRHxSA+KQQXLn3FOlhlxHd+Eds8bRD0BRnDP1xJU4kC8CmBeGO7BtOfymlApOJEyumwX37MdwU98WsSfYoiPVDaOozxF2/jXRRHm56/xebf1uJP9b9ilnjvsGM7SFIi+W2JSIxpjKP0yUoTroCn5B0pN48iXN3nyBXoe+M1pOwacdQZK92hJnVMPyt/yWG9/8UjuV74TpqFrYn66BNuh8Oh+ajSfePYRWyFm47QpEeo2CfBAAEMP12Or52+BwuFa+CF1o7cvbzClYx7k+qX/fFSbjiE4L01Js4ee4uslpyrPce5pi0aQeGZq+Go5kVhv2tjy8HN9dQj++jZb+qx9S2nMYdV+kY9bG7KexyOeuq5nWco98dH1uFYK3bNlwNP4ebyUWIvnQaMQUstx/Dm3HX0vBmcNS0NhQRtMWo2aNh5TAEQ1upfqit4XxyB9Ix6mtCcdrqudyHM67Bj+7DPzQVuTEBuPEoQ2HdZWoYOwS5Vhx+CL6P44vHY9npJwpGvF3+h984+ybF+lg8+etzDHmyGnc9+9ag72Jc+c/3CBp3DGs+qfFX5jcHk4i1n45C3p/3sPG9VQF8k/FtqLz5OUvCVmDMwX74Z+uX705wrb75Hxdw43kTvBkBxP9F3s8rKfVE/Yv1sci6thf7b2WjoKQ5HAd2reGJogUGrV4Mo0sHEaV6e/edwIJhGdSra94B9R/fhs8bnbM4Ht6X2mDRb/+iDQov4MZTr7xJAcT/Tf5nNymS9BDcfPERHIQxuJVSjzsDSS7uHNiMgC6r8OeQZqqfaqZFH8xcMhDlsY9VniF520iQHnITLz5ygDDmFurTNW+TNxbfBsybnbMYj+8V4uOFs9HPQPWz9xtd5zU4ttQKMQf/hPuvG3EyxRzjZw6BKffPd3h4qqSRNoOSF6aY/MsEmPM59Nr8D9/u4eHh4eHh4WnI/M9eSeHh4eHh4eFp2PCbFB4eHh4eHp4GCb9J4eHh4eHh4WmQ8JsUHh4eHh4engbJ/wO5d54J0lCHCAAAAABJRU5ErkJggg==;" vertex="1" parent="1">
          <mxGeometry x="324" y="-600" width="553" height="523" as="geometry" />
        </mxCell>
        <mxCell id="3tEjD4ta9u-uqrEoS7ZN-2" value="Sucursal" style="whiteSpace=wrap;html=1;align=center;fillColor=#f0a30a;strokeColor=#BD7000;fontColor=#000000;" vertex="1" parent="1">
          <mxGeometry x="516.75" y="135" width="100" height="40" as="geometry" />
        </mxCell>
        <mxCell id="3tEjD4ta9u-uqrEoS7ZN-3" value="Cliente" style="whiteSpace=wrap;html=1;align=center;fillColor=#f0a30a;strokeColor=#BD7000;fontColor=#000000;" vertex="1" parent="1">
          <mxGeometry x="505" y="470" width="100" height="40" as="geometry" />
        </mxCell>
        <mxCell id="3tEjD4ta9u-uqrEoS7ZN-4" value="Hotel" style="whiteSpace=wrap;html=1;align=center;fillColor=#f0a30a;strokeColor=#BD7000;fontColor=#000000;" vertex="1" parent="1">
          <mxGeometry x="760" y="290" width="100" height="40" as="geometry" />
        </mxCell>
        <mxCell id="3tEjD4ta9u-uqrEoS7ZN-5" value="Vuelo" style="whiteSpace=wrap;html=1;align=center;fillColor=#f0a30a;strokeColor=#BD7000;fontColor=#000000;" vertex="1" parent="1">
          <mxGeometry x="1000" y="290" width="100" height="40" as="geometry" />
        </mxCell>
        <mxCell id="3tEjD4ta9u-uqrEoS7ZN-6" value="" style="endArrow=none;html=1;rounded=0;" edge="1" target="3tEjD4ta9u-uqrEoS7ZN-7" parent="1" source="3tEjD4ta9u-uqrEoS7ZN-3">
          <mxGeometry relative="1" as="geometry">
            <mxPoint x="905" y="155" as="sourcePoint" />
            <mxPoint x="965" y="155" as="targetPoint" />
          </mxGeometry>
        </mxCell>
        <mxCell id="3tEjD4ta9u-uqrEoS7ZN-7" value="&lt;u&gt;DNI&lt;/u&gt;" style="ellipse;whiteSpace=wrap;html=1;align=center;" vertex="1" parent="1">
          <mxGeometry x="530" y="340" width="50" height="30" as="geometry" />
        </mxCell>
        <mxCell id="3tEjD4ta9u-uqrEoS7ZN-8" value="" style="endArrow=none;html=1;rounded=0;exitX=0.872;exitY=-0.024;exitDx=0;exitDy=0;exitPerimeter=0;" edge="1" target="3tEjD4ta9u-uqrEoS7ZN-9" parent="1" source="3tEjD4ta9u-uqrEoS7ZN-3">
          <mxGeometry relative="1" as="geometry">
            <mxPoint x="580" y="355" as="sourcePoint" />
            <mxPoint x="640" y="355" as="targetPoint" />
          </mxGeometry>
        </mxCell>
        <mxCell id="3tEjD4ta9u-uqrEoS7ZN-9" value="Nombre" style="ellipse;whiteSpace=wrap;html=1;align=center;" vertex="1" parent="1">
          <mxGeometry x="595" y="410" width="50" height="30" as="geometry" />
        </mxCell>
        <mxCell id="3tEjD4ta9u-uqrEoS7ZN-10" value="" style="endArrow=none;html=1;rounded=0;exitX=0.25;exitY=0;exitDx=0;exitDy=0;" edge="1" target="3tEjD4ta9u-uqrEoS7ZN-11" parent="1" source="3tEjD4ta9u-uqrEoS7ZN-3">
          <mxGeometry relative="1" as="geometry">
            <mxPoint x="455" y="335" as="sourcePoint" />
            <mxPoint x="515" y="335" as="targetPoint" />
          </mxGeometry>
        </mxCell>
        <mxCell id="3tEjD4ta9u-uqrEoS7ZN-11" value="Apellidos" style="ellipse;whiteSpace=wrap;html=1;align=center;" vertex="1" parent="1">
          <mxGeometry x="465" y="410" width="50" height="30" as="geometry" />
        </mxCell>
        <mxCell id="3tEjD4ta9u-uqrEoS7ZN-12" value="" style="endArrow=none;html=1;rounded=0;" edge="1" target="3tEjD4ta9u-uqrEoS7ZN-13" parent="1" source="3tEjD4ta9u-uqrEoS7ZN-3">
          <mxGeometry relative="1" as="geometry">
            <mxPoint x="655" y="405" as="sourcePoint" />
            <mxPoint x="715" y="405" as="targetPoint" />
          </mxGeometry>
        </mxCell>
        <mxCell id="3tEjD4ta9u-uqrEoS7ZN-13" value="Telefono" style="ellipse;whiteSpace=wrap;html=1;align=center;" vertex="1" parent="1">
          <mxGeometry x="575" y="370" width="50" height="30" as="geometry" />
        </mxCell>
        <mxCell id="3tEjD4ta9u-uqrEoS7ZN-14" value="" style="endArrow=none;html=1;rounded=0;" edge="1" target="3tEjD4ta9u-uqrEoS7ZN-15" parent="1" source="3tEjD4ta9u-uqrEoS7ZN-3">
          <mxGeometry relative="1" as="geometry">
            <mxPoint x="1045" y="125" as="sourcePoint" />
            <mxPoint x="1105" y="125" as="targetPoint" />
          </mxGeometry>
        </mxCell>
        <mxCell id="3tEjD4ta9u-uqrEoS7ZN-15" value="Email" style="ellipse;whiteSpace=wrap;html=1;align=center;" vertex="1" parent="1">
          <mxGeometry x="485" y="370" width="50" height="30" as="geometry" />
        </mxCell>
        <mxCell id="3tEjD4ta9u-uqrEoS7ZN-16" value="" style="endArrow=none;html=1;rounded=0;" edge="1" target="3tEjD4ta9u-uqrEoS7ZN-17" parent="1" source="3tEjD4ta9u-uqrEoS7ZN-2">
          <mxGeometry relative="1" as="geometry">
            <mxPoint x="580" y="55" as="sourcePoint" />
            <mxPoint x="640" y="55" as="targetPoint" />
          </mxGeometry>
        </mxCell>
        <mxCell id="3tEjD4ta9u-uqrEoS7ZN-17" value="&lt;u&gt;ID_Sucursal&lt;/u&gt;" style="ellipse;whiteSpace=wrap;html=1;align=center;" vertex="1" parent="1">
          <mxGeometry x="541.5" y="-40" width="50" height="30" as="geometry" />
        </mxCell>
        <mxCell id="3tEjD4ta9u-uqrEoS7ZN-18" value="" style="endArrow=none;html=1;rounded=0;" edge="1" target="3tEjD4ta9u-uqrEoS7ZN-19" parent="1" source="3tEjD4ta9u-uqrEoS7ZN-2">
          <mxGeometry relative="1" as="geometry">
            <mxPoint x="580" y="-275" as="sourcePoint" />
            <mxPoint x="640" y="-275" as="targetPoint" />
          </mxGeometry>
        </mxCell>
        <mxCell id="3tEjD4ta9u-uqrEoS7ZN-19" value="Telefono" style="ellipse;whiteSpace=wrap;html=1;align=center;" vertex="1" parent="1">
          <mxGeometry x="510" y="-10" width="50" height="30" as="geometry" />
        </mxCell>
        <mxCell id="3tEjD4ta9u-uqrEoS7ZN-20" value="" style="endArrow=none;html=1;rounded=0;" edge="1" target="3tEjD4ta9u-uqrEoS7ZN-21" parent="1" source="3tEjD4ta9u-uqrEoS7ZN-2">
          <mxGeometry relative="1" as="geometry">
            <mxPoint x="580" y="-275" as="sourcePoint" />
            <mxPoint x="640" y="-275" as="targetPoint" />
          </mxGeometry>
        </mxCell>
        <mxCell id="3tEjD4ta9u-uqrEoS7ZN-21" value="Provincia" style="ellipse;whiteSpace=wrap;html=1;align=center;" vertex="1" parent="1">
          <mxGeometry x="580" y="-10" width="50" height="30" as="geometry" />
        </mxCell>
        <mxCell id="3tEjD4ta9u-uqrEoS7ZN-22" value="" style="endArrow=none;html=1;rounded=0;" edge="1" target="3tEjD4ta9u-uqrEoS7ZN-23" parent="1" source="3tEjD4ta9u-uqrEoS7ZN-2">
          <mxGeometry relative="1" as="geometry">
            <mxPoint x="580" y="-275" as="sourcePoint" />
            <mxPoint x="640" y="-275" as="targetPoint" />
          </mxGeometry>
        </mxCell>
        <mxCell id="3tEjD4ta9u-uqrEoS7ZN-23" value="Direccion" style="ellipse;whiteSpace=wrap;html=1;align=center;" vertex="1" parent="1">
          <mxGeometry x="480" y="30" width="50" height="30" as="geometry" />
        </mxCell>
        <mxCell id="3tEjD4ta9u-uqrEoS7ZN-24" value="" style="endArrow=none;html=1;rounded=0;" edge="1" target="3tEjD4ta9u-uqrEoS7ZN-25" parent="1" source="3tEjD4ta9u-uqrEoS7ZN-2">
          <mxGeometry relative="1" as="geometry">
            <mxPoint x="570" y="15" as="sourcePoint" />
            <mxPoint x="630" y="15" as="targetPoint" />
          </mxGeometry>
        </mxCell>
        <mxCell id="3tEjD4ta9u-uqrEoS7ZN-25" value="Ciudad" style="ellipse;whiteSpace=wrap;html=1;align=center;" vertex="1" parent="1">
          <mxGeometry x="610" y="30" width="50" height="30" as="geometry" />
        </mxCell>
        <mxCell id="3tEjD4ta9u-uqrEoS7ZN-26" value="" style="endArrow=none;html=1;rounded=0;" edge="1" target="3tEjD4ta9u-uqrEoS7ZN-27" parent="1" source="3tEjD4ta9u-uqrEoS7ZN-4">
          <mxGeometry relative="1" as="geometry">
            <mxPoint x="775" y="175" as="sourcePoint" />
            <mxPoint x="835" y="175" as="targetPoint" />
          </mxGeometry>
        </mxCell>
        <mxCell id="3tEjD4ta9u-uqrEoS7ZN-27" value="&lt;u&gt;ID_Sucursal&lt;/u&gt;" style="ellipse;whiteSpace=wrap;html=1;align=center;" vertex="1" parent="1">
          <mxGeometry x="785" y="160" width="50" height="30" as="geometry" />
        </mxCell>
        <mxCell id="3tEjD4ta9u-uqrEoS7ZN-28" value="" style="endArrow=none;html=1;rounded=0;exitX=0.61;exitY=-0.027;exitDx=0;exitDy=0;exitPerimeter=0;" edge="1" target="3tEjD4ta9u-uqrEoS7ZN-29" parent="1" source="3tEjD4ta9u-uqrEoS7ZN-4">
          <mxGeometry relative="1" as="geometry">
            <mxPoint x="650" y="175" as="sourcePoint" />
            <mxPoint x="710" y="175" as="targetPoint" />
          </mxGeometry>
        </mxCell>
        <mxCell id="3tEjD4ta9u-uqrEoS7ZN-29" value="Provincia" style="ellipse;whiteSpace=wrap;html=1;align=center;" vertex="1" parent="1">
          <mxGeometry x="827" y="190" width="50" height="30" as="geometry" />
        </mxCell>
        <mxCell id="3tEjD4ta9u-uqrEoS7ZN-30" value="" style="endArrow=none;html=1;rounded=0;exitX=0.3;exitY=0;exitDx=0;exitDy=0;exitPerimeter=0;" edge="1" target="3tEjD4ta9u-uqrEoS7ZN-31" parent="1" source="3tEjD4ta9u-uqrEoS7ZN-4">
          <mxGeometry relative="1" as="geometry">
            <mxPoint x="650" y="175" as="sourcePoint" />
            <mxPoint x="710" y="175" as="targetPoint" />
          </mxGeometry>
        </mxCell>
        <mxCell id="3tEjD4ta9u-uqrEoS7ZN-31" value="Telefono" style="ellipse;whiteSpace=wrap;html=1;align=center;" vertex="1" parent="1">
          <mxGeometry x="740" y="190" width="50" height="30" as="geometry" />
        </mxCell>
        <mxCell id="3tEjD4ta9u-uqrEoS7ZN-32" value="" style="endArrow=none;html=1;rounded=0;exitX=0.1;exitY=0;exitDx=0;exitDy=0;exitPerimeter=0;" edge="1" target="3tEjD4ta9u-uqrEoS7ZN-33" parent="1" source="3tEjD4ta9u-uqrEoS7ZN-4">
          <mxGeometry relative="1" as="geometry">
            <mxPoint x="650" y="175" as="sourcePoint" />
            <mxPoint x="710" y="175" as="targetPoint" />
          </mxGeometry>
        </mxCell>
        <mxCell id="3tEjD4ta9u-uqrEoS7ZN-33" value="Direccion" style="ellipse;whiteSpace=wrap;html=1;align=center;" vertex="1" parent="1">
          <mxGeometry x="720" y="230" width="50" height="30" as="geometry" />
        </mxCell>
        <mxCell id="3tEjD4ta9u-uqrEoS7ZN-34" value="" style="endArrow=none;html=1;rounded=0;exitX=0.687;exitY=0.088;exitDx=0;exitDy=0;exitPerimeter=0;" edge="1" target="3tEjD4ta9u-uqrEoS7ZN-35" parent="1" source="3tEjD4ta9u-uqrEoS7ZN-4">
          <mxGeometry relative="1" as="geometry">
            <mxPoint x="820" y="235" as="sourcePoint" />
            <mxPoint x="880" y="235" as="targetPoint" />
          </mxGeometry>
        </mxCell>
        <mxCell id="3tEjD4ta9u-uqrEoS7ZN-35" value="Ciudad" style="ellipse;whiteSpace=wrap;html=1;align=center;" vertex="1" parent="1">
          <mxGeometry x="840" y="230" width="50" height="30" as="geometry" />
        </mxCell>
        <mxCell id="3tEjD4ta9u-uqrEoS7ZN-36" value="" style="endArrow=none;html=1;rounded=0;" edge="1" target="3tEjD4ta9u-uqrEoS7ZN-37" parent="1" source="3tEjD4ta9u-uqrEoS7ZN-5">
          <mxGeometry relative="1" as="geometry">
            <mxPoint x="1000" y="215" as="sourcePoint" />
            <mxPoint x="1060" y="215" as="targetPoint" />
          </mxGeometry>
        </mxCell>
        <mxCell id="3tEjD4ta9u-uqrEoS7ZN-37" value="&lt;u&gt;ID_Vuelo&lt;/u&gt;" style="ellipse;whiteSpace=wrap;html=1;align=center;" vertex="1" parent="1">
          <mxGeometry x="1025" y="160" width="50" height="30" as="geometry" />
        </mxCell>
        <mxCell id="3tEjD4ta9u-uqrEoS7ZN-38" value="" style="endArrow=none;html=1;rounded=0;" edge="1" target="3tEjD4ta9u-uqrEoS7ZN-39" parent="1" source="3tEjD4ta9u-uqrEoS7ZN-5">
          <mxGeometry relative="1" as="geometry">
            <mxPoint x="1075" y="215" as="sourcePoint" />
            <mxPoint x="1135" y="215" as="targetPoint" />
          </mxGeometry>
        </mxCell>
        <mxCell id="3tEjD4ta9u-uqrEoS7ZN-39" value="Fecha/hora_de_salida" style="ellipse;whiteSpace=wrap;html=1;align=center;" vertex="1" parent="1">
          <mxGeometry x="1090" y="230" width="50" height="30" as="geometry" />
        </mxCell>
        <mxCell id="3tEjD4ta9u-uqrEoS7ZN-40" value="" style="endArrow=none;html=1;rounded=0;" edge="1" target="3tEjD4ta9u-uqrEoS7ZN-41" parent="1" source="3tEjD4ta9u-uqrEoS7ZN-5">
          <mxGeometry relative="1" as="geometry">
            <mxPoint x="1020" y="75" as="sourcePoint" />
            <mxPoint x="1080" y="75" as="targetPoint" />
          </mxGeometry>
        </mxCell>
        <mxCell id="3tEjD4ta9u-uqrEoS7ZN-41" value="Fecha_de_llegada" style="ellipse;whiteSpace=wrap;html=1;align=center;" vertex="1" parent="1">
          <mxGeometry x="980" y="230" width="50" height="30" as="geometry" />
        </mxCell>
        <mxCell id="3tEjD4ta9u-uqrEoS7ZN-42" value="" style="endArrow=none;html=1;rounded=0;" edge="1" target="3tEjD4ta9u-uqrEoS7ZN-43" parent="1" source="3tEjD4ta9u-uqrEoS7ZN-5">
          <mxGeometry relative="1" as="geometry">
            <mxPoint x="1020" y="75" as="sourcePoint" />
            <mxPoint x="1080" y="75" as="targetPoint" />
          </mxGeometry>
        </mxCell>
        <mxCell id="3tEjD4ta9u-uqrEoS7ZN-43" value="Origen" style="ellipse;whiteSpace=wrap;html=1;align=center;" vertex="1" parent="1">
          <mxGeometry x="1075" y="190" width="50" height="30" as="geometry" />
        </mxCell>
        <mxCell id="3tEjD4ta9u-uqrEoS7ZN-44" value="" style="endArrow=none;html=1;rounded=0;" edge="1" target="3tEjD4ta9u-uqrEoS7ZN-45" parent="1" source="3tEjD4ta9u-uqrEoS7ZN-4">
          <mxGeometry relative="1" as="geometry">
            <mxPoint x="700" y="145" as="sourcePoint" />
            <mxPoint x="760" y="145" as="targetPoint" />
          </mxGeometry>
        </mxCell>
        <mxCell id="3tEjD4ta9u-uqrEoS7ZN-45" value="Numero_Estrella" style="ellipse;whiteSpace=wrap;html=1;align=center;" vertex="1" parent="1">
          <mxGeometry x="735" y="130" width="50" height="30" as="geometry" />
        </mxCell>
        <mxCell id="3tEjD4ta9u-uqrEoS7ZN-46" value="" style="endArrow=none;html=1;rounded=0;" edge="1" target="3tEjD4ta9u-uqrEoS7ZN-47" parent="1" source="3tEjD4ta9u-uqrEoS7ZN-5">
          <mxGeometry relative="1" as="geometry">
            <mxPoint x="700" y="145" as="sourcePoint" />
            <mxPoint x="760" y="145" as="targetPoint" />
          </mxGeometry>
        </mxCell>
        <mxCell id="3tEjD4ta9u-uqrEoS7ZN-47" value="Destino" style="ellipse;whiteSpace=wrap;html=1;align=center;" vertex="1" parent="1">
          <mxGeometry x="975" y="190" width="50" height="30" as="geometry" />
        </mxCell>
        <mxCell id="3tEjD4ta9u-uqrEoS7ZN-48" value="" style="endArrow=none;html=1;rounded=0;" edge="1" target="3tEjD4ta9u-uqrEoS7ZN-49" parent="1" source="3tEjD4ta9u-uqrEoS7ZN-5">
          <mxGeometry relative="1" as="geometry">
            <mxPoint x="700" y="145" as="sourcePoint" />
            <mxPoint x="760" y="145" as="targetPoint" />
          </mxGeometry>
        </mxCell>
        <mxCell id="3tEjD4ta9u-uqrEoS7ZN-49" value="Numero_de_plazas_totales" style="ellipse;whiteSpace=wrap;html=1;align=center;" vertex="1" parent="1">
          <mxGeometry x="970" y="140" width="50" height="30" as="geometry" />
        </mxCell>
        <mxCell id="3tEjD4ta9u-uqrEoS7ZN-50" value="Atiende" style="shape=rhombus;perimeter=rhombusPerimeter;whiteSpace=wrap;html=1;align=center;fillColor=#76608a;fontColor=#ffffff;strokeColor=#432D57;" vertex="1" parent="1">
          <mxGeometry x="510" y="250" width="90" height="40" as="geometry" />
        </mxCell>
        <mxCell id="3tEjD4ta9u-uqrEoS7ZN-51" value="" style="endArrow=none;html=1;rounded=0;exitX=0;exitY=0.5;exitDx=0;exitDy=0;entryX=1;entryY=0.5;entryDx=0;entryDy=0;" edge="1" source="3tEjD4ta9u-uqrEoS7ZN-50" parent="1" target="3tEjD4ta9u-uqrEoS7ZN-3">
          <mxGeometry relative="1" as="geometry">
            <mxPoint x="593.75" y="630" as="sourcePoint" />
            <mxPoint x="546.75" y="660" as="targetPoint" />
          </mxGeometry>
        </mxCell>
        <mxCell id="3tEjD4ta9u-uqrEoS7ZN-52" value="(1,N)" style="resizable=0;html=1;whiteSpace=wrap;align=right;verticalAlign=bottom;" connectable="0" vertex="1" parent="3tEjD4ta9u-uqrEoS7ZN-51">
          <mxGeometry x="1" relative="1" as="geometry">
            <mxPoint x="34" as="offset" />
          </mxGeometry>
        </mxCell>
        <mxCell id="3tEjD4ta9u-uqrEoS7ZN-53" value="" style="endArrow=none;html=1;rounded=0;exitX=1;exitY=0.5;exitDx=0;exitDy=0;entryX=0.61;entryY=0.913;entryDx=0;entryDy=0;entryPerimeter=0;" edge="1" source="3tEjD4ta9u-uqrEoS7ZN-50" parent="1" target="3tEjD4ta9u-uqrEoS7ZN-2">
          <mxGeometry relative="1" as="geometry">
            <mxPoint x="593.75" y="630" as="sourcePoint" />
            <mxPoint x="766.75" y="660" as="targetPoint" />
          </mxGeometry>
        </mxCell>
        <mxCell id="3tEjD4ta9u-uqrEoS7ZN-54" value="(1,N)" style="resizable=0;html=1;whiteSpace=wrap;align=right;verticalAlign=bottom;" connectable="0" vertex="1" parent="3tEjD4ta9u-uqrEoS7ZN-53">
          <mxGeometry x="1" relative="1" as="geometry">
            <mxPoint as="offset" />
          </mxGeometry>
        </mxCell>
      </root>
    </mxGraphModel>
  </diagram>
</mxfile>
